G04 #@! TF.GenerationSoftware,KiCad,Pcbnew,5.1.10*
G04 #@! TF.CreationDate,2021-05-11T16:48:26+02:00*
G04 #@! TF.ProjectId,M17_soundcard,4d31375f-736f-4756-9e64-636172642e6b,rev?*
G04 #@! TF.SameCoordinates,Original*
G04 #@! TF.FileFunction,Paste,Top*
G04 #@! TF.FilePolarity,Positive*
%FSLAX46Y46*%
G04 Gerber Fmt 4.6, Leading zero omitted, Abs format (unit mm)*
G04 Created by KiCad (PCBNEW 5.1.10) date 2021-05-11 16:48:26*
%MOMM*%
%LPD*%
G01*
G04 APERTURE LIST*
%ADD10R,0.660400X2.032000*%
%ADD11R,1.300000X1.500000*%
%ADD12R,1.500000X1.300000*%
%ADD13R,1.800000X1.600000*%
%ADD14R,2.000000X2.400000*%
%ADD15R,0.500000X2.308000*%
%ADD16R,0.500000X0.700000*%
%ADD17R,2.032000X0.660400*%
%ADD18R,2.000000X1.700000*%
%ADD19R,1.700000X2.000000*%
%ADD20R,0.317500X1.016000*%
%ADD21R,1.016000X0.317500*%
G04 APERTURE END LIST*
D10*
X188341000Y-108737400D03*
X188341000Y-102590600D03*
X189611000Y-108737400D03*
X190881000Y-108737400D03*
X189611000Y-102590600D03*
X190881000Y-102590600D03*
X192151000Y-108737400D03*
X192151000Y-102590600D03*
X193421000Y-108737400D03*
X193421000Y-102590600D03*
X194691000Y-108737400D03*
X195961000Y-108737400D03*
X194691000Y-102590600D03*
X195961000Y-102590600D03*
X197231000Y-108737400D03*
X197231000Y-102590600D03*
D11*
X204563900Y-98641100D03*
X206463900Y-98641100D03*
X204563900Y-95783600D03*
X206463900Y-95783600D03*
D12*
X175260000Y-96700200D03*
X175260000Y-98600200D03*
D13*
X152717500Y-130114500D03*
X152717500Y-127314500D03*
D11*
X191955500Y-98435100D03*
X190055500Y-98435100D03*
X182146100Y-118183600D03*
X184046100Y-118183600D03*
D12*
X186906100Y-120403600D03*
X186906100Y-118503600D03*
D11*
X157491100Y-112331500D03*
X159391100Y-112331500D03*
X157491100Y-110045500D03*
X159391100Y-110045500D03*
D12*
X154521100Y-103898600D03*
X154521100Y-105798600D03*
X152298600Y-103898600D03*
X152298600Y-105798600D03*
X172847000Y-96700200D03*
X172847000Y-98600200D03*
X154521100Y-99718100D03*
X154521100Y-97818100D03*
X152298600Y-99718100D03*
X152298600Y-97818100D03*
X192585400Y-120419100D03*
X192585400Y-118519100D03*
D11*
X194805400Y-123279100D03*
X192905400Y-123279100D03*
X159483900Y-96974600D03*
X157583900Y-96974600D03*
D12*
X165935600Y-95099900D03*
X165935600Y-96999900D03*
D11*
X159483900Y-94434600D03*
X157583900Y-94434600D03*
D12*
X163395600Y-95099900D03*
X163395600Y-96999900D03*
D11*
X195331000Y-111305400D03*
X197231000Y-111305400D03*
D12*
X158013600Y-121361100D03*
X158013600Y-123261100D03*
D11*
X195331000Y-113845400D03*
X197231000Y-113845400D03*
D12*
X168084500Y-121361100D03*
X168084500Y-123261100D03*
D11*
X178966100Y-118183600D03*
X177066100Y-118183600D03*
D13*
X155067000Y-130114500D03*
X155067000Y-127314500D03*
D11*
X191955500Y-95895100D03*
X190055500Y-95895100D03*
D14*
X166858600Y-135693600D03*
X166858600Y-130193600D03*
X158058600Y-135693600D03*
D15*
X164058600Y-129629600D03*
X163258600Y-129629600D03*
X162458600Y-129629600D03*
X161658600Y-129629600D03*
X160858600Y-129629600D03*
D14*
X158058600Y-130193600D03*
D16*
X184848500Y-120403600D03*
X184848500Y-121703600D03*
D10*
X185001100Y-98600200D03*
X185001100Y-104747000D03*
X183731100Y-98600200D03*
X182461100Y-98600200D03*
X183731100Y-104747000D03*
X182461100Y-104747000D03*
X181191100Y-98600200D03*
X181191100Y-104747000D03*
X179921100Y-98600200D03*
X178651100Y-98600200D03*
X179921100Y-104747000D03*
X178651100Y-104747000D03*
X177381100Y-98600200D03*
X177381100Y-104747000D03*
X181165500Y-93497400D03*
X181165500Y-87350600D03*
X182435500Y-93497400D03*
X183705500Y-93497400D03*
X182435500Y-87350600D03*
X183705500Y-87350600D03*
X184975500Y-93497400D03*
X184975500Y-87350600D03*
X186245500Y-93497400D03*
X186245500Y-87350600D03*
X187515500Y-93497400D03*
X188785500Y-93497400D03*
X187515500Y-87350600D03*
X188785500Y-87350600D03*
X190055500Y-93497400D03*
X190055500Y-87350600D03*
D17*
X206463900Y-109611100D03*
X200317100Y-109611100D03*
X206463900Y-108341100D03*
X206463900Y-107071100D03*
X200317100Y-108341100D03*
X200317100Y-107071100D03*
X206463900Y-105801100D03*
X200317100Y-105801100D03*
X206463900Y-104531100D03*
X200317100Y-104531100D03*
X206463900Y-103261100D03*
X206463900Y-101991100D03*
X200317100Y-103261100D03*
X200317100Y-101991100D03*
X206463900Y-100721100D03*
X200317100Y-100721100D03*
D18*
X155353000Y-116078000D03*
X159353000Y-116078000D03*
D19*
X149606000Y-103718100D03*
X149606000Y-99718100D03*
D11*
X178966100Y-109293600D03*
X177066100Y-109293600D03*
D12*
X195125400Y-120419100D03*
X195125400Y-118519100D03*
X88801100Y-88341100D03*
X88801100Y-90241100D03*
X108798600Y-88341100D03*
X108798600Y-90241100D03*
X128803600Y-88341100D03*
X128803600Y-90241100D03*
X148806100Y-88341100D03*
X148806100Y-90241100D03*
X165735000Y-123261100D03*
X165735000Y-121361100D03*
X163411100Y-121361100D03*
X163411100Y-123261100D03*
D11*
X172616100Y-105483600D03*
X170716100Y-105483600D03*
X182146100Y-109293600D03*
X184046100Y-109293600D03*
X172616100Y-102943600D03*
X170716100Y-102943600D03*
D12*
X160553600Y-121361100D03*
X160553600Y-123261100D03*
D11*
X178648600Y-89021100D03*
X176748600Y-89021100D03*
D12*
X190081100Y-120403600D03*
X190081100Y-118503600D03*
X197665400Y-120419100D03*
X197665400Y-118519100D03*
D20*
X164891100Y-107511100D03*
X164391100Y-107511100D03*
X163891100Y-107511100D03*
X163391100Y-107511100D03*
X162891100Y-107511100D03*
X162391100Y-107511100D03*
X161891100Y-107511100D03*
X161391100Y-107511100D03*
X160891100Y-107511100D03*
X160391100Y-107511100D03*
X159891100Y-107511100D03*
X159391100Y-107511100D03*
D21*
X157891100Y-106011100D03*
X157891100Y-105511100D03*
X157891100Y-105011100D03*
X157891100Y-104511100D03*
X157891100Y-104011100D03*
X157891100Y-103511100D03*
X157891100Y-103011100D03*
X157891100Y-102511100D03*
X157891100Y-102011100D03*
X157891100Y-101511100D03*
X157891100Y-101011100D03*
X157891100Y-100511100D03*
D20*
X159391100Y-99011100D03*
X159891100Y-99011100D03*
X160391100Y-99011100D03*
X160891100Y-99011100D03*
X161391100Y-99011100D03*
X161891100Y-99011100D03*
X162391100Y-99011100D03*
X162891100Y-99011100D03*
X163391100Y-99011100D03*
X163891100Y-99011100D03*
X164391100Y-99011100D03*
X164891100Y-99011100D03*
D21*
X166391100Y-100511100D03*
X166391100Y-101011100D03*
X166391100Y-101511100D03*
X166391100Y-102011100D03*
X166391100Y-102511100D03*
X166391100Y-103011100D03*
X166391100Y-103511100D03*
X166391100Y-104011100D03*
X166391100Y-104511100D03*
X166391100Y-105011100D03*
X166391100Y-105511100D03*
X166391100Y-106011100D03*
M02*
