M48
; DRILL file {KiCad 5.1.10} date Tue May 11 19:36:05 2021
; FORMAT={-:-/ absolute / metric / decimal}
; #@! TF.CreationDate,2021-05-11T19:36:05+02:00
; #@! TF.GenerationSoftware,Kicad,Pcbnew,5.1.10
; #@! TF.FileFunction,Plated,1,2,PTH
FMAT,2
METRIC
T1C0.200
T2C0.400
T3C0.813
T4C0.900
T5C2.000
%
G90
G05
T1
X93.001Y-90.504
X113.001Y-90.504
X148.806Y-91.514
X149.733Y-93.408
X156.426Y-105.156
X156.426Y-106.011
X156.845Y-99.695
X157.891Y-99.695
X161.891Y-100.965
X161.891Y-112.151
X162.75Y-101.6
X162.75Y-113.093
T2
X85.743Y-97.108
X92.861Y-97.108
X99.979Y-97.108
X107.097Y-97.108
X114.215Y-97.108
X121.333Y-97.108
X128.451Y-97.108
X135.569Y-97.108
X142.687Y-97.108
X142.687Y-105.188
X142.687Y-113.268
X142.687Y-121.349
X142.687Y-129.429
X145.76Y-97.108
X145.76Y-105.188
X145.76Y-113.268
X145.76Y-121.349
X145.76Y-129.429
X150.05Y-108.815
X150.05Y-111.009
X150.05Y-113.204
X151.194Y-95.875
X152.167Y-108.815
X152.167Y-111.009
X152.167Y-113.204
X153.31Y-94.181
X153.31Y-95.875
X154.284Y-108.815
X154.284Y-111.009
X154.284Y-113.204
X155.427Y-94.181
X155.427Y-95.875
X159.893Y-101.028
X159.893Y-102.531
X159.893Y-104.034
X159.893Y-105.537
X168.151Y-94.469
X168.151Y-96.595
X168.151Y-98.79
X168.151Y-100.562
X170.016Y-94.469
X170.016Y-96.595
X170.016Y-98.79
X170.016Y-100.562
X171.881Y-94.469
X173.746Y-94.469
X175.611Y-94.469
X175.945Y-130.429
X181.165Y-95.404
X181.165Y-96.694
X183.282Y-95.404
X183.282Y-96.694
X184.431Y-130.429
X185.399Y-95.404
X185.399Y-96.694
X186.88Y-111.736
X186.88Y-113.93
X186.88Y-116.125
X187.516Y-95.404
X187.516Y-96.694
X188.997Y-111.736
X188.997Y-113.93
X188.997Y-116.125
X191.114Y-111.736
X191.114Y-113.93
X191.114Y-116.125
X192.917Y-130.429
X193.23Y-111.736
X193.23Y-113.93
X193.23Y-116.125
X194.945Y-95.249
X194.945Y-97.097
X194.945Y-98.944
X197.062Y-95.249
X197.062Y-97.097
X197.062Y-98.944
X199.178Y-95.249
X199.178Y-97.097
X199.178Y-98.944
X200.343Y-111.736
X200.343Y-113.93
X200.343Y-116.125
X200.343Y-118.32
X201.295Y-95.249
X201.295Y-97.097
X201.295Y-98.944
X201.404Y-130.429
X202.459Y-111.736
X202.459Y-113.93
X202.459Y-116.125
X202.459Y-118.32
X204.576Y-111.736
X204.576Y-113.93
X204.576Y-116.125
X204.576Y-118.32
X206.692Y-111.736
X206.692Y-113.93
X206.692Y-116.125
X206.692Y-118.32
X209.89Y-130.429
T3
X178.143Y-113.739
X182.969Y-113.739
T4
X86.111Y-83.584
X88.651Y-83.584
X106.111Y-83.584
X108.651Y-83.584
X126.111Y-83.584
X128.651Y-83.584
X146.111Y-83.584
X148.651Y-83.584
X176.111Y-83.584
X178.651Y-83.584
T5
X83.571Y-78.504
X93.731Y-78.504
X103.571Y-78.504
X113.731Y-78.504
X123.571Y-78.504
X133.731Y-78.504
X143.571Y-78.504
X153.731Y-78.504
X173.571Y-78.504
X183.731Y-78.504
T0
M30
