G04 #@! TF.GenerationSoftware,KiCad,Pcbnew,5.1.10*
G04 #@! TF.CreationDate,2021-05-11T19:34:40+02:00*
G04 #@! TF.ProjectId,M17_soundcard,4d31375f-736f-4756-9e64-636172642e6b,rev?*
G04 #@! TF.SameCoordinates,Original*
G04 #@! TF.FileFunction,Legend,Top*
G04 #@! TF.FilePolarity,Positive*
%FSLAX46Y46*%
G04 Gerber Fmt 4.6, Leading zero omitted, Abs format (unit mm)*
G04 Created by KiCad (PCBNEW 5.1.10) date 2021-05-11 19:34:40*
%MOMM*%
%LPD*%
G01*
G04 APERTURE LIST*
%ADD10C,0.150000*%
%ADD11C,0.152400*%
%ADD12C,0.050800*%
%ADD13C,0.127000*%
%ADD14C,0.203200*%
%ADD15C,0.254000*%
%ADD16C,1.260000*%
%ADD17C,0.406400*%
%ADD18C,0.101600*%
%ADD19C,3.200000*%
%ADD20C,1.000000*%
%ADD21C,4.013200*%
%ADD22C,1.473200*%
%ADD23C,2.003200*%
G04 APERTURE END LIST*
D10*
X181287976Y-128691666D02*
X181764166Y-128691666D01*
X181192738Y-128977380D02*
X181526071Y-127977380D01*
X181859404Y-128977380D01*
X182192738Y-128310714D02*
X182192738Y-128977380D01*
X182192738Y-128405952D02*
X182240357Y-128358333D01*
X182335595Y-128310714D01*
X182478452Y-128310714D01*
X182573690Y-128358333D01*
X182621309Y-128453571D01*
X182621309Y-128977380D01*
X183526071Y-128977380D02*
X183526071Y-128453571D01*
X183478452Y-128358333D01*
X183383214Y-128310714D01*
X183192738Y-128310714D01*
X183097500Y-128358333D01*
X183526071Y-128929761D02*
X183430833Y-128977380D01*
X183192738Y-128977380D01*
X183097500Y-128929761D01*
X183049880Y-128834523D01*
X183049880Y-128739285D01*
X183097500Y-128644047D01*
X183192738Y-128596428D01*
X183430833Y-128596428D01*
X183526071Y-128548809D01*
X184145119Y-128977380D02*
X184049880Y-128929761D01*
X184002261Y-128834523D01*
X184002261Y-127977380D01*
X184668928Y-128977380D02*
X184573690Y-128929761D01*
X184526071Y-128882142D01*
X184478452Y-128786904D01*
X184478452Y-128501190D01*
X184526071Y-128405952D01*
X184573690Y-128358333D01*
X184668928Y-128310714D01*
X184811785Y-128310714D01*
X184907023Y-128358333D01*
X184954642Y-128405952D01*
X185002261Y-128501190D01*
X185002261Y-128786904D01*
X184954642Y-128882142D01*
X184907023Y-128929761D01*
X184811785Y-128977380D01*
X184668928Y-128977380D01*
X185859404Y-128310714D02*
X185859404Y-129120238D01*
X185811785Y-129215476D01*
X185764166Y-129263095D01*
X185668928Y-129310714D01*
X185526071Y-129310714D01*
X185430833Y-129263095D01*
X185859404Y-128929761D02*
X185764166Y-128977380D01*
X185573690Y-128977380D01*
X185478452Y-128929761D01*
X185430833Y-128882142D01*
X185383214Y-128786904D01*
X185383214Y-128501190D01*
X185430833Y-128405952D01*
X185478452Y-128358333D01*
X185573690Y-128310714D01*
X185764166Y-128310714D01*
X185859404Y-128358333D01*
X187097500Y-128977380D02*
X187097500Y-128310714D01*
X187097500Y-127977380D02*
X187049880Y-128025000D01*
X187097500Y-128072619D01*
X187145119Y-128025000D01*
X187097500Y-127977380D01*
X187097500Y-128072619D01*
X187573690Y-128310714D02*
X187573690Y-128977380D01*
X187573690Y-128405952D02*
X187621309Y-128358333D01*
X187716547Y-128310714D01*
X187859404Y-128310714D01*
X187954642Y-128358333D01*
X188002261Y-128453571D01*
X188002261Y-128977380D01*
X188335595Y-128310714D02*
X188716547Y-128310714D01*
X188478452Y-127977380D02*
X188478452Y-128834523D01*
X188526071Y-128929761D01*
X188621309Y-128977380D01*
X188716547Y-128977380D01*
X189430833Y-128929761D02*
X189335595Y-128977380D01*
X189145119Y-128977380D01*
X189049880Y-128929761D01*
X189002261Y-128834523D01*
X189002261Y-128453571D01*
X189049880Y-128358333D01*
X189145119Y-128310714D01*
X189335595Y-128310714D01*
X189430833Y-128358333D01*
X189478452Y-128453571D01*
X189478452Y-128548809D01*
X189002261Y-128644047D01*
X189907023Y-128977380D02*
X189907023Y-128310714D01*
X189907023Y-128501190D02*
X189954642Y-128405952D01*
X190002261Y-128358333D01*
X190097500Y-128310714D01*
X190192738Y-128310714D01*
X190383214Y-128310714D02*
X190764166Y-128310714D01*
X190526071Y-128977380D02*
X190526071Y-128120238D01*
X190573690Y-128025000D01*
X190668928Y-127977380D01*
X190764166Y-127977380D01*
X191526071Y-128977380D02*
X191526071Y-128453571D01*
X191478452Y-128358333D01*
X191383214Y-128310714D01*
X191192738Y-128310714D01*
X191097500Y-128358333D01*
X191526071Y-128929761D02*
X191430833Y-128977380D01*
X191192738Y-128977380D01*
X191097500Y-128929761D01*
X191049880Y-128834523D01*
X191049880Y-128739285D01*
X191097500Y-128644047D01*
X191192738Y-128596428D01*
X191430833Y-128596428D01*
X191526071Y-128548809D01*
X192430833Y-128929761D02*
X192335595Y-128977380D01*
X192145119Y-128977380D01*
X192049880Y-128929761D01*
X192002261Y-128882142D01*
X191954642Y-128786904D01*
X191954642Y-128501190D01*
X192002261Y-128405952D01*
X192049880Y-128358333D01*
X192145119Y-128310714D01*
X192335595Y-128310714D01*
X192430833Y-128358333D01*
X193240357Y-128929761D02*
X193145119Y-128977380D01*
X192954642Y-128977380D01*
X192859404Y-128929761D01*
X192811785Y-128834523D01*
X192811785Y-128453571D01*
X192859404Y-128358333D01*
X192954642Y-128310714D01*
X193145119Y-128310714D01*
X193240357Y-128358333D01*
X193287976Y-128453571D01*
X193287976Y-128548809D01*
X192811785Y-128644047D01*
X194478452Y-128977380D02*
X194478452Y-127977380D01*
X194478452Y-128358333D02*
X194573690Y-128310714D01*
X194764166Y-128310714D01*
X194859404Y-128358333D01*
X194907023Y-128405952D01*
X194954642Y-128501190D01*
X194954642Y-128786904D01*
X194907023Y-128882142D01*
X194859404Y-128929761D01*
X194764166Y-128977380D01*
X194573690Y-128977380D01*
X194478452Y-128929761D01*
X195526071Y-128977380D02*
X195430833Y-128929761D01*
X195383214Y-128882142D01*
X195335595Y-128786904D01*
X195335595Y-128501190D01*
X195383214Y-128405952D01*
X195430833Y-128358333D01*
X195526071Y-128310714D01*
X195668928Y-128310714D01*
X195764166Y-128358333D01*
X195811785Y-128405952D01*
X195859404Y-128501190D01*
X195859404Y-128786904D01*
X195811785Y-128882142D01*
X195764166Y-128929761D01*
X195668928Y-128977380D01*
X195526071Y-128977380D01*
X196716547Y-128977380D02*
X196716547Y-128453571D01*
X196668928Y-128358333D01*
X196573690Y-128310714D01*
X196383214Y-128310714D01*
X196287976Y-128358333D01*
X196716547Y-128929761D02*
X196621309Y-128977380D01*
X196383214Y-128977380D01*
X196287976Y-128929761D01*
X196240357Y-128834523D01*
X196240357Y-128739285D01*
X196287976Y-128644047D01*
X196383214Y-128596428D01*
X196621309Y-128596428D01*
X196716547Y-128548809D01*
X197192738Y-128977380D02*
X197192738Y-128310714D01*
X197192738Y-128501190D02*
X197240357Y-128405952D01*
X197287976Y-128358333D01*
X197383214Y-128310714D01*
X197478452Y-128310714D01*
X198240357Y-128977380D02*
X198240357Y-127977380D01*
X198240357Y-128929761D02*
X198145119Y-128977380D01*
X197954642Y-128977380D01*
X197859404Y-128929761D01*
X197811785Y-128882142D01*
X197764166Y-128786904D01*
X197764166Y-128501190D01*
X197811785Y-128405952D01*
X197859404Y-128358333D01*
X197954642Y-128310714D01*
X198145119Y-128310714D01*
X198240357Y-128358333D01*
X181240357Y-131277380D02*
X181478452Y-132277380D01*
X181668928Y-131563095D01*
X181859404Y-132277380D01*
X182097500Y-131277380D01*
X182621309Y-132277380D02*
X182526071Y-132229761D01*
X182478452Y-132182142D01*
X182430833Y-132086904D01*
X182430833Y-131801190D01*
X182478452Y-131705952D01*
X182526071Y-131658333D01*
X182621309Y-131610714D01*
X182764166Y-131610714D01*
X182859404Y-131658333D01*
X182907023Y-131705952D01*
X182954642Y-131801190D01*
X182954642Y-132086904D01*
X182907023Y-132182142D01*
X182859404Y-132229761D01*
X182764166Y-132277380D01*
X182621309Y-132277380D01*
X183383214Y-131610714D02*
X183383214Y-132467857D01*
X183335595Y-132563095D01*
X183240357Y-132610714D01*
X183192738Y-132610714D01*
X183383214Y-131277380D02*
X183335595Y-131325000D01*
X183383214Y-131372619D01*
X183430833Y-131325000D01*
X183383214Y-131277380D01*
X183383214Y-131372619D01*
X184287976Y-132229761D02*
X184192738Y-132277380D01*
X184002261Y-132277380D01*
X183907023Y-132229761D01*
X183859404Y-132182142D01*
X183811785Y-132086904D01*
X183811785Y-131801190D01*
X183859404Y-131705952D01*
X183907023Y-131658333D01*
X184002261Y-131610714D01*
X184192738Y-131610714D01*
X184287976Y-131658333D01*
X184716547Y-132277380D02*
X184716547Y-131610714D01*
X184716547Y-131277380D02*
X184668928Y-131325000D01*
X184716547Y-131372619D01*
X184764166Y-131325000D01*
X184716547Y-131277380D01*
X184716547Y-131372619D01*
X185573690Y-132229761D02*
X185478452Y-132277380D01*
X185287976Y-132277380D01*
X185192738Y-132229761D01*
X185145119Y-132134523D01*
X185145119Y-131753571D01*
X185192738Y-131658333D01*
X185287976Y-131610714D01*
X185478452Y-131610714D01*
X185573690Y-131658333D01*
X185621309Y-131753571D01*
X185621309Y-131848809D01*
X185145119Y-131944047D01*
X186478452Y-132229761D02*
X186383214Y-132277380D01*
X186192738Y-132277380D01*
X186097500Y-132229761D01*
X186049880Y-132182142D01*
X186002261Y-132086904D01*
X186002261Y-131801190D01*
X186049880Y-131705952D01*
X186097500Y-131658333D01*
X186192738Y-131610714D01*
X186383214Y-131610714D01*
X186478452Y-131658333D01*
X186907023Y-132277380D02*
X186907023Y-131277380D01*
X187335595Y-132277380D02*
X187335595Y-131753571D01*
X187287976Y-131658333D01*
X187192738Y-131610714D01*
X187049880Y-131610714D01*
X186954642Y-131658333D01*
X186907023Y-131705952D01*
X188573690Y-132277380D02*
X188573690Y-131277380D01*
X189145119Y-132277380D02*
X188716547Y-131705952D01*
X189145119Y-131277380D02*
X188573690Y-131848809D01*
X190002261Y-132277380D02*
X190002261Y-131753571D01*
X189954642Y-131658333D01*
X189859404Y-131610714D01*
X189668928Y-131610714D01*
X189573690Y-131658333D01*
X190002261Y-132229761D02*
X189907023Y-132277380D01*
X189668928Y-132277380D01*
X189573690Y-132229761D01*
X189526071Y-132134523D01*
X189526071Y-132039285D01*
X189573690Y-131944047D01*
X189668928Y-131896428D01*
X189907023Y-131896428D01*
X190002261Y-131848809D01*
X190907023Y-132229761D02*
X190811785Y-132277380D01*
X190621309Y-132277380D01*
X190526071Y-132229761D01*
X190478452Y-132182142D01*
X190430833Y-132086904D01*
X190430833Y-131801190D01*
X190478452Y-131705952D01*
X190526071Y-131658333D01*
X190621309Y-131610714D01*
X190811785Y-131610714D01*
X190907023Y-131658333D01*
X191240357Y-131610714D02*
X191764166Y-131610714D01*
X191240357Y-132277380D01*
X191764166Y-132277380D01*
X192145119Y-132277380D02*
X192145119Y-131610714D01*
X192145119Y-131705952D02*
X192192738Y-131658333D01*
X192287976Y-131610714D01*
X192430833Y-131610714D01*
X192526071Y-131658333D01*
X192573690Y-131753571D01*
X192573690Y-132277380D01*
X192573690Y-131753571D02*
X192621309Y-131658333D01*
X192716547Y-131610714D01*
X192859404Y-131610714D01*
X192954642Y-131658333D01*
X193002261Y-131753571D01*
X193002261Y-132277380D01*
X193907023Y-132277380D02*
X193907023Y-131753571D01*
X193859404Y-131658333D01*
X193764166Y-131610714D01*
X193573690Y-131610714D01*
X193478452Y-131658333D01*
X193907023Y-132229761D02*
X193811785Y-132277380D01*
X193573690Y-132277380D01*
X193478452Y-132229761D01*
X193430833Y-132134523D01*
X193430833Y-132039285D01*
X193478452Y-131944047D01*
X193573690Y-131896428D01*
X193811785Y-131896428D01*
X193907023Y-131848809D01*
X194383214Y-132277380D02*
X194383214Y-131610714D01*
X194383214Y-131801190D02*
X194430833Y-131705952D01*
X194478452Y-131658333D01*
X194573690Y-131610714D01*
X194668928Y-131610714D01*
X194954642Y-132229761D02*
X195049880Y-132277380D01*
X195240357Y-132277380D01*
X195335595Y-132229761D01*
X195383214Y-132134523D01*
X195383214Y-132086904D01*
X195335595Y-131991666D01*
X195240357Y-131944047D01*
X195097500Y-131944047D01*
X195002261Y-131896428D01*
X194954642Y-131801190D01*
X194954642Y-131753571D01*
X195002261Y-131658333D01*
X195097500Y-131610714D01*
X195240357Y-131610714D01*
X195335595Y-131658333D01*
X195811785Y-132277380D02*
X195811785Y-131277380D01*
X195907023Y-131896428D02*
X196192738Y-132277380D01*
X196192738Y-131610714D02*
X195811785Y-131991666D01*
X196621309Y-132277380D02*
X196621309Y-131610714D01*
X196621309Y-131277380D02*
X196573690Y-131325000D01*
X196621309Y-131372619D01*
X196668928Y-131325000D01*
X196621309Y-131277380D01*
X196621309Y-131372619D01*
X197811785Y-132229761D02*
X197954642Y-132277380D01*
X198192738Y-132277380D01*
X198287976Y-132229761D01*
X198335595Y-132182142D01*
X198383214Y-132086904D01*
X198383214Y-131991666D01*
X198335595Y-131896428D01*
X198287976Y-131848809D01*
X198192738Y-131801190D01*
X198002261Y-131753571D01*
X197907023Y-131705952D01*
X197859404Y-131658333D01*
X197811785Y-131563095D01*
X197811785Y-131467857D01*
X197859404Y-131372619D01*
X197907023Y-131325000D01*
X198002261Y-131277380D01*
X198240357Y-131277380D01*
X198383214Y-131325000D01*
X198811785Y-132277380D02*
X198811785Y-131277380D01*
X199192738Y-131277380D01*
X199287976Y-131325000D01*
X199335595Y-131372619D01*
X199383214Y-131467857D01*
X199383214Y-131610714D01*
X199335595Y-131705952D01*
X199287976Y-131753571D01*
X199192738Y-131801190D01*
X198811785Y-131801190D01*
X200287976Y-131277380D02*
X199811785Y-131277380D01*
X199764166Y-131753571D01*
X199811785Y-131705952D01*
X199907023Y-131658333D01*
X200145119Y-131658333D01*
X200240357Y-131705952D01*
X200287976Y-131753571D01*
X200335595Y-131848809D01*
X200335595Y-132086904D01*
X200287976Y-132182142D01*
X200240357Y-132229761D01*
X200145119Y-132277380D01*
X199907023Y-132277380D01*
X199811785Y-132229761D01*
X199764166Y-132182142D01*
X200668928Y-131277380D02*
X200907023Y-132277380D01*
X201097500Y-131563095D01*
X201287976Y-132277380D01*
X201526071Y-131277380D01*
X201811785Y-131277380D02*
X202049880Y-132277380D01*
X202240357Y-131563095D01*
X202430833Y-132277380D01*
X202668928Y-131277380D01*
X203049880Y-132277380D02*
X203049880Y-131277380D01*
X203430833Y-131277380D01*
X203526071Y-131325000D01*
X203573690Y-131372619D01*
X203621309Y-131467857D01*
X203621309Y-131610714D01*
X203573690Y-131705952D01*
X203526071Y-131753571D01*
X203430833Y-131801190D01*
X203049880Y-131801190D01*
X181287976Y-133879761D02*
X181430833Y-133927380D01*
X181668928Y-133927380D01*
X181764166Y-133879761D01*
X181811785Y-133832142D01*
X181859404Y-133736904D01*
X181859404Y-133641666D01*
X181811785Y-133546428D01*
X181764166Y-133498809D01*
X181668928Y-133451190D01*
X181478452Y-133403571D01*
X181383214Y-133355952D01*
X181335595Y-133308333D01*
X181287976Y-133213095D01*
X181287976Y-133117857D01*
X181335595Y-133022619D01*
X181383214Y-132975000D01*
X181478452Y-132927380D01*
X181716547Y-132927380D01*
X181859404Y-132975000D01*
X182287976Y-133927380D02*
X182287976Y-133260714D01*
X182287976Y-132927380D02*
X182240357Y-132975000D01*
X182287976Y-133022619D01*
X182335595Y-132975000D01*
X182287976Y-132927380D01*
X182287976Y-133022619D01*
X182907023Y-133927380D02*
X182811785Y-133879761D01*
X182764166Y-133784523D01*
X182764166Y-132927380D01*
X183192738Y-133260714D02*
X183430833Y-133927380D01*
X183668928Y-133260714D01*
X184478452Y-133927380D02*
X184478452Y-133403571D01*
X184430833Y-133308333D01*
X184335595Y-133260714D01*
X184145119Y-133260714D01*
X184049880Y-133308333D01*
X184478452Y-133879761D02*
X184383214Y-133927380D01*
X184145119Y-133927380D01*
X184049880Y-133879761D01*
X184002261Y-133784523D01*
X184002261Y-133689285D01*
X184049880Y-133594047D01*
X184145119Y-133546428D01*
X184383214Y-133546428D01*
X184478452Y-133498809D01*
X184954642Y-133260714D02*
X184954642Y-133927380D01*
X184954642Y-133355952D02*
X185002261Y-133308333D01*
X185097500Y-133260714D01*
X185240357Y-133260714D01*
X185335595Y-133308333D01*
X185383214Y-133403571D01*
X185383214Y-133927380D01*
X186002261Y-133927380D02*
X185907023Y-133879761D01*
X185859404Y-133832142D01*
X185811785Y-133736904D01*
X185811785Y-133451190D01*
X185859404Y-133355952D01*
X185907023Y-133308333D01*
X186002261Y-133260714D01*
X186145119Y-133260714D01*
X186240357Y-133308333D01*
X186287976Y-133355952D01*
X186335595Y-133451190D01*
X186335595Y-133736904D01*
X186287976Y-133832142D01*
X186240357Y-133879761D01*
X186145119Y-133927380D01*
X186002261Y-133927380D01*
X187478452Y-133879761D02*
X187621309Y-133927380D01*
X187859404Y-133927380D01*
X187954642Y-133879761D01*
X188002261Y-133832142D01*
X188049880Y-133736904D01*
X188049880Y-133641666D01*
X188002261Y-133546428D01*
X187954642Y-133498809D01*
X187859404Y-133451190D01*
X187668928Y-133403571D01*
X187573690Y-133355952D01*
X187526071Y-133308333D01*
X187478452Y-133213095D01*
X187478452Y-133117857D01*
X187526071Y-133022619D01*
X187573690Y-132975000D01*
X187668928Y-132927380D01*
X187907023Y-132927380D01*
X188049880Y-132975000D01*
X188859404Y-133879761D02*
X188764166Y-133927380D01*
X188573690Y-133927380D01*
X188478452Y-133879761D01*
X188430833Y-133784523D01*
X188430833Y-133403571D01*
X188478452Y-133308333D01*
X188573690Y-133260714D01*
X188764166Y-133260714D01*
X188859404Y-133308333D01*
X188907023Y-133403571D01*
X188907023Y-133498809D01*
X188430833Y-133594047D01*
X189240357Y-133260714D02*
X189478452Y-133927380D01*
X189716547Y-133260714D01*
X190526071Y-133927380D02*
X190526071Y-133403571D01*
X190478452Y-133308333D01*
X190383214Y-133260714D01*
X190192738Y-133260714D01*
X190097500Y-133308333D01*
X190526071Y-133879761D02*
X190430833Y-133927380D01*
X190192738Y-133927380D01*
X190097500Y-133879761D01*
X190049880Y-133784523D01*
X190049880Y-133689285D01*
X190097500Y-133594047D01*
X190192738Y-133546428D01*
X190430833Y-133546428D01*
X190526071Y-133498809D01*
X191764166Y-133927380D02*
X191764166Y-132927380D01*
X192240357Y-132927380D02*
X192240357Y-133736904D01*
X192287976Y-133832142D01*
X192335595Y-133879761D01*
X192430833Y-133927380D01*
X192621309Y-133927380D01*
X192716547Y-133879761D01*
X192764166Y-133832142D01*
X192811785Y-133736904D01*
X192811785Y-132927380D01*
X193240357Y-133022619D02*
X193287976Y-132975000D01*
X193383214Y-132927380D01*
X193621309Y-132927380D01*
X193716547Y-132975000D01*
X193764166Y-133022619D01*
X193811785Y-133117857D01*
X193811785Y-133213095D01*
X193764166Y-133355952D01*
X193192738Y-133927380D01*
X193811785Y-133927380D01*
X194240357Y-133927380D02*
X194240357Y-132927380D01*
X194811785Y-133927380D02*
X194383214Y-133355952D01*
X194811785Y-132927380D02*
X194240357Y-133498809D01*
X195145119Y-132927380D02*
X195383214Y-133927380D01*
X195573690Y-133213095D01*
X195764166Y-133927380D01*
X196002261Y-132927380D01*
X196573690Y-132927380D02*
X196764166Y-132927380D01*
X196859404Y-132975000D01*
X196954642Y-133070238D01*
X197002261Y-133260714D01*
X197002261Y-133594047D01*
X196954642Y-133784523D01*
X196859404Y-133879761D01*
X196764166Y-133927380D01*
X196573690Y-133927380D01*
X196478452Y-133879761D01*
X196383214Y-133784523D01*
X196335595Y-133594047D01*
X196335595Y-133260714D01*
X196383214Y-133070238D01*
X196478452Y-132975000D01*
X196573690Y-132927380D01*
D11*
X188087000Y-107619800D02*
X197485000Y-107619800D01*
X197485000Y-103708200D02*
X188087000Y-103708200D01*
X187706000Y-104089200D02*
X187706000Y-107238800D01*
X197866000Y-107238800D02*
X197866000Y-106172000D01*
X197866000Y-106172000D02*
X197866000Y-105156000D01*
X197866000Y-105156000D02*
X197866000Y-104089200D01*
D12*
X197866000Y-104063800D02*
X187706000Y-104063800D01*
D11*
X197866000Y-105156000D02*
G75*
G03*
X197866000Y-106172000I0J-508000D01*
G01*
X197485000Y-103708200D02*
G75*
G02*
X197866000Y-104089200I0J-381000D01*
G01*
X187706000Y-107238800D02*
G75*
G03*
X188087000Y-107619800I381000J0D01*
G01*
X197485000Y-107619800D02*
G75*
G03*
X197866000Y-107238800I0J381000D01*
G01*
X187706000Y-104089200D02*
G75*
G02*
X188087000Y-103708200I381000J0D01*
G01*
D13*
X158558600Y-129093600D02*
X166358600Y-129093600D01*
X158558600Y-138293600D02*
X166358600Y-138293600D01*
X158558600Y-134293600D02*
X158558600Y-131593600D01*
X166358600Y-131593600D02*
X166358600Y-134293600D01*
X159258600Y-129093600D02*
X160358600Y-129093600D01*
X164558600Y-129093600D02*
X165658600Y-129093600D01*
D11*
X185636100Y-103248400D02*
X185636100Y-100098800D01*
X176746100Y-100098800D02*
X176746100Y-101165600D01*
X176746100Y-101165600D02*
X176746100Y-102181600D01*
X176746100Y-102181600D02*
X176746100Y-103248400D01*
D12*
X176746100Y-103273800D02*
X185636100Y-103273800D01*
D11*
X176746100Y-102181600D02*
G75*
G03*
X176746100Y-101165600I0J508000D01*
G01*
X177127100Y-103629400D02*
G75*
G02*
X176746100Y-103248400I0J381000D01*
G01*
X185636100Y-100098800D02*
G75*
G03*
X185255100Y-99717800I-381000J0D01*
G01*
X177127100Y-99717800D02*
G75*
G03*
X176746100Y-100098800I0J-381000D01*
G01*
X185636100Y-103248400D02*
G75*
G02*
X185255100Y-103629400I-381000J0D01*
G01*
X180911500Y-92379800D02*
X190309500Y-92379800D01*
X190309500Y-88468200D02*
X180911500Y-88468200D01*
X180530500Y-88849200D02*
X180530500Y-91998800D01*
X190690500Y-91998800D02*
X190690500Y-90932000D01*
X190690500Y-90932000D02*
X190690500Y-89916000D01*
X190690500Y-89916000D02*
X190690500Y-88849200D01*
D12*
X190690500Y-88823800D02*
X180530500Y-88823800D01*
D11*
X190690500Y-89916000D02*
G75*
G03*
X190690500Y-90932000I0J-508000D01*
G01*
X190309500Y-88468200D02*
G75*
G02*
X190690500Y-88849200I0J-381000D01*
G01*
X180530500Y-91998800D02*
G75*
G03*
X180911500Y-92379800I381000J0D01*
G01*
X190309500Y-92379800D02*
G75*
G03*
X190690500Y-91998800I0J381000D01*
G01*
X180530500Y-88849200D02*
G75*
G02*
X180911500Y-88468200I381000J0D01*
G01*
X205346300Y-109865100D02*
X205346300Y-100467100D01*
X201434700Y-100467100D02*
X201434700Y-109865100D01*
X201815700Y-110246100D02*
X204965300Y-110246100D01*
X204965300Y-100086100D02*
X203898500Y-100086100D01*
X203898500Y-100086100D02*
X202882500Y-100086100D01*
X202882500Y-100086100D02*
X201815700Y-100086100D01*
D12*
X201790300Y-100086100D02*
X201790300Y-110246100D01*
D11*
X202882500Y-100086100D02*
G75*
G03*
X203898500Y-100086100I508000J0D01*
G01*
X201434700Y-100467100D02*
G75*
G02*
X201815700Y-100086100I381000J0D01*
G01*
X204965300Y-110246100D02*
G75*
G03*
X205346300Y-109865100I0J381000D01*
G01*
X205346300Y-100467100D02*
G75*
G03*
X204965300Y-100086100I-381000J0D01*
G01*
X201815700Y-110246100D02*
G75*
G02*
X201434700Y-109865100I0J381000D01*
G01*
D14*
X159653000Y-114678000D02*
X155053000Y-114678000D01*
X155053000Y-117478000D02*
X159653000Y-117478000D01*
X148206000Y-99418100D02*
X148206000Y-104018100D01*
X151006000Y-104018100D02*
X151006000Y-99418100D01*
D15*
X159041100Y-106636100D02*
X158766100Y-106361100D01*
X158766100Y-106361100D02*
X158766100Y-100161100D01*
X158766100Y-100161100D02*
X159041100Y-99886100D01*
X159041100Y-99886100D02*
X165241100Y-99886100D01*
X165241100Y-99886100D02*
X165516100Y-100161100D01*
X165516100Y-100161100D02*
X165516100Y-106361100D01*
X165516100Y-106361100D02*
X165241100Y-106636100D01*
X165241100Y-106636100D02*
X159041100Y-106636100D01*
X164741100Y-105261100D02*
G75*
G03*
X164741100Y-105261100I-600000J0D01*
G01*
D14*
X171376100Y-85378600D02*
X185926100Y-85378600D01*
X185926100Y-85378600D02*
X185926100Y-71228600D01*
X185926100Y-71228600D02*
X171376100Y-71228600D01*
X171376100Y-71228600D02*
X171376100Y-85378600D01*
X172251100Y-71128600D02*
X172251100Y-62478600D01*
X172251100Y-62478600D02*
X185051100Y-62478600D01*
X185051100Y-62478600D02*
X185051100Y-71153600D01*
X173751100Y-62353600D02*
X173751100Y-50028600D01*
X173751100Y-50028600D02*
X183551100Y-50028600D01*
X183551100Y-50028600D02*
X183551100Y-62378600D01*
D16*
X179281100Y-54563600D02*
G75*
G03*
X179281100Y-54563600I-630000J0D01*
G01*
D17*
X177508100Y-115897600D02*
X183604100Y-115897600D01*
X177508100Y-111579600D02*
X183604100Y-111579600D01*
D11*
X177508100Y-115389600D02*
X183604100Y-115389600D01*
X183604100Y-112087600D02*
X177508100Y-112087600D01*
X183604100Y-112087600D02*
G75*
G02*
X183604100Y-115389600I0J-1651000D01*
G01*
X177508100Y-115389600D02*
G75*
G02*
X177508100Y-112087600I0J1651000D01*
G01*
D17*
X183604100Y-111579600D02*
G75*
G02*
X183604100Y-115897600I0J-2159000D01*
G01*
X177508100Y-115897600D02*
G75*
G02*
X177508100Y-111579600I0J2159000D01*
G01*
D14*
X81376100Y-85378600D02*
X95926100Y-85378600D01*
X95926100Y-85378600D02*
X95926100Y-71228600D01*
X95926100Y-71228600D02*
X81376100Y-71228600D01*
X81376100Y-71228600D02*
X81376100Y-85378600D01*
X82251100Y-71128600D02*
X82251100Y-62478600D01*
X82251100Y-62478600D02*
X95051100Y-62478600D01*
X95051100Y-62478600D02*
X95051100Y-71153600D01*
X83751100Y-62353600D02*
X83751100Y-50028600D01*
X83751100Y-50028600D02*
X93551100Y-50028600D01*
X93551100Y-50028600D02*
X93551100Y-62378600D01*
D16*
X89281100Y-54563600D02*
G75*
G03*
X89281100Y-54563600I-630000J0D01*
G01*
D14*
X101376100Y-85378600D02*
X115926100Y-85378600D01*
X115926100Y-85378600D02*
X115926100Y-71228600D01*
X115926100Y-71228600D02*
X101376100Y-71228600D01*
X101376100Y-71228600D02*
X101376100Y-85378600D01*
X102251100Y-71128600D02*
X102251100Y-62478600D01*
X102251100Y-62478600D02*
X115051100Y-62478600D01*
X115051100Y-62478600D02*
X115051100Y-71153600D01*
X103751100Y-62353600D02*
X103751100Y-50028600D01*
X103751100Y-50028600D02*
X113551100Y-50028600D01*
X113551100Y-50028600D02*
X113551100Y-62378600D01*
D16*
X109281100Y-54563600D02*
G75*
G03*
X109281100Y-54563600I-630000J0D01*
G01*
D14*
X121376100Y-85378600D02*
X135926100Y-85378600D01*
X135926100Y-85378600D02*
X135926100Y-71228600D01*
X135926100Y-71228600D02*
X121376100Y-71228600D01*
X121376100Y-71228600D02*
X121376100Y-85378600D01*
X122251100Y-71128600D02*
X122251100Y-62478600D01*
X122251100Y-62478600D02*
X135051100Y-62478600D01*
X135051100Y-62478600D02*
X135051100Y-71153600D01*
X123751100Y-62353600D02*
X123751100Y-50028600D01*
X123751100Y-50028600D02*
X133551100Y-50028600D01*
X133551100Y-50028600D02*
X133551100Y-62378600D01*
D16*
X129281100Y-54563600D02*
G75*
G03*
X129281100Y-54563600I-630000J0D01*
G01*
D14*
X141376100Y-85378600D02*
X155926100Y-85378600D01*
X155926100Y-85378600D02*
X155926100Y-71228600D01*
X155926100Y-71228600D02*
X141376100Y-71228600D01*
X141376100Y-71228600D02*
X141376100Y-85378600D01*
X142251100Y-71128600D02*
X142251100Y-62478600D01*
X142251100Y-62478600D02*
X155051100Y-62478600D01*
X155051100Y-62478600D02*
X155051100Y-71153600D01*
X143751100Y-62353600D02*
X143751100Y-50028600D01*
X143751100Y-50028600D02*
X153551100Y-50028600D01*
X153551100Y-50028600D02*
X153551100Y-62378600D01*
D16*
X149281100Y-54563600D02*
G75*
G03*
X149281100Y-54563600I-630000J0D01*
G01*
D10*
D13*
X194950140Y-100971047D02*
X194950140Y-99764547D01*
X196214092Y-100856142D02*
X196156640Y-100913595D01*
X195984283Y-100971047D01*
X195869378Y-100971047D01*
X195697021Y-100913595D01*
X195582116Y-100798690D01*
X195524664Y-100683785D01*
X195467211Y-100453976D01*
X195467211Y-100281619D01*
X195524664Y-100051809D01*
X195582116Y-99936904D01*
X195697021Y-99822000D01*
X195869378Y-99764547D01*
X195984283Y-99764547D01*
X196156640Y-99822000D01*
X196214092Y-99879452D01*
X196673711Y-99879452D02*
X196731164Y-99822000D01*
X196846069Y-99764547D01*
X197133330Y-99764547D01*
X197248235Y-99822000D01*
X197305688Y-99879452D01*
X197363140Y-99994357D01*
X197363140Y-100109261D01*
X197305688Y-100281619D01*
X196616259Y-100971047D01*
X197363140Y-100971047D01*
D18*
X208416555Y-99332142D02*
X208359102Y-99389595D01*
X208186745Y-99447047D01*
X208071840Y-99447047D01*
X207899483Y-99389595D01*
X207784579Y-99274690D01*
X207727126Y-99159785D01*
X207669674Y-98929976D01*
X207669674Y-98757619D01*
X207727126Y-98527809D01*
X207784579Y-98412904D01*
X207899483Y-98298000D01*
X208071840Y-98240547D01*
X208186745Y-98240547D01*
X208359102Y-98298000D01*
X208416555Y-98355452D01*
X209565602Y-99447047D02*
X208876174Y-99447047D01*
X209220888Y-99447047D02*
X209220888Y-98240547D01*
X209105983Y-98412904D01*
X208991079Y-98527809D01*
X208876174Y-98585261D01*
X210657198Y-98240547D02*
X210082674Y-98240547D01*
X210025221Y-98815071D01*
X210082674Y-98757619D01*
X210197579Y-98700166D01*
X210484840Y-98700166D01*
X210599745Y-98757619D01*
X210657198Y-98815071D01*
X210714650Y-98929976D01*
X210714650Y-99217238D01*
X210657198Y-99332142D01*
X210599745Y-99389595D01*
X210484840Y-99447047D01*
X210197579Y-99447047D01*
X210082674Y-99389595D01*
X210025221Y-99332142D01*
X208416555Y-96411142D02*
X208359102Y-96468595D01*
X208186745Y-96526047D01*
X208071840Y-96526047D01*
X207899483Y-96468595D01*
X207784579Y-96353690D01*
X207727126Y-96238785D01*
X207669674Y-96008976D01*
X207669674Y-95836619D01*
X207727126Y-95606809D01*
X207784579Y-95491904D01*
X207899483Y-95377000D01*
X208071840Y-95319547D01*
X208186745Y-95319547D01*
X208359102Y-95377000D01*
X208416555Y-95434452D01*
X209565602Y-96526047D02*
X208876174Y-96526047D01*
X209220888Y-96526047D02*
X209220888Y-95319547D01*
X209105983Y-95491904D01*
X208991079Y-95606809D01*
X208876174Y-95664261D01*
X210599745Y-95721714D02*
X210599745Y-96526047D01*
X210312483Y-95262095D02*
X210025221Y-96123880D01*
X210772102Y-96123880D01*
X175722642Y-94524769D02*
X175780095Y-94582221D01*
X175837547Y-94754579D01*
X175837547Y-94869483D01*
X175780095Y-95041840D01*
X175665190Y-95156745D01*
X175550285Y-95214198D01*
X175320476Y-95271650D01*
X175148119Y-95271650D01*
X174918309Y-95214198D01*
X174803404Y-95156745D01*
X174688500Y-95041840D01*
X174631047Y-94869483D01*
X174631047Y-94754579D01*
X174688500Y-94582221D01*
X174745952Y-94524769D01*
X175837547Y-93375721D02*
X175837547Y-94065150D01*
X175837547Y-93720436D02*
X174631047Y-93720436D01*
X174803404Y-93835340D01*
X174918309Y-93950245D01*
X174975761Y-94065150D01*
X153116642Y-133911944D02*
X153174095Y-133969397D01*
X153231547Y-134141754D01*
X153231547Y-134256659D01*
X153174095Y-134429016D01*
X153059190Y-134543920D01*
X152944285Y-134601373D01*
X152714476Y-134658825D01*
X152542119Y-134658825D01*
X152312309Y-134601373D01*
X152197404Y-134543920D01*
X152082500Y-134429016D01*
X152025047Y-134256659D01*
X152025047Y-134141754D01*
X152082500Y-133969397D01*
X152139952Y-133911944D01*
X153231547Y-132762897D02*
X153231547Y-133452325D01*
X153231547Y-133107611D02*
X152025047Y-133107611D01*
X152197404Y-133222516D01*
X152312309Y-133337420D01*
X152369761Y-133452325D01*
X152025047Y-132016016D02*
X152025047Y-131901111D01*
X152082500Y-131786206D01*
X152139952Y-131728754D01*
X152254857Y-131671301D01*
X152484666Y-131613849D01*
X152771928Y-131613849D01*
X153001738Y-131671301D01*
X153116642Y-131728754D01*
X153174095Y-131786206D01*
X153231547Y-131901111D01*
X153231547Y-132016016D01*
X153174095Y-132130920D01*
X153116642Y-132188373D01*
X153001738Y-132245825D01*
X152771928Y-132303278D01*
X152484666Y-132303278D01*
X152254857Y-132245825D01*
X152139952Y-132188373D01*
X152082500Y-132130920D01*
X152025047Y-132016016D01*
X194082730Y-98824142D02*
X194025278Y-98881595D01*
X193852920Y-98939047D01*
X193738016Y-98939047D01*
X193565659Y-98881595D01*
X193450754Y-98766690D01*
X193393301Y-98651785D01*
X193335849Y-98421976D01*
X193335849Y-98249619D01*
X193393301Y-98019809D01*
X193450754Y-97904904D01*
X193565659Y-97790000D01*
X193738016Y-97732547D01*
X193852920Y-97732547D01*
X194025278Y-97790000D01*
X194082730Y-97847452D01*
X195231778Y-98939047D02*
X194542349Y-98939047D01*
X194887063Y-98939047D02*
X194887063Y-97732547D01*
X194772159Y-97904904D01*
X194657254Y-98019809D01*
X194542349Y-98077261D01*
X196380825Y-98939047D02*
X195691397Y-98939047D01*
X196036111Y-98939047D02*
X196036111Y-97732547D01*
X195921206Y-97904904D01*
X195806301Y-98019809D01*
X195691397Y-98077261D01*
X181619555Y-120604642D02*
X181562102Y-120662095D01*
X181389745Y-120719547D01*
X181274840Y-120719547D01*
X181102483Y-120662095D01*
X180987579Y-120547190D01*
X180930126Y-120432285D01*
X180872674Y-120202476D01*
X180872674Y-120030119D01*
X180930126Y-119800309D01*
X180987579Y-119685404D01*
X181102483Y-119570500D01*
X181274840Y-119513047D01*
X181389745Y-119513047D01*
X181562102Y-119570500D01*
X181619555Y-119627952D01*
X182768602Y-120719547D02*
X182079174Y-120719547D01*
X182423888Y-120719547D02*
X182423888Y-119513047D01*
X182308983Y-119685404D01*
X182194079Y-119800309D01*
X182079174Y-119857761D01*
X183228221Y-119627952D02*
X183285674Y-119570500D01*
X183400579Y-119513047D01*
X183687840Y-119513047D01*
X183802745Y-119570500D01*
X183860198Y-119627952D01*
X183917650Y-119742857D01*
X183917650Y-119857761D01*
X183860198Y-120030119D01*
X183170769Y-120719547D01*
X183917650Y-120719547D01*
X187406642Y-124196444D02*
X187464095Y-124253897D01*
X187521547Y-124426254D01*
X187521547Y-124541159D01*
X187464095Y-124713516D01*
X187349190Y-124828420D01*
X187234285Y-124885873D01*
X187004476Y-124943325D01*
X186832119Y-124943325D01*
X186602309Y-124885873D01*
X186487404Y-124828420D01*
X186372500Y-124713516D01*
X186315047Y-124541159D01*
X186315047Y-124426254D01*
X186372500Y-124253897D01*
X186429952Y-124196444D01*
X187521547Y-123047397D02*
X187521547Y-123736825D01*
X187521547Y-123392111D02*
X186315047Y-123392111D01*
X186487404Y-123507016D01*
X186602309Y-123621920D01*
X186659761Y-123736825D01*
X186315047Y-122645230D02*
X186315047Y-121898349D01*
X186774666Y-122300516D01*
X186774666Y-122128159D01*
X186832119Y-122013254D01*
X186889571Y-121955801D01*
X187004476Y-121898349D01*
X187291738Y-121898349D01*
X187406642Y-121955801D01*
X187464095Y-122013254D01*
X187521547Y-122128159D01*
X187521547Y-122472873D01*
X187464095Y-122587778D01*
X187406642Y-122645230D01*
X161490055Y-112730642D02*
X161432602Y-112788095D01*
X161260245Y-112845547D01*
X161145340Y-112845547D01*
X160972983Y-112788095D01*
X160858079Y-112673190D01*
X160800626Y-112558285D01*
X160743174Y-112328476D01*
X160743174Y-112156119D01*
X160800626Y-111926309D01*
X160858079Y-111811404D01*
X160972983Y-111696500D01*
X161145340Y-111639047D01*
X161260245Y-111639047D01*
X161432602Y-111696500D01*
X161490055Y-111753952D01*
X162639102Y-112845547D02*
X161949674Y-112845547D01*
X162294388Y-112845547D02*
X162294388Y-111639047D01*
X162179483Y-111811404D01*
X162064579Y-111926309D01*
X161949674Y-111983761D01*
X163673245Y-111639047D02*
X163443436Y-111639047D01*
X163328531Y-111696500D01*
X163271079Y-111753952D01*
X163156174Y-111926309D01*
X163098721Y-112156119D01*
X163098721Y-112615738D01*
X163156174Y-112730642D01*
X163213626Y-112788095D01*
X163328531Y-112845547D01*
X163558340Y-112845547D01*
X163673245Y-112788095D01*
X163730698Y-112730642D01*
X163788150Y-112615738D01*
X163788150Y-112328476D01*
X163730698Y-112213571D01*
X163673245Y-112156119D01*
X163558340Y-112098666D01*
X163328531Y-112098666D01*
X163213626Y-112156119D01*
X163156174Y-112213571D01*
X163098721Y-112328476D01*
X161553555Y-110635142D02*
X161496102Y-110692595D01*
X161323745Y-110750047D01*
X161208840Y-110750047D01*
X161036483Y-110692595D01*
X160921579Y-110577690D01*
X160864126Y-110462785D01*
X160806674Y-110232976D01*
X160806674Y-110060619D01*
X160864126Y-109830809D01*
X160921579Y-109715904D01*
X161036483Y-109601000D01*
X161208840Y-109543547D01*
X161323745Y-109543547D01*
X161496102Y-109601000D01*
X161553555Y-109658452D01*
X162702602Y-110750047D02*
X162013174Y-110750047D01*
X162357888Y-110750047D02*
X162357888Y-109543547D01*
X162242983Y-109715904D01*
X162128079Y-109830809D01*
X162013174Y-109888261D01*
X163104769Y-109543547D02*
X163909102Y-109543547D01*
X163392031Y-110750047D01*
X154958142Y-109447269D02*
X155015595Y-109504721D01*
X155073047Y-109677079D01*
X155073047Y-109791983D01*
X155015595Y-109964340D01*
X154900690Y-110079245D01*
X154785785Y-110136698D01*
X154555976Y-110194150D01*
X154383619Y-110194150D01*
X154153809Y-110136698D01*
X154038904Y-110079245D01*
X153924000Y-109964340D01*
X153866547Y-109791983D01*
X153866547Y-109677079D01*
X153924000Y-109504721D01*
X153981452Y-109447269D01*
X155073047Y-108298221D02*
X155073047Y-108987650D01*
X155073047Y-108642936D02*
X153866547Y-108642936D01*
X154038904Y-108757840D01*
X154153809Y-108872745D01*
X154211261Y-108987650D01*
X154383619Y-107608793D02*
X154326166Y-107723698D01*
X154268714Y-107781150D01*
X154153809Y-107838602D01*
X154096357Y-107838602D01*
X153981452Y-107781150D01*
X153924000Y-107723698D01*
X153866547Y-107608793D01*
X153866547Y-107378983D01*
X153924000Y-107264079D01*
X153981452Y-107206626D01*
X154096357Y-107149174D01*
X154153809Y-107149174D01*
X154268714Y-107206626D01*
X154326166Y-107264079D01*
X154383619Y-107378983D01*
X154383619Y-107608793D01*
X154441071Y-107723698D01*
X154498523Y-107781150D01*
X154613428Y-107838602D01*
X154843238Y-107838602D01*
X154958142Y-107781150D01*
X155015595Y-107723698D01*
X155073047Y-107608793D01*
X155073047Y-107378983D01*
X155015595Y-107264079D01*
X154958142Y-107206626D01*
X154843238Y-107149174D01*
X154613428Y-107149174D01*
X154498523Y-107206626D01*
X154441071Y-107264079D01*
X154383619Y-107378983D01*
X152735642Y-109510769D02*
X152793095Y-109568221D01*
X152850547Y-109740579D01*
X152850547Y-109855483D01*
X152793095Y-110027840D01*
X152678190Y-110142745D01*
X152563285Y-110200198D01*
X152333476Y-110257650D01*
X152161119Y-110257650D01*
X151931309Y-110200198D01*
X151816404Y-110142745D01*
X151701500Y-110027840D01*
X151644047Y-109855483D01*
X151644047Y-109740579D01*
X151701500Y-109568221D01*
X151758952Y-109510769D01*
X152850547Y-108361721D02*
X152850547Y-109051150D01*
X152850547Y-108706436D02*
X151644047Y-108706436D01*
X151816404Y-108821340D01*
X151931309Y-108936245D01*
X151988761Y-109051150D01*
X152850547Y-107787198D02*
X152850547Y-107557388D01*
X152793095Y-107442483D01*
X152735642Y-107385031D01*
X152563285Y-107270126D01*
X152333476Y-107212674D01*
X151873857Y-107212674D01*
X151758952Y-107270126D01*
X151701500Y-107327579D01*
X151644047Y-107442483D01*
X151644047Y-107672293D01*
X151701500Y-107787198D01*
X151758952Y-107844650D01*
X151873857Y-107902102D01*
X152161119Y-107902102D01*
X152276023Y-107844650D01*
X152333476Y-107787198D01*
X152390928Y-107672293D01*
X152390928Y-107442483D01*
X152333476Y-107327579D01*
X152276023Y-107270126D01*
X152161119Y-107212674D01*
X173246142Y-94588269D02*
X173303595Y-94645721D01*
X173361047Y-94818079D01*
X173361047Y-94932983D01*
X173303595Y-95105340D01*
X173188690Y-95220245D01*
X173073785Y-95277698D01*
X172843976Y-95335150D01*
X172671619Y-95335150D01*
X172441809Y-95277698D01*
X172326904Y-95220245D01*
X172212000Y-95105340D01*
X172154547Y-94932983D01*
X172154547Y-94818079D01*
X172212000Y-94645721D01*
X172269452Y-94588269D01*
X172269452Y-94128650D02*
X172212000Y-94071198D01*
X172154547Y-93956293D01*
X172154547Y-93669031D01*
X172212000Y-93554126D01*
X172269452Y-93496674D01*
X172384357Y-93439221D01*
X172499261Y-93439221D01*
X172671619Y-93496674D01*
X173361047Y-94186102D01*
X173361047Y-93439221D01*
X154958142Y-95875444D02*
X155015595Y-95932897D01*
X155073047Y-96105254D01*
X155073047Y-96220159D01*
X155015595Y-96392516D01*
X154900690Y-96507420D01*
X154785785Y-96564873D01*
X154555976Y-96622325D01*
X154383619Y-96622325D01*
X154153809Y-96564873D01*
X154038904Y-96507420D01*
X153924000Y-96392516D01*
X153866547Y-96220159D01*
X153866547Y-96105254D01*
X153924000Y-95932897D01*
X153981452Y-95875444D01*
X153981452Y-95415825D02*
X153924000Y-95358373D01*
X153866547Y-95243468D01*
X153866547Y-94956206D01*
X153924000Y-94841301D01*
X153981452Y-94783849D01*
X154096357Y-94726397D01*
X154211261Y-94726397D01*
X154383619Y-94783849D01*
X155073047Y-95473278D01*
X155073047Y-94726397D01*
X153866547Y-93979516D02*
X153866547Y-93864611D01*
X153924000Y-93749706D01*
X153981452Y-93692254D01*
X154096357Y-93634801D01*
X154326166Y-93577349D01*
X154613428Y-93577349D01*
X154843238Y-93634801D01*
X154958142Y-93692254D01*
X155015595Y-93749706D01*
X155073047Y-93864611D01*
X155073047Y-93979516D01*
X155015595Y-94094420D01*
X154958142Y-94151873D01*
X154843238Y-94209325D01*
X154613428Y-94266778D01*
X154326166Y-94266778D01*
X154096357Y-94209325D01*
X153981452Y-94151873D01*
X153924000Y-94094420D01*
X153866547Y-93979516D01*
X152735642Y-95811944D02*
X152793095Y-95869397D01*
X152850547Y-96041754D01*
X152850547Y-96156659D01*
X152793095Y-96329016D01*
X152678190Y-96443920D01*
X152563285Y-96501373D01*
X152333476Y-96558825D01*
X152161119Y-96558825D01*
X151931309Y-96501373D01*
X151816404Y-96443920D01*
X151701500Y-96329016D01*
X151644047Y-96156659D01*
X151644047Y-96041754D01*
X151701500Y-95869397D01*
X151758952Y-95811944D01*
X151758952Y-95352325D02*
X151701500Y-95294873D01*
X151644047Y-95179968D01*
X151644047Y-94892706D01*
X151701500Y-94777801D01*
X151758952Y-94720349D01*
X151873857Y-94662897D01*
X151988761Y-94662897D01*
X152161119Y-94720349D01*
X152850547Y-95409778D01*
X152850547Y-94662897D01*
X152850547Y-93513849D02*
X152850547Y-94203278D01*
X152850547Y-93858563D02*
X151644047Y-93858563D01*
X151816404Y-93973468D01*
X151931309Y-94088373D01*
X151988761Y-94203278D01*
X192867642Y-116322444D02*
X192925095Y-116379897D01*
X192982547Y-116552254D01*
X192982547Y-116667159D01*
X192925095Y-116839516D01*
X192810190Y-116954420D01*
X192695285Y-117011873D01*
X192465476Y-117069325D01*
X192293119Y-117069325D01*
X192063309Y-117011873D01*
X191948404Y-116954420D01*
X191833500Y-116839516D01*
X191776047Y-116667159D01*
X191776047Y-116552254D01*
X191833500Y-116379897D01*
X191890952Y-116322444D01*
X191890952Y-115862825D02*
X191833500Y-115805373D01*
X191776047Y-115690468D01*
X191776047Y-115403206D01*
X191833500Y-115288301D01*
X191890952Y-115230849D01*
X192005857Y-115173397D01*
X192120761Y-115173397D01*
X192293119Y-115230849D01*
X192982547Y-115920278D01*
X192982547Y-115173397D01*
X191890952Y-114713778D02*
X191833500Y-114656325D01*
X191776047Y-114541420D01*
X191776047Y-114254159D01*
X191833500Y-114139254D01*
X191890952Y-114081801D01*
X192005857Y-114024349D01*
X192120761Y-114024349D01*
X192293119Y-114081801D01*
X192982547Y-114771230D01*
X192982547Y-114024349D01*
X192939730Y-125748142D02*
X192882278Y-125805595D01*
X192709920Y-125863047D01*
X192595016Y-125863047D01*
X192422659Y-125805595D01*
X192307754Y-125690690D01*
X192250301Y-125575785D01*
X192192849Y-125345976D01*
X192192849Y-125173619D01*
X192250301Y-124943809D01*
X192307754Y-124828904D01*
X192422659Y-124714000D01*
X192595016Y-124656547D01*
X192709920Y-124656547D01*
X192882278Y-124714000D01*
X192939730Y-124771452D01*
X193399349Y-124771452D02*
X193456801Y-124714000D01*
X193571706Y-124656547D01*
X193858968Y-124656547D01*
X193973873Y-124714000D01*
X194031325Y-124771452D01*
X194088778Y-124886357D01*
X194088778Y-125001261D01*
X194031325Y-125173619D01*
X193341897Y-125863047D01*
X194088778Y-125863047D01*
X194490944Y-124656547D02*
X195237825Y-124656547D01*
X194835659Y-125116166D01*
X195008016Y-125116166D01*
X195122920Y-125173619D01*
X195180373Y-125231071D01*
X195237825Y-125345976D01*
X195237825Y-125633238D01*
X195180373Y-125748142D01*
X195122920Y-125805595D01*
X195008016Y-125863047D01*
X194663301Y-125863047D01*
X194548397Y-125805595D01*
X194490944Y-125748142D01*
X157824230Y-93045642D02*
X157766778Y-93103095D01*
X157594420Y-93160547D01*
X157479516Y-93160547D01*
X157307159Y-93103095D01*
X157192254Y-92988190D01*
X157134801Y-92873285D01*
X157077349Y-92643476D01*
X157077349Y-92471119D01*
X157134801Y-92241309D01*
X157192254Y-92126404D01*
X157307159Y-92011500D01*
X157479516Y-91954047D01*
X157594420Y-91954047D01*
X157766778Y-92011500D01*
X157824230Y-92068952D01*
X158283849Y-92068952D02*
X158341301Y-92011500D01*
X158456206Y-91954047D01*
X158743468Y-91954047D01*
X158858373Y-92011500D01*
X158915825Y-92068952D01*
X158973278Y-92183857D01*
X158973278Y-92298761D01*
X158915825Y-92471119D01*
X158226397Y-93160547D01*
X158973278Y-93160547D01*
X160007420Y-92356214D02*
X160007420Y-93160547D01*
X159720159Y-91896595D02*
X159432897Y-92758380D01*
X160179778Y-92758380D01*
X166388142Y-92810269D02*
X166445595Y-92867721D01*
X166503047Y-93040079D01*
X166503047Y-93154983D01*
X166445595Y-93327340D01*
X166330690Y-93442245D01*
X166215785Y-93499698D01*
X165985976Y-93557150D01*
X165813619Y-93557150D01*
X165583809Y-93499698D01*
X165468904Y-93442245D01*
X165354000Y-93327340D01*
X165296547Y-93154983D01*
X165296547Y-93040079D01*
X165354000Y-92867721D01*
X165411452Y-92810269D01*
X165411452Y-92350650D02*
X165354000Y-92293198D01*
X165296547Y-92178293D01*
X165296547Y-91891031D01*
X165354000Y-91776126D01*
X165411452Y-91718674D01*
X165526357Y-91661221D01*
X165641261Y-91661221D01*
X165813619Y-91718674D01*
X166503047Y-92408102D01*
X166503047Y-91661221D01*
X165296547Y-90569626D02*
X165296547Y-91144150D01*
X165871071Y-91201602D01*
X165813619Y-91144150D01*
X165756166Y-91029245D01*
X165756166Y-90741983D01*
X165813619Y-90627079D01*
X165871071Y-90569626D01*
X165985976Y-90512174D01*
X166273238Y-90512174D01*
X166388142Y-90569626D01*
X166445595Y-90627079D01*
X166503047Y-90741983D01*
X166503047Y-91029245D01*
X166445595Y-91144150D01*
X166388142Y-91201602D01*
X157824230Y-91331142D02*
X157766778Y-91388595D01*
X157594420Y-91446047D01*
X157479516Y-91446047D01*
X157307159Y-91388595D01*
X157192254Y-91273690D01*
X157134801Y-91158785D01*
X157077349Y-90928976D01*
X157077349Y-90756619D01*
X157134801Y-90526809D01*
X157192254Y-90411904D01*
X157307159Y-90297000D01*
X157479516Y-90239547D01*
X157594420Y-90239547D01*
X157766778Y-90297000D01*
X157824230Y-90354452D01*
X158283849Y-90354452D02*
X158341301Y-90297000D01*
X158456206Y-90239547D01*
X158743468Y-90239547D01*
X158858373Y-90297000D01*
X158915825Y-90354452D01*
X158973278Y-90469357D01*
X158973278Y-90584261D01*
X158915825Y-90756619D01*
X158226397Y-91446047D01*
X158973278Y-91446047D01*
X160007420Y-90239547D02*
X159777611Y-90239547D01*
X159662706Y-90297000D01*
X159605254Y-90354452D01*
X159490349Y-90526809D01*
X159432897Y-90756619D01*
X159432897Y-91216238D01*
X159490349Y-91331142D01*
X159547801Y-91388595D01*
X159662706Y-91446047D01*
X159892516Y-91446047D01*
X160007420Y-91388595D01*
X160064873Y-91331142D01*
X160122325Y-91216238D01*
X160122325Y-90928976D01*
X160064873Y-90814071D01*
X160007420Y-90756619D01*
X159892516Y-90699166D01*
X159662706Y-90699166D01*
X159547801Y-90756619D01*
X159490349Y-90814071D01*
X159432897Y-90928976D01*
X163911642Y-92746769D02*
X163969095Y-92804221D01*
X164026547Y-92976579D01*
X164026547Y-93091483D01*
X163969095Y-93263840D01*
X163854190Y-93378745D01*
X163739285Y-93436198D01*
X163509476Y-93493650D01*
X163337119Y-93493650D01*
X163107309Y-93436198D01*
X162992404Y-93378745D01*
X162877500Y-93263840D01*
X162820047Y-93091483D01*
X162820047Y-92976579D01*
X162877500Y-92804221D01*
X162934952Y-92746769D01*
X162934952Y-92287150D02*
X162877500Y-92229698D01*
X162820047Y-92114793D01*
X162820047Y-91827531D01*
X162877500Y-91712626D01*
X162934952Y-91655174D01*
X163049857Y-91597721D01*
X163164761Y-91597721D01*
X163337119Y-91655174D01*
X164026547Y-92344602D01*
X164026547Y-91597721D01*
X162820047Y-91195555D02*
X162820047Y-90391221D01*
X164026547Y-90908293D01*
X199215102Y-111714642D02*
X199157650Y-111772095D01*
X198985293Y-111829547D01*
X198870388Y-111829547D01*
X198698031Y-111772095D01*
X198583126Y-111657190D01*
X198525674Y-111542285D01*
X198468221Y-111312476D01*
X198468221Y-111140119D01*
X198525674Y-110910309D01*
X198583126Y-110795404D01*
X198698031Y-110680500D01*
X198870388Y-110623047D01*
X198985293Y-110623047D01*
X199157650Y-110680500D01*
X199215102Y-110737952D01*
X199617269Y-110623047D02*
X200364150Y-110623047D01*
X199961983Y-111082666D01*
X200134340Y-111082666D01*
X200249245Y-111140119D01*
X200306698Y-111197571D01*
X200364150Y-111312476D01*
X200364150Y-111599738D01*
X200306698Y-111714642D01*
X200249245Y-111772095D01*
X200134340Y-111829547D01*
X199789626Y-111829547D01*
X199674721Y-111772095D01*
X199617269Y-111714642D01*
X158323642Y-125703269D02*
X158381095Y-125760721D01*
X158438547Y-125933079D01*
X158438547Y-126047983D01*
X158381095Y-126220340D01*
X158266190Y-126335245D01*
X158151285Y-126392698D01*
X157921476Y-126450150D01*
X157749119Y-126450150D01*
X157519309Y-126392698D01*
X157404404Y-126335245D01*
X157289500Y-126220340D01*
X157232047Y-126047983D01*
X157232047Y-125933079D01*
X157289500Y-125760721D01*
X157346952Y-125703269D01*
X157634214Y-124669126D02*
X158438547Y-124669126D01*
X157174595Y-124956388D02*
X158036380Y-125243650D01*
X158036380Y-124496769D01*
X199151602Y-114445142D02*
X199094150Y-114502595D01*
X198921793Y-114560047D01*
X198806888Y-114560047D01*
X198634531Y-114502595D01*
X198519626Y-114387690D01*
X198462174Y-114272785D01*
X198404721Y-114042976D01*
X198404721Y-113870619D01*
X198462174Y-113640809D01*
X198519626Y-113525904D01*
X198634531Y-113411000D01*
X198806888Y-113353547D01*
X198921793Y-113353547D01*
X199094150Y-113411000D01*
X199151602Y-113468452D01*
X200243198Y-113353547D02*
X199668674Y-113353547D01*
X199611221Y-113928071D01*
X199668674Y-113870619D01*
X199783579Y-113813166D01*
X200070840Y-113813166D01*
X200185745Y-113870619D01*
X200243198Y-113928071D01*
X200300650Y-114042976D01*
X200300650Y-114330238D01*
X200243198Y-114445142D01*
X200185745Y-114502595D01*
X200070840Y-114560047D01*
X199783579Y-114560047D01*
X199668674Y-114502595D01*
X199611221Y-114445142D01*
X168547142Y-125703269D02*
X168604595Y-125760721D01*
X168662047Y-125933079D01*
X168662047Y-126047983D01*
X168604595Y-126220340D01*
X168489690Y-126335245D01*
X168374785Y-126392698D01*
X168144976Y-126450150D01*
X167972619Y-126450150D01*
X167742809Y-126392698D01*
X167627904Y-126335245D01*
X167513000Y-126220340D01*
X167455547Y-126047983D01*
X167455547Y-125933079D01*
X167513000Y-125760721D01*
X167570452Y-125703269D01*
X167455547Y-124669126D02*
X167455547Y-124898936D01*
X167513000Y-125013840D01*
X167570452Y-125071293D01*
X167742809Y-125186198D01*
X167972619Y-125243650D01*
X168432238Y-125243650D01*
X168547142Y-125186198D01*
X168604595Y-125128745D01*
X168662047Y-125013840D01*
X168662047Y-124784031D01*
X168604595Y-124669126D01*
X168547142Y-124611674D01*
X168432238Y-124554221D01*
X168144976Y-124554221D01*
X168030071Y-124611674D01*
X167972619Y-124669126D01*
X167915166Y-124784031D01*
X167915166Y-125013840D01*
X167972619Y-125128745D01*
X168030071Y-125186198D01*
X168144976Y-125243650D01*
X177890230Y-120731642D02*
X177832778Y-120789095D01*
X177660420Y-120846547D01*
X177545516Y-120846547D01*
X177373159Y-120789095D01*
X177258254Y-120674190D01*
X177200801Y-120559285D01*
X177143349Y-120329476D01*
X177143349Y-120157119D01*
X177200801Y-119927309D01*
X177258254Y-119812404D01*
X177373159Y-119697500D01*
X177545516Y-119640047D01*
X177660420Y-119640047D01*
X177832778Y-119697500D01*
X177890230Y-119754952D01*
X178292397Y-119640047D02*
X179096730Y-119640047D01*
X178579659Y-120846547D01*
X155466142Y-132826397D02*
X155523595Y-132883849D01*
X155581047Y-133056206D01*
X155581047Y-133171111D01*
X155523595Y-133343468D01*
X155408690Y-133458373D01*
X155293785Y-133515825D01*
X155063976Y-133573278D01*
X154891619Y-133573278D01*
X154661809Y-133515825D01*
X154546904Y-133458373D01*
X154432000Y-133343468D01*
X154374547Y-133171111D01*
X154374547Y-133056206D01*
X154432000Y-132883849D01*
X154489452Y-132826397D01*
X154891619Y-132136968D02*
X154834166Y-132251873D01*
X154776714Y-132309325D01*
X154661809Y-132366778D01*
X154604357Y-132366778D01*
X154489452Y-132309325D01*
X154432000Y-132251873D01*
X154374547Y-132136968D01*
X154374547Y-131907159D01*
X154432000Y-131792254D01*
X154489452Y-131734801D01*
X154604357Y-131677349D01*
X154661809Y-131677349D01*
X154776714Y-131734801D01*
X154834166Y-131792254D01*
X154891619Y-131907159D01*
X154891619Y-132136968D01*
X154949071Y-132251873D01*
X155006523Y-132309325D01*
X155121428Y-132366778D01*
X155351238Y-132366778D01*
X155466142Y-132309325D01*
X155523595Y-132251873D01*
X155581047Y-132136968D01*
X155581047Y-131907159D01*
X155523595Y-131792254D01*
X155466142Y-131734801D01*
X155351238Y-131677349D01*
X155121428Y-131677349D01*
X155006523Y-131734801D01*
X154949071Y-131792254D01*
X154891619Y-131907159D01*
X194082730Y-96347642D02*
X194025278Y-96405095D01*
X193852920Y-96462547D01*
X193738016Y-96462547D01*
X193565659Y-96405095D01*
X193450754Y-96290190D01*
X193393301Y-96175285D01*
X193335849Y-95945476D01*
X193335849Y-95773119D01*
X193393301Y-95543309D01*
X193450754Y-95428404D01*
X193565659Y-95313500D01*
X193738016Y-95256047D01*
X193852920Y-95256047D01*
X194025278Y-95313500D01*
X194082730Y-95370952D01*
X194657254Y-96462547D02*
X194887063Y-96462547D01*
X195001968Y-96405095D01*
X195059420Y-96347642D01*
X195174325Y-96175285D01*
X195231778Y-95945476D01*
X195231778Y-95485857D01*
X195174325Y-95370952D01*
X195116873Y-95313500D01*
X195001968Y-95256047D01*
X194772159Y-95256047D01*
X194657254Y-95313500D01*
X194599801Y-95370952D01*
X194542349Y-95485857D01*
X194542349Y-95773119D01*
X194599801Y-95888023D01*
X194657254Y-95945476D01*
X194772159Y-96002928D01*
X195001968Y-96002928D01*
X195116873Y-95945476D01*
X195174325Y-95888023D01*
X195231778Y-95773119D01*
X167857230Y-133177642D02*
X167799778Y-133235095D01*
X167627420Y-133292547D01*
X167512516Y-133292547D01*
X167340159Y-133235095D01*
X167225254Y-133120190D01*
X167167801Y-133005285D01*
X167110349Y-132775476D01*
X167110349Y-132603119D01*
X167167801Y-132373309D01*
X167225254Y-132258404D01*
X167340159Y-132143500D01*
X167512516Y-132086047D01*
X167627420Y-132086047D01*
X167799778Y-132143500D01*
X167857230Y-132200952D01*
X168374301Y-133292547D02*
X168374301Y-132086047D01*
X169063730Y-133292547D01*
X169063730Y-132086047D01*
X170270230Y-133292547D02*
X169580801Y-133292547D01*
X169925516Y-133292547D02*
X169925516Y-132086047D01*
X169810611Y-132258404D01*
X169695706Y-132373309D01*
X169580801Y-132430761D01*
X185426047Y-124689325D02*
X184219547Y-124689325D01*
X184219547Y-124402063D01*
X184277000Y-124229706D01*
X184391904Y-124114801D01*
X184506809Y-124057349D01*
X184736619Y-123999897D01*
X184908976Y-123999897D01*
X185138785Y-124057349D01*
X185253690Y-124114801D01*
X185368595Y-124229706D01*
X185426047Y-124402063D01*
X185426047Y-124689325D01*
X185426047Y-122850849D02*
X185426047Y-123540278D01*
X185426047Y-123195563D02*
X184219547Y-123195563D01*
X184391904Y-123310468D01*
X184506809Y-123425373D01*
X184564261Y-123540278D01*
D13*
X176307647Y-103208788D02*
X175101147Y-103208788D01*
X176192742Y-101944835D02*
X176250195Y-102002288D01*
X176307647Y-102174645D01*
X176307647Y-102289550D01*
X176250195Y-102461907D01*
X176135290Y-102576811D01*
X176020385Y-102634264D01*
X175790576Y-102691716D01*
X175618219Y-102691716D01*
X175388409Y-102634264D01*
X175273504Y-102576811D01*
X175158600Y-102461907D01*
X175101147Y-102289550D01*
X175101147Y-102174645D01*
X175158600Y-102002288D01*
X175216052Y-101944835D01*
X176307647Y-100795788D02*
X176307647Y-101485216D01*
X176307647Y-101140502D02*
X175101147Y-101140502D01*
X175273504Y-101255407D01*
X175388409Y-101370311D01*
X175445861Y-101485216D01*
X192284047Y-91625359D02*
X191077547Y-91625359D01*
X192169142Y-90361407D02*
X192226595Y-90418859D01*
X192284047Y-90591216D01*
X192284047Y-90706121D01*
X192226595Y-90878478D01*
X192111690Y-90993383D01*
X191996785Y-91050835D01*
X191766976Y-91108288D01*
X191594619Y-91108288D01*
X191364809Y-91050835D01*
X191249904Y-90993383D01*
X191135000Y-90878478D01*
X191077547Y-90706121D01*
X191077547Y-90591216D01*
X191135000Y-90418859D01*
X191192452Y-90361407D01*
X191077547Y-89959240D02*
X191077547Y-89212359D01*
X191537166Y-89614526D01*
X191537166Y-89442169D01*
X191594619Y-89327264D01*
X191652071Y-89269811D01*
X191766976Y-89212359D01*
X192054238Y-89212359D01*
X192169142Y-89269811D01*
X192226595Y-89327264D01*
X192284047Y-89442169D01*
X192284047Y-89786883D01*
X192226595Y-89901788D01*
X192169142Y-89959240D01*
X200458311Y-99701047D02*
X200458311Y-98494547D01*
X201722264Y-99586142D02*
X201664811Y-99643595D01*
X201492454Y-99701047D01*
X201377550Y-99701047D01*
X201205192Y-99643595D01*
X201090288Y-99528690D01*
X201032835Y-99413785D01*
X200975383Y-99183976D01*
X200975383Y-99011619D01*
X201032835Y-98781809D01*
X201090288Y-98666904D01*
X201205192Y-98552000D01*
X201377550Y-98494547D01*
X201492454Y-98494547D01*
X201664811Y-98552000D01*
X201722264Y-98609452D01*
X202756407Y-98896714D02*
X202756407Y-99701047D01*
X202469145Y-98437095D02*
X202181883Y-99298880D01*
X202928764Y-99298880D01*
D18*
X161611007Y-116655547D02*
X161036483Y-116655547D01*
X161036483Y-115449047D01*
X162645150Y-116655547D02*
X161955721Y-116655547D01*
X162300436Y-116655547D02*
X162300436Y-115449047D01*
X162185531Y-115621404D01*
X162070626Y-115736309D01*
X161955721Y-115793761D01*
X147770547Y-101913992D02*
X147770547Y-102488516D01*
X146564047Y-102488516D01*
X146678952Y-101569278D02*
X146621500Y-101511825D01*
X146564047Y-101396920D01*
X146564047Y-101109659D01*
X146621500Y-100994754D01*
X146678952Y-100937301D01*
X146793857Y-100879849D01*
X146908761Y-100879849D01*
X147081119Y-100937301D01*
X147770547Y-101626730D01*
X147770547Y-100879849D01*
X178423830Y-107966147D02*
X178021663Y-107391623D01*
X177734401Y-107966147D02*
X177734401Y-106759647D01*
X178194020Y-106759647D01*
X178308925Y-106817100D01*
X178366378Y-106874552D01*
X178423830Y-106989457D01*
X178423830Y-107161814D01*
X178366378Y-107276719D01*
X178308925Y-107334171D01*
X178194020Y-107391623D01*
X177734401Y-107391623D01*
X179572878Y-107966147D02*
X178883449Y-107966147D01*
X179228163Y-107966147D02*
X179228163Y-106759647D01*
X179113259Y-106932004D01*
X178998354Y-107046909D01*
X178883449Y-107104361D01*
X200285047Y-120386444D02*
X199710523Y-120788611D01*
X200285047Y-121075873D02*
X199078547Y-121075873D01*
X199078547Y-120616254D01*
X199136000Y-120501349D01*
X199193452Y-120443897D01*
X199308357Y-120386444D01*
X199480714Y-120386444D01*
X199595619Y-120443897D01*
X199653071Y-120501349D01*
X199710523Y-120616254D01*
X199710523Y-121075873D01*
X200285047Y-119237397D02*
X200285047Y-119926825D01*
X200285047Y-119582111D02*
X199078547Y-119582111D01*
X199250904Y-119697016D01*
X199365809Y-119811920D01*
X199423261Y-119926825D01*
X199078547Y-118490516D02*
X199078547Y-118375611D01*
X199136000Y-118260706D01*
X199193452Y-118203254D01*
X199308357Y-118145801D01*
X199538166Y-118088349D01*
X199825428Y-118088349D01*
X200055238Y-118145801D01*
X200170142Y-118203254D01*
X200227595Y-118260706D01*
X200285047Y-118375611D01*
X200285047Y-118490516D01*
X200227595Y-118605420D01*
X200170142Y-118662873D01*
X200055238Y-118720325D01*
X199825428Y-118777778D01*
X199538166Y-118777778D01*
X199308357Y-118720325D01*
X199193452Y-118662873D01*
X199136000Y-118605420D01*
X199078547Y-118490516D01*
X87473647Y-88883369D02*
X86899123Y-89285536D01*
X87473647Y-89572798D02*
X86267147Y-89572798D01*
X86267147Y-89113179D01*
X86324600Y-88998274D01*
X86382052Y-88940821D01*
X86496957Y-88883369D01*
X86669314Y-88883369D01*
X86784219Y-88940821D01*
X86841671Y-88998274D01*
X86899123Y-89113179D01*
X86899123Y-89572798D01*
X87473647Y-87734321D02*
X87473647Y-88423750D01*
X87473647Y-88079036D02*
X86267147Y-88079036D01*
X86439504Y-88193940D01*
X86554409Y-88308845D01*
X86611861Y-88423750D01*
X87473647Y-86585274D02*
X87473647Y-87274702D01*
X87473647Y-86929988D02*
X86267147Y-86929988D01*
X86439504Y-87044893D01*
X86554409Y-87159798D01*
X86611861Y-87274702D01*
X107471147Y-88883369D02*
X106896623Y-89285536D01*
X107471147Y-89572798D02*
X106264647Y-89572798D01*
X106264647Y-89113179D01*
X106322100Y-88998274D01*
X106379552Y-88940821D01*
X106494457Y-88883369D01*
X106666814Y-88883369D01*
X106781719Y-88940821D01*
X106839171Y-88998274D01*
X106896623Y-89113179D01*
X106896623Y-89572798D01*
X107471147Y-87734321D02*
X107471147Y-88423750D01*
X107471147Y-88079036D02*
X106264647Y-88079036D01*
X106437004Y-88193940D01*
X106551909Y-88308845D01*
X106609361Y-88423750D01*
X106379552Y-87274702D02*
X106322100Y-87217250D01*
X106264647Y-87102345D01*
X106264647Y-86815083D01*
X106322100Y-86700179D01*
X106379552Y-86642726D01*
X106494457Y-86585274D01*
X106609361Y-86585274D01*
X106781719Y-86642726D01*
X107471147Y-87332155D01*
X107471147Y-86585274D01*
X127476147Y-88883369D02*
X126901623Y-89285536D01*
X127476147Y-89572798D02*
X126269647Y-89572798D01*
X126269647Y-89113179D01*
X126327100Y-88998274D01*
X126384552Y-88940821D01*
X126499457Y-88883369D01*
X126671814Y-88883369D01*
X126786719Y-88940821D01*
X126844171Y-88998274D01*
X126901623Y-89113179D01*
X126901623Y-89572798D01*
X127476147Y-87734321D02*
X127476147Y-88423750D01*
X127476147Y-88079036D02*
X126269647Y-88079036D01*
X126442004Y-88193940D01*
X126556909Y-88308845D01*
X126614361Y-88423750D01*
X126269647Y-87332155D02*
X126269647Y-86585274D01*
X126729266Y-86987440D01*
X126729266Y-86815083D01*
X126786719Y-86700179D01*
X126844171Y-86642726D01*
X126959076Y-86585274D01*
X127246338Y-86585274D01*
X127361242Y-86642726D01*
X127418695Y-86700179D01*
X127476147Y-86815083D01*
X127476147Y-87159798D01*
X127418695Y-87274702D01*
X127361242Y-87332155D01*
X147478647Y-88883369D02*
X146904123Y-89285536D01*
X147478647Y-89572798D02*
X146272147Y-89572798D01*
X146272147Y-89113179D01*
X146329600Y-88998274D01*
X146387052Y-88940821D01*
X146501957Y-88883369D01*
X146674314Y-88883369D01*
X146789219Y-88940821D01*
X146846671Y-88998274D01*
X146904123Y-89113179D01*
X146904123Y-89572798D01*
X147478647Y-87734321D02*
X147478647Y-88423750D01*
X147478647Y-88079036D02*
X146272147Y-88079036D01*
X146444504Y-88193940D01*
X146559409Y-88308845D01*
X146616861Y-88423750D01*
X146674314Y-86700179D02*
X147478647Y-86700179D01*
X146214695Y-86987440D02*
X147076480Y-87274702D01*
X147076480Y-86527821D01*
X166312547Y-127053944D02*
X165738023Y-127456111D01*
X166312547Y-127743373D02*
X165106047Y-127743373D01*
X165106047Y-127283754D01*
X165163500Y-127168849D01*
X165220952Y-127111397D01*
X165335857Y-127053944D01*
X165508214Y-127053944D01*
X165623119Y-127111397D01*
X165680571Y-127168849D01*
X165738023Y-127283754D01*
X165738023Y-127743373D01*
X166312547Y-125904897D02*
X166312547Y-126594325D01*
X166312547Y-126249611D02*
X165106047Y-126249611D01*
X165278404Y-126364516D01*
X165393309Y-126479420D01*
X165450761Y-126594325D01*
X165106047Y-124813301D02*
X165106047Y-125387825D01*
X165680571Y-125445278D01*
X165623119Y-125387825D01*
X165565666Y-125272920D01*
X165565666Y-124985659D01*
X165623119Y-124870754D01*
X165680571Y-124813301D01*
X165795476Y-124755849D01*
X166082738Y-124755849D01*
X166197642Y-124813301D01*
X166255095Y-124870754D01*
X166312547Y-124985659D01*
X166312547Y-125272920D01*
X166255095Y-125387825D01*
X166197642Y-125445278D01*
X163899547Y-125703269D02*
X163325023Y-126105436D01*
X163899547Y-126392698D02*
X162693047Y-126392698D01*
X162693047Y-125933079D01*
X162750500Y-125818174D01*
X162807952Y-125760721D01*
X162922857Y-125703269D01*
X163095214Y-125703269D01*
X163210119Y-125760721D01*
X163267571Y-125818174D01*
X163325023Y-125933079D01*
X163325023Y-126392698D01*
X162807952Y-125243650D02*
X162750500Y-125186198D01*
X162693047Y-125071293D01*
X162693047Y-124784031D01*
X162750500Y-124669126D01*
X162807952Y-124611674D01*
X162922857Y-124554221D01*
X163037761Y-124554221D01*
X163210119Y-124611674D01*
X163899547Y-125301102D01*
X163899547Y-124554221D01*
X168301730Y-105924047D02*
X167899563Y-105349523D01*
X167612301Y-105924047D02*
X167612301Y-104717547D01*
X168071920Y-104717547D01*
X168186825Y-104775000D01*
X168244278Y-104832452D01*
X168301730Y-104947357D01*
X168301730Y-105119714D01*
X168244278Y-105234619D01*
X168186825Y-105292071D01*
X168071920Y-105349523D01*
X167612301Y-105349523D01*
X168703897Y-104717547D02*
X169450778Y-104717547D01*
X169048611Y-105177166D01*
X169220968Y-105177166D01*
X169335873Y-105234619D01*
X169393325Y-105292071D01*
X169450778Y-105406976D01*
X169450778Y-105694238D01*
X169393325Y-105809142D01*
X169335873Y-105866595D01*
X169220968Y-105924047D01*
X168876254Y-105924047D01*
X168761349Y-105866595D01*
X168703897Y-105809142D01*
X182768602Y-108019547D02*
X182366436Y-107445023D01*
X182079174Y-108019547D02*
X182079174Y-106813047D01*
X182538793Y-106813047D01*
X182653698Y-106870500D01*
X182711150Y-106927952D01*
X182768602Y-107042857D01*
X182768602Y-107215214D01*
X182711150Y-107330119D01*
X182653698Y-107387571D01*
X182538793Y-107445023D01*
X182079174Y-107445023D01*
X183802745Y-107215214D02*
X183802745Y-108019547D01*
X183515483Y-106755595D02*
X183228221Y-107617380D01*
X183975102Y-107617380D01*
X168301730Y-103384047D02*
X167899563Y-102809523D01*
X167612301Y-103384047D02*
X167612301Y-102177547D01*
X168071920Y-102177547D01*
X168186825Y-102235000D01*
X168244278Y-102292452D01*
X168301730Y-102407357D01*
X168301730Y-102579714D01*
X168244278Y-102694619D01*
X168186825Y-102752071D01*
X168071920Y-102809523D01*
X167612301Y-102809523D01*
X169393325Y-102177547D02*
X168818801Y-102177547D01*
X168761349Y-102752071D01*
X168818801Y-102694619D01*
X168933706Y-102637166D01*
X169220968Y-102637166D01*
X169335873Y-102694619D01*
X169393325Y-102752071D01*
X169450778Y-102866976D01*
X169450778Y-103154238D01*
X169393325Y-103269142D01*
X169335873Y-103326595D01*
X169220968Y-103384047D01*
X168933706Y-103384047D01*
X168818801Y-103326595D01*
X168761349Y-103269142D01*
X161042047Y-125703269D02*
X160467523Y-126105436D01*
X161042047Y-126392698D02*
X159835547Y-126392698D01*
X159835547Y-125933079D01*
X159893000Y-125818174D01*
X159950452Y-125760721D01*
X160065357Y-125703269D01*
X160237714Y-125703269D01*
X160352619Y-125760721D01*
X160410071Y-125818174D01*
X160467523Y-125933079D01*
X160467523Y-126392698D01*
X159835547Y-124669126D02*
X159835547Y-124898936D01*
X159893000Y-125013840D01*
X159950452Y-125071293D01*
X160122809Y-125186198D01*
X160352619Y-125243650D01*
X160812238Y-125243650D01*
X160927142Y-125186198D01*
X160984595Y-125128745D01*
X161042047Y-125013840D01*
X161042047Y-124784031D01*
X160984595Y-124669126D01*
X160927142Y-124611674D01*
X160812238Y-124554221D01*
X160524976Y-124554221D01*
X160410071Y-124611674D01*
X160352619Y-124669126D01*
X160295166Y-124784031D01*
X160295166Y-125013840D01*
X160352619Y-125128745D01*
X160410071Y-125186198D01*
X160524976Y-125243650D01*
X177382230Y-87763047D02*
X176980063Y-87188523D01*
X176692801Y-87763047D02*
X176692801Y-86556547D01*
X177152420Y-86556547D01*
X177267325Y-86614000D01*
X177324778Y-86671452D01*
X177382230Y-86786357D01*
X177382230Y-86958714D01*
X177324778Y-87073619D01*
X177267325Y-87131071D01*
X177152420Y-87188523D01*
X176692801Y-87188523D01*
X177784397Y-86556547D02*
X178588730Y-86556547D01*
X178071659Y-87763047D01*
X190633047Y-122920397D02*
X190058523Y-123322563D01*
X190633047Y-123609825D02*
X189426547Y-123609825D01*
X189426547Y-123150206D01*
X189484000Y-123035301D01*
X189541452Y-122977849D01*
X189656357Y-122920397D01*
X189828714Y-122920397D01*
X189943619Y-122977849D01*
X190001071Y-123035301D01*
X190058523Y-123150206D01*
X190058523Y-123609825D01*
X189943619Y-122230968D02*
X189886166Y-122345873D01*
X189828714Y-122403325D01*
X189713809Y-122460778D01*
X189656357Y-122460778D01*
X189541452Y-122403325D01*
X189484000Y-122345873D01*
X189426547Y-122230968D01*
X189426547Y-122001159D01*
X189484000Y-121886254D01*
X189541452Y-121828801D01*
X189656357Y-121771349D01*
X189713809Y-121771349D01*
X189828714Y-121828801D01*
X189886166Y-121886254D01*
X189943619Y-122001159D01*
X189943619Y-122230968D01*
X190001071Y-122345873D01*
X190058523Y-122403325D01*
X190173428Y-122460778D01*
X190403238Y-122460778D01*
X190518142Y-122403325D01*
X190575595Y-122345873D01*
X190633047Y-122230968D01*
X190633047Y-122001159D01*
X190575595Y-121886254D01*
X190518142Y-121828801D01*
X190403238Y-121771349D01*
X190173428Y-121771349D01*
X190058523Y-121828801D01*
X190001071Y-121886254D01*
X189943619Y-122001159D01*
X202063047Y-120062897D02*
X201488523Y-120465063D01*
X202063047Y-120752325D02*
X200856547Y-120752325D01*
X200856547Y-120292706D01*
X200914000Y-120177801D01*
X200971452Y-120120349D01*
X201086357Y-120062897D01*
X201258714Y-120062897D01*
X201373619Y-120120349D01*
X201431071Y-120177801D01*
X201488523Y-120292706D01*
X201488523Y-120752325D01*
X202063047Y-119488373D02*
X202063047Y-119258563D01*
X202005595Y-119143659D01*
X201948142Y-119086206D01*
X201775785Y-118971301D01*
X201545976Y-118913849D01*
X201086357Y-118913849D01*
X200971452Y-118971301D01*
X200914000Y-119028754D01*
X200856547Y-119143659D01*
X200856547Y-119373468D01*
X200914000Y-119488373D01*
X200971452Y-119545825D01*
X201086357Y-119603278D01*
X201373619Y-119603278D01*
X201488523Y-119545825D01*
X201545976Y-119488373D01*
X201603428Y-119373468D01*
X201603428Y-119143659D01*
X201545976Y-119028754D01*
X201488523Y-118971301D01*
X201373619Y-118913849D01*
X165677547Y-108422198D02*
X166654238Y-108422198D01*
X166769142Y-108364745D01*
X166826595Y-108307293D01*
X166884047Y-108192388D01*
X166884047Y-107962579D01*
X166826595Y-107847674D01*
X166769142Y-107790221D01*
X166654238Y-107732769D01*
X165677547Y-107732769D01*
X166884047Y-106526269D02*
X166884047Y-107215698D01*
X166884047Y-106870983D02*
X165677547Y-106870983D01*
X165849904Y-106985888D01*
X165964809Y-107100793D01*
X166022261Y-107215698D01*
X171904497Y-86129647D02*
X172708830Y-87336147D01*
X172708830Y-86129647D02*
X171904497Y-87336147D01*
X173800425Y-87336147D02*
X173110997Y-87336147D01*
X173455711Y-87336147D02*
X173455711Y-86129647D01*
X173340806Y-86302004D01*
X173225901Y-86416909D01*
X173110997Y-86474361D01*
D13*
X172911407Y-112464547D02*
X173715740Y-113671047D01*
X173715740Y-112464547D02*
X172911407Y-113671047D01*
X174117907Y-112579452D02*
X174175359Y-112522000D01*
X174290264Y-112464547D01*
X174577526Y-112464547D01*
X174692430Y-112522000D01*
X174749883Y-112579452D01*
X174807335Y-112694357D01*
X174807335Y-112809261D01*
X174749883Y-112981619D01*
X174060454Y-113671047D01*
X174807335Y-113671047D01*
D18*
X81904497Y-86129647D02*
X82708830Y-87336147D01*
X82708830Y-86129647D02*
X81904497Y-87336147D01*
X83053544Y-86129647D02*
X83800425Y-86129647D01*
X83398259Y-86589266D01*
X83570616Y-86589266D01*
X83685520Y-86646719D01*
X83742973Y-86704171D01*
X83800425Y-86819076D01*
X83800425Y-87106338D01*
X83742973Y-87221242D01*
X83685520Y-87278695D01*
X83570616Y-87336147D01*
X83225901Y-87336147D01*
X83110997Y-87278695D01*
X83053544Y-87221242D01*
X101904497Y-86129647D02*
X102708830Y-87336147D01*
X102708830Y-86129647D02*
X101904497Y-87336147D01*
X103685520Y-86531814D02*
X103685520Y-87336147D01*
X103398259Y-86072195D02*
X103110997Y-86933980D01*
X103857878Y-86933980D01*
X121904497Y-86129647D02*
X122708830Y-87336147D01*
X122708830Y-86129647D02*
X121904497Y-87336147D01*
X123742973Y-86129647D02*
X123168449Y-86129647D01*
X123110997Y-86704171D01*
X123168449Y-86646719D01*
X123283354Y-86589266D01*
X123570616Y-86589266D01*
X123685520Y-86646719D01*
X123742973Y-86704171D01*
X123800425Y-86819076D01*
X123800425Y-87106338D01*
X123742973Y-87221242D01*
X123685520Y-87278695D01*
X123570616Y-87336147D01*
X123283354Y-87336147D01*
X123168449Y-87278695D01*
X123110997Y-87221242D01*
X141904497Y-86129647D02*
X142708830Y-87336147D01*
X142708830Y-86129647D02*
X141904497Y-87336147D01*
X143685520Y-86129647D02*
X143455711Y-86129647D01*
X143340806Y-86187100D01*
X143283354Y-86244552D01*
X143168449Y-86416909D01*
X143110997Y-86646719D01*
X143110997Y-87106338D01*
X143168449Y-87221242D01*
X143225901Y-87278695D01*
X143340806Y-87336147D01*
X143570616Y-87336147D01*
X143685520Y-87278695D01*
X143742973Y-87221242D01*
X143800425Y-87106338D01*
X143800425Y-86819076D01*
X143742973Y-86704171D01*
X143685520Y-86646719D01*
X143570616Y-86589266D01*
X143340806Y-86589266D01*
X143225901Y-86646719D01*
X143168449Y-86704171D01*
X143110997Y-86819076D01*
%LPC*%
D19*
X144000000Y-134000000D03*
X214500000Y-134000000D03*
X214500000Y-76000000D03*
G36*
G01*
X188772800Y-107721400D02*
X188772800Y-109753400D01*
G75*
G02*
X188671200Y-109855000I-101600J0D01*
G01*
X188010800Y-109855000D01*
G75*
G02*
X187909200Y-109753400I0J101600D01*
G01*
X187909200Y-107721400D01*
G75*
G02*
X188010800Y-107619800I101600J0D01*
G01*
X188671200Y-107619800D01*
G75*
G02*
X188772800Y-107721400I0J-101600D01*
G01*
G37*
G36*
G01*
X188772800Y-101574600D02*
X188772800Y-103606600D01*
G75*
G02*
X188671200Y-103708200I-101600J0D01*
G01*
X188010800Y-103708200D01*
G75*
G02*
X187909200Y-103606600I0J101600D01*
G01*
X187909200Y-101574600D01*
G75*
G02*
X188010800Y-101473000I101600J0D01*
G01*
X188671200Y-101473000D01*
G75*
G02*
X188772800Y-101574600I0J-101600D01*
G01*
G37*
G36*
G01*
X190042800Y-107721400D02*
X190042800Y-109753400D01*
G75*
G02*
X189941200Y-109855000I-101600J0D01*
G01*
X189280800Y-109855000D01*
G75*
G02*
X189179200Y-109753400I0J101600D01*
G01*
X189179200Y-107721400D01*
G75*
G02*
X189280800Y-107619800I101600J0D01*
G01*
X189941200Y-107619800D01*
G75*
G02*
X190042800Y-107721400I0J-101600D01*
G01*
G37*
G36*
G01*
X191312800Y-107721400D02*
X191312800Y-109753400D01*
G75*
G02*
X191211200Y-109855000I-101600J0D01*
G01*
X190550800Y-109855000D01*
G75*
G02*
X190449200Y-109753400I0J101600D01*
G01*
X190449200Y-107721400D01*
G75*
G02*
X190550800Y-107619800I101600J0D01*
G01*
X191211200Y-107619800D01*
G75*
G02*
X191312800Y-107721400I0J-101600D01*
G01*
G37*
G36*
G01*
X190042800Y-101574600D02*
X190042800Y-103606600D01*
G75*
G02*
X189941200Y-103708200I-101600J0D01*
G01*
X189280800Y-103708200D01*
G75*
G02*
X189179200Y-103606600I0J101600D01*
G01*
X189179200Y-101574600D01*
G75*
G02*
X189280800Y-101473000I101600J0D01*
G01*
X189941200Y-101473000D01*
G75*
G02*
X190042800Y-101574600I0J-101600D01*
G01*
G37*
G36*
G01*
X191312800Y-101574600D02*
X191312800Y-103606600D01*
G75*
G02*
X191211200Y-103708200I-101600J0D01*
G01*
X190550800Y-103708200D01*
G75*
G02*
X190449200Y-103606600I0J101600D01*
G01*
X190449200Y-101574600D01*
G75*
G02*
X190550800Y-101473000I101600J0D01*
G01*
X191211200Y-101473000D01*
G75*
G02*
X191312800Y-101574600I0J-101600D01*
G01*
G37*
G36*
G01*
X192582800Y-107721400D02*
X192582800Y-109753400D01*
G75*
G02*
X192481200Y-109855000I-101600J0D01*
G01*
X191820800Y-109855000D01*
G75*
G02*
X191719200Y-109753400I0J101600D01*
G01*
X191719200Y-107721400D01*
G75*
G02*
X191820800Y-107619800I101600J0D01*
G01*
X192481200Y-107619800D01*
G75*
G02*
X192582800Y-107721400I0J-101600D01*
G01*
G37*
G36*
G01*
X192582800Y-101574600D02*
X192582800Y-103606600D01*
G75*
G02*
X192481200Y-103708200I-101600J0D01*
G01*
X191820800Y-103708200D01*
G75*
G02*
X191719200Y-103606600I0J101600D01*
G01*
X191719200Y-101574600D01*
G75*
G02*
X191820800Y-101473000I101600J0D01*
G01*
X192481200Y-101473000D01*
G75*
G02*
X192582800Y-101574600I0J-101600D01*
G01*
G37*
G36*
G01*
X193852800Y-107721400D02*
X193852800Y-109753400D01*
G75*
G02*
X193751200Y-109855000I-101600J0D01*
G01*
X193090800Y-109855000D01*
G75*
G02*
X192989200Y-109753400I0J101600D01*
G01*
X192989200Y-107721400D01*
G75*
G02*
X193090800Y-107619800I101600J0D01*
G01*
X193751200Y-107619800D01*
G75*
G02*
X193852800Y-107721400I0J-101600D01*
G01*
G37*
G36*
G01*
X193852800Y-101574600D02*
X193852800Y-103606600D01*
G75*
G02*
X193751200Y-103708200I-101600J0D01*
G01*
X193090800Y-103708200D01*
G75*
G02*
X192989200Y-103606600I0J101600D01*
G01*
X192989200Y-101574600D01*
G75*
G02*
X193090800Y-101473000I101600J0D01*
G01*
X193751200Y-101473000D01*
G75*
G02*
X193852800Y-101574600I0J-101600D01*
G01*
G37*
G36*
G01*
X195122800Y-107721400D02*
X195122800Y-109753400D01*
G75*
G02*
X195021200Y-109855000I-101600J0D01*
G01*
X194360800Y-109855000D01*
G75*
G02*
X194259200Y-109753400I0J101600D01*
G01*
X194259200Y-107721400D01*
G75*
G02*
X194360800Y-107619800I101600J0D01*
G01*
X195021200Y-107619800D01*
G75*
G02*
X195122800Y-107721400I0J-101600D01*
G01*
G37*
G36*
G01*
X196392800Y-107721400D02*
X196392800Y-109753400D01*
G75*
G02*
X196291200Y-109855000I-101600J0D01*
G01*
X195630800Y-109855000D01*
G75*
G02*
X195529200Y-109753400I0J101600D01*
G01*
X195529200Y-107721400D01*
G75*
G02*
X195630800Y-107619800I101600J0D01*
G01*
X196291200Y-107619800D01*
G75*
G02*
X196392800Y-107721400I0J-101600D01*
G01*
G37*
G36*
G01*
X195122800Y-101574600D02*
X195122800Y-103606600D01*
G75*
G02*
X195021200Y-103708200I-101600J0D01*
G01*
X194360800Y-103708200D01*
G75*
G02*
X194259200Y-103606600I0J101600D01*
G01*
X194259200Y-101574600D01*
G75*
G02*
X194360800Y-101473000I101600J0D01*
G01*
X195021200Y-101473000D01*
G75*
G02*
X195122800Y-101574600I0J-101600D01*
G01*
G37*
G36*
G01*
X196392800Y-101574600D02*
X196392800Y-103606600D01*
G75*
G02*
X196291200Y-103708200I-101600J0D01*
G01*
X195630800Y-103708200D01*
G75*
G02*
X195529200Y-103606600I0J101600D01*
G01*
X195529200Y-101574600D01*
G75*
G02*
X195630800Y-101473000I101600J0D01*
G01*
X196291200Y-101473000D01*
G75*
G02*
X196392800Y-101574600I0J-101600D01*
G01*
G37*
G36*
G01*
X197662800Y-107721400D02*
X197662800Y-109753400D01*
G75*
G02*
X197561200Y-109855000I-101600J0D01*
G01*
X196900800Y-109855000D01*
G75*
G02*
X196799200Y-109753400I0J101600D01*
G01*
X196799200Y-107721400D01*
G75*
G02*
X196900800Y-107619800I101600J0D01*
G01*
X197561200Y-107619800D01*
G75*
G02*
X197662800Y-107721400I0J-101600D01*
G01*
G37*
G36*
G01*
X197662800Y-101574600D02*
X197662800Y-103606600D01*
G75*
G02*
X197561200Y-103708200I-101600J0D01*
G01*
X196900800Y-103708200D01*
G75*
G02*
X196799200Y-103606600I0J101600D01*
G01*
X196799200Y-101574600D01*
G75*
G02*
X196900800Y-101473000I101600J0D01*
G01*
X197561200Y-101473000D01*
G75*
G02*
X197662800Y-101574600I0J-101600D01*
G01*
G37*
G36*
G01*
X205315500Y-97891100D02*
X205315500Y-99391100D01*
G75*
G02*
X205213900Y-99492700I-101600J0D01*
G01*
X203913900Y-99492700D01*
G75*
G02*
X203812300Y-99391100I0J101600D01*
G01*
X203812300Y-97891100D01*
G75*
G02*
X203913900Y-97789500I101600J0D01*
G01*
X205213900Y-97789500D01*
G75*
G02*
X205315500Y-97891100I0J-101600D01*
G01*
G37*
G36*
G01*
X207215500Y-97891100D02*
X207215500Y-99391100D01*
G75*
G02*
X207113900Y-99492700I-101600J0D01*
G01*
X205813900Y-99492700D01*
G75*
G02*
X205712300Y-99391100I0J101600D01*
G01*
X205712300Y-97891100D01*
G75*
G02*
X205813900Y-97789500I101600J0D01*
G01*
X207113900Y-97789500D01*
G75*
G02*
X207215500Y-97891100I0J-101600D01*
G01*
G37*
G36*
G01*
X205315500Y-95033600D02*
X205315500Y-96533600D01*
G75*
G02*
X205213900Y-96635200I-101600J0D01*
G01*
X203913900Y-96635200D01*
G75*
G02*
X203812300Y-96533600I0J101600D01*
G01*
X203812300Y-95033600D01*
G75*
G02*
X203913900Y-94932000I101600J0D01*
G01*
X205213900Y-94932000D01*
G75*
G02*
X205315500Y-95033600I0J-101600D01*
G01*
G37*
G36*
G01*
X207215500Y-95033600D02*
X207215500Y-96533600D01*
G75*
G02*
X207113900Y-96635200I-101600J0D01*
G01*
X205813900Y-96635200D01*
G75*
G02*
X205712300Y-96533600I0J101600D01*
G01*
X205712300Y-95033600D01*
G75*
G02*
X205813900Y-94932000I101600J0D01*
G01*
X207113900Y-94932000D01*
G75*
G02*
X207215500Y-95033600I0J-101600D01*
G01*
G37*
G36*
G01*
X176010000Y-97451800D02*
X174510000Y-97451800D01*
G75*
G02*
X174408400Y-97350200I0J101600D01*
G01*
X174408400Y-96050200D01*
G75*
G02*
X174510000Y-95948600I101600J0D01*
G01*
X176010000Y-95948600D01*
G75*
G02*
X176111600Y-96050200I0J-101600D01*
G01*
X176111600Y-97350200D01*
G75*
G02*
X176010000Y-97451800I-101600J0D01*
G01*
G37*
G36*
G01*
X176010000Y-99351800D02*
X174510000Y-99351800D01*
G75*
G02*
X174408400Y-99250200I0J101600D01*
G01*
X174408400Y-97950200D01*
G75*
G02*
X174510000Y-97848600I101600J0D01*
G01*
X176010000Y-97848600D01*
G75*
G02*
X176111600Y-97950200I0J-101600D01*
G01*
X176111600Y-99250200D01*
G75*
G02*
X176010000Y-99351800I-101600J0D01*
G01*
G37*
G36*
G01*
X151817500Y-129212900D02*
X153617500Y-129212900D01*
G75*
G02*
X153719100Y-129314500I0J-101600D01*
G01*
X153719100Y-130914500D01*
G75*
G02*
X153617500Y-131016100I-101600J0D01*
G01*
X151817500Y-131016100D01*
G75*
G02*
X151715900Y-130914500I0J101600D01*
G01*
X151715900Y-129314500D01*
G75*
G02*
X151817500Y-129212900I101600J0D01*
G01*
G37*
G36*
G01*
X151817500Y-126412900D02*
X153617500Y-126412900D01*
G75*
G02*
X153719100Y-126514500I0J-101600D01*
G01*
X153719100Y-128114500D01*
G75*
G02*
X153617500Y-128216100I-101600J0D01*
G01*
X151817500Y-128216100D01*
G75*
G02*
X151715900Y-128114500I0J101600D01*
G01*
X151715900Y-126514500D01*
G75*
G02*
X151817500Y-126412900I101600J0D01*
G01*
G37*
G36*
G01*
X191203900Y-99185100D02*
X191203900Y-97685100D01*
G75*
G02*
X191305500Y-97583500I101600J0D01*
G01*
X192605500Y-97583500D01*
G75*
G02*
X192707100Y-97685100I0J-101600D01*
G01*
X192707100Y-99185100D01*
G75*
G02*
X192605500Y-99286700I-101600J0D01*
G01*
X191305500Y-99286700D01*
G75*
G02*
X191203900Y-99185100I0J101600D01*
G01*
G37*
G36*
G01*
X189303900Y-99185100D02*
X189303900Y-97685100D01*
G75*
G02*
X189405500Y-97583500I101600J0D01*
G01*
X190705500Y-97583500D01*
G75*
G02*
X190807100Y-97685100I0J-101600D01*
G01*
X190807100Y-99185100D01*
G75*
G02*
X190705500Y-99286700I-101600J0D01*
G01*
X189405500Y-99286700D01*
G75*
G02*
X189303900Y-99185100I0J101600D01*
G01*
G37*
G36*
G01*
X182897700Y-117433600D02*
X182897700Y-118933600D01*
G75*
G02*
X182796100Y-119035200I-101600J0D01*
G01*
X181496100Y-119035200D01*
G75*
G02*
X181394500Y-118933600I0J101600D01*
G01*
X181394500Y-117433600D01*
G75*
G02*
X181496100Y-117332000I101600J0D01*
G01*
X182796100Y-117332000D01*
G75*
G02*
X182897700Y-117433600I0J-101600D01*
G01*
G37*
G36*
G01*
X184797700Y-117433600D02*
X184797700Y-118933600D01*
G75*
G02*
X184696100Y-119035200I-101600J0D01*
G01*
X183396100Y-119035200D01*
G75*
G02*
X183294500Y-118933600I0J101600D01*
G01*
X183294500Y-117433600D01*
G75*
G02*
X183396100Y-117332000I101600J0D01*
G01*
X184696100Y-117332000D01*
G75*
G02*
X184797700Y-117433600I0J-101600D01*
G01*
G37*
G36*
G01*
X186156100Y-119652000D02*
X187656100Y-119652000D01*
G75*
G02*
X187757700Y-119753600I0J-101600D01*
G01*
X187757700Y-121053600D01*
G75*
G02*
X187656100Y-121155200I-101600J0D01*
G01*
X186156100Y-121155200D01*
G75*
G02*
X186054500Y-121053600I0J101600D01*
G01*
X186054500Y-119753600D01*
G75*
G02*
X186156100Y-119652000I101600J0D01*
G01*
G37*
G36*
G01*
X186156100Y-117752000D02*
X187656100Y-117752000D01*
G75*
G02*
X187757700Y-117853600I0J-101600D01*
G01*
X187757700Y-119153600D01*
G75*
G02*
X187656100Y-119255200I-101600J0D01*
G01*
X186156100Y-119255200D01*
G75*
G02*
X186054500Y-119153600I0J101600D01*
G01*
X186054500Y-117853600D01*
G75*
G02*
X186156100Y-117752000I101600J0D01*
G01*
G37*
G36*
G01*
X158242700Y-111581500D02*
X158242700Y-113081500D01*
G75*
G02*
X158141100Y-113183100I-101600J0D01*
G01*
X156841100Y-113183100D01*
G75*
G02*
X156739500Y-113081500I0J101600D01*
G01*
X156739500Y-111581500D01*
G75*
G02*
X156841100Y-111479900I101600J0D01*
G01*
X158141100Y-111479900D01*
G75*
G02*
X158242700Y-111581500I0J-101600D01*
G01*
G37*
G36*
G01*
X160142700Y-111581500D02*
X160142700Y-113081500D01*
G75*
G02*
X160041100Y-113183100I-101600J0D01*
G01*
X158741100Y-113183100D01*
G75*
G02*
X158639500Y-113081500I0J101600D01*
G01*
X158639500Y-111581500D01*
G75*
G02*
X158741100Y-111479900I101600J0D01*
G01*
X160041100Y-111479900D01*
G75*
G02*
X160142700Y-111581500I0J-101600D01*
G01*
G37*
G36*
G01*
X158242700Y-109295500D02*
X158242700Y-110795500D01*
G75*
G02*
X158141100Y-110897100I-101600J0D01*
G01*
X156841100Y-110897100D01*
G75*
G02*
X156739500Y-110795500I0J101600D01*
G01*
X156739500Y-109295500D01*
G75*
G02*
X156841100Y-109193900I101600J0D01*
G01*
X158141100Y-109193900D01*
G75*
G02*
X158242700Y-109295500I0J-101600D01*
G01*
G37*
G36*
G01*
X160142700Y-109295500D02*
X160142700Y-110795500D01*
G75*
G02*
X160041100Y-110897100I-101600J0D01*
G01*
X158741100Y-110897100D01*
G75*
G02*
X158639500Y-110795500I0J101600D01*
G01*
X158639500Y-109295500D01*
G75*
G02*
X158741100Y-109193900I101600J0D01*
G01*
X160041100Y-109193900D01*
G75*
G02*
X160142700Y-109295500I0J-101600D01*
G01*
G37*
G36*
G01*
X155271100Y-104650200D02*
X153771100Y-104650200D01*
G75*
G02*
X153669500Y-104548600I0J101600D01*
G01*
X153669500Y-103248600D01*
G75*
G02*
X153771100Y-103147000I101600J0D01*
G01*
X155271100Y-103147000D01*
G75*
G02*
X155372700Y-103248600I0J-101600D01*
G01*
X155372700Y-104548600D01*
G75*
G02*
X155271100Y-104650200I-101600J0D01*
G01*
G37*
G36*
G01*
X155271100Y-106550200D02*
X153771100Y-106550200D01*
G75*
G02*
X153669500Y-106448600I0J101600D01*
G01*
X153669500Y-105148600D01*
G75*
G02*
X153771100Y-105047000I101600J0D01*
G01*
X155271100Y-105047000D01*
G75*
G02*
X155372700Y-105148600I0J-101600D01*
G01*
X155372700Y-106448600D01*
G75*
G02*
X155271100Y-106550200I-101600J0D01*
G01*
G37*
G36*
G01*
X153048600Y-104650200D02*
X151548600Y-104650200D01*
G75*
G02*
X151447000Y-104548600I0J101600D01*
G01*
X151447000Y-103248600D01*
G75*
G02*
X151548600Y-103147000I101600J0D01*
G01*
X153048600Y-103147000D01*
G75*
G02*
X153150200Y-103248600I0J-101600D01*
G01*
X153150200Y-104548600D01*
G75*
G02*
X153048600Y-104650200I-101600J0D01*
G01*
G37*
G36*
G01*
X153048600Y-106550200D02*
X151548600Y-106550200D01*
G75*
G02*
X151447000Y-106448600I0J101600D01*
G01*
X151447000Y-105148600D01*
G75*
G02*
X151548600Y-105047000I101600J0D01*
G01*
X153048600Y-105047000D01*
G75*
G02*
X153150200Y-105148600I0J-101600D01*
G01*
X153150200Y-106448600D01*
G75*
G02*
X153048600Y-106550200I-101600J0D01*
G01*
G37*
G36*
G01*
X173597000Y-97451800D02*
X172097000Y-97451800D01*
G75*
G02*
X171995400Y-97350200I0J101600D01*
G01*
X171995400Y-96050200D01*
G75*
G02*
X172097000Y-95948600I101600J0D01*
G01*
X173597000Y-95948600D01*
G75*
G02*
X173698600Y-96050200I0J-101600D01*
G01*
X173698600Y-97350200D01*
G75*
G02*
X173597000Y-97451800I-101600J0D01*
G01*
G37*
G36*
G01*
X173597000Y-99351800D02*
X172097000Y-99351800D01*
G75*
G02*
X171995400Y-99250200I0J101600D01*
G01*
X171995400Y-97950200D01*
G75*
G02*
X172097000Y-97848600I101600J0D01*
G01*
X173597000Y-97848600D01*
G75*
G02*
X173698600Y-97950200I0J-101600D01*
G01*
X173698600Y-99250200D01*
G75*
G02*
X173597000Y-99351800I-101600J0D01*
G01*
G37*
G36*
G01*
X153771100Y-98966500D02*
X155271100Y-98966500D01*
G75*
G02*
X155372700Y-99068100I0J-101600D01*
G01*
X155372700Y-100368100D01*
G75*
G02*
X155271100Y-100469700I-101600J0D01*
G01*
X153771100Y-100469700D01*
G75*
G02*
X153669500Y-100368100I0J101600D01*
G01*
X153669500Y-99068100D01*
G75*
G02*
X153771100Y-98966500I101600J0D01*
G01*
G37*
G36*
G01*
X153771100Y-97066500D02*
X155271100Y-97066500D01*
G75*
G02*
X155372700Y-97168100I0J-101600D01*
G01*
X155372700Y-98468100D01*
G75*
G02*
X155271100Y-98569700I-101600J0D01*
G01*
X153771100Y-98569700D01*
G75*
G02*
X153669500Y-98468100I0J101600D01*
G01*
X153669500Y-97168100D01*
G75*
G02*
X153771100Y-97066500I101600J0D01*
G01*
G37*
G36*
G01*
X151548600Y-98966500D02*
X153048600Y-98966500D01*
G75*
G02*
X153150200Y-99068100I0J-101600D01*
G01*
X153150200Y-100368100D01*
G75*
G02*
X153048600Y-100469700I-101600J0D01*
G01*
X151548600Y-100469700D01*
G75*
G02*
X151447000Y-100368100I0J101600D01*
G01*
X151447000Y-99068100D01*
G75*
G02*
X151548600Y-98966500I101600J0D01*
G01*
G37*
G36*
G01*
X151548600Y-97066500D02*
X153048600Y-97066500D01*
G75*
G02*
X153150200Y-97168100I0J-101600D01*
G01*
X153150200Y-98468100D01*
G75*
G02*
X153048600Y-98569700I-101600J0D01*
G01*
X151548600Y-98569700D01*
G75*
G02*
X151447000Y-98468100I0J101600D01*
G01*
X151447000Y-97168100D01*
G75*
G02*
X151548600Y-97066500I101600J0D01*
G01*
G37*
G36*
G01*
X191835400Y-119667500D02*
X193335400Y-119667500D01*
G75*
G02*
X193437000Y-119769100I0J-101600D01*
G01*
X193437000Y-121069100D01*
G75*
G02*
X193335400Y-121170700I-101600J0D01*
G01*
X191835400Y-121170700D01*
G75*
G02*
X191733800Y-121069100I0J101600D01*
G01*
X191733800Y-119769100D01*
G75*
G02*
X191835400Y-119667500I101600J0D01*
G01*
G37*
G36*
G01*
X191835400Y-117767500D02*
X193335400Y-117767500D01*
G75*
G02*
X193437000Y-117869100I0J-101600D01*
G01*
X193437000Y-119169100D01*
G75*
G02*
X193335400Y-119270700I-101600J0D01*
G01*
X191835400Y-119270700D01*
G75*
G02*
X191733800Y-119169100I0J101600D01*
G01*
X191733800Y-117869100D01*
G75*
G02*
X191835400Y-117767500I101600J0D01*
G01*
G37*
G36*
G01*
X194053800Y-124029100D02*
X194053800Y-122529100D01*
G75*
G02*
X194155400Y-122427500I101600J0D01*
G01*
X195455400Y-122427500D01*
G75*
G02*
X195557000Y-122529100I0J-101600D01*
G01*
X195557000Y-124029100D01*
G75*
G02*
X195455400Y-124130700I-101600J0D01*
G01*
X194155400Y-124130700D01*
G75*
G02*
X194053800Y-124029100I0J101600D01*
G01*
G37*
G36*
G01*
X192153800Y-124029100D02*
X192153800Y-122529100D01*
G75*
G02*
X192255400Y-122427500I101600J0D01*
G01*
X193555400Y-122427500D01*
G75*
G02*
X193657000Y-122529100I0J-101600D01*
G01*
X193657000Y-124029100D01*
G75*
G02*
X193555400Y-124130700I-101600J0D01*
G01*
X192255400Y-124130700D01*
G75*
G02*
X192153800Y-124029100I0J101600D01*
G01*
G37*
G36*
G01*
X158732300Y-97724600D02*
X158732300Y-96224600D01*
G75*
G02*
X158833900Y-96123000I101600J0D01*
G01*
X160133900Y-96123000D01*
G75*
G02*
X160235500Y-96224600I0J-101600D01*
G01*
X160235500Y-97724600D01*
G75*
G02*
X160133900Y-97826200I-101600J0D01*
G01*
X158833900Y-97826200D01*
G75*
G02*
X158732300Y-97724600I0J101600D01*
G01*
G37*
G36*
G01*
X156832300Y-97724600D02*
X156832300Y-96224600D01*
G75*
G02*
X156933900Y-96123000I101600J0D01*
G01*
X158233900Y-96123000D01*
G75*
G02*
X158335500Y-96224600I0J-101600D01*
G01*
X158335500Y-97724600D01*
G75*
G02*
X158233900Y-97826200I-101600J0D01*
G01*
X156933900Y-97826200D01*
G75*
G02*
X156832300Y-97724600I0J101600D01*
G01*
G37*
G36*
G01*
X166685600Y-95851500D02*
X165185600Y-95851500D01*
G75*
G02*
X165084000Y-95749900I0J101600D01*
G01*
X165084000Y-94449900D01*
G75*
G02*
X165185600Y-94348300I101600J0D01*
G01*
X166685600Y-94348300D01*
G75*
G02*
X166787200Y-94449900I0J-101600D01*
G01*
X166787200Y-95749900D01*
G75*
G02*
X166685600Y-95851500I-101600J0D01*
G01*
G37*
G36*
G01*
X166685600Y-97751500D02*
X165185600Y-97751500D01*
G75*
G02*
X165084000Y-97649900I0J101600D01*
G01*
X165084000Y-96349900D01*
G75*
G02*
X165185600Y-96248300I101600J0D01*
G01*
X166685600Y-96248300D01*
G75*
G02*
X166787200Y-96349900I0J-101600D01*
G01*
X166787200Y-97649900D01*
G75*
G02*
X166685600Y-97751500I-101600J0D01*
G01*
G37*
G36*
G01*
X158732300Y-95184600D02*
X158732300Y-93684600D01*
G75*
G02*
X158833900Y-93583000I101600J0D01*
G01*
X160133900Y-93583000D01*
G75*
G02*
X160235500Y-93684600I0J-101600D01*
G01*
X160235500Y-95184600D01*
G75*
G02*
X160133900Y-95286200I-101600J0D01*
G01*
X158833900Y-95286200D01*
G75*
G02*
X158732300Y-95184600I0J101600D01*
G01*
G37*
G36*
G01*
X156832300Y-95184600D02*
X156832300Y-93684600D01*
G75*
G02*
X156933900Y-93583000I101600J0D01*
G01*
X158233900Y-93583000D01*
G75*
G02*
X158335500Y-93684600I0J-101600D01*
G01*
X158335500Y-95184600D01*
G75*
G02*
X158233900Y-95286200I-101600J0D01*
G01*
X156933900Y-95286200D01*
G75*
G02*
X156832300Y-95184600I0J101600D01*
G01*
G37*
G36*
G01*
X164145600Y-95851500D02*
X162645600Y-95851500D01*
G75*
G02*
X162544000Y-95749900I0J101600D01*
G01*
X162544000Y-94449900D01*
G75*
G02*
X162645600Y-94348300I101600J0D01*
G01*
X164145600Y-94348300D01*
G75*
G02*
X164247200Y-94449900I0J-101600D01*
G01*
X164247200Y-95749900D01*
G75*
G02*
X164145600Y-95851500I-101600J0D01*
G01*
G37*
G36*
G01*
X164145600Y-97751500D02*
X162645600Y-97751500D01*
G75*
G02*
X162544000Y-97649900I0J101600D01*
G01*
X162544000Y-96349900D01*
G75*
G02*
X162645600Y-96248300I101600J0D01*
G01*
X164145600Y-96248300D01*
G75*
G02*
X164247200Y-96349900I0J-101600D01*
G01*
X164247200Y-97649900D01*
G75*
G02*
X164145600Y-97751500I-101600J0D01*
G01*
G37*
G36*
G01*
X196082600Y-110555400D02*
X196082600Y-112055400D01*
G75*
G02*
X195981000Y-112157000I-101600J0D01*
G01*
X194681000Y-112157000D01*
G75*
G02*
X194579400Y-112055400I0J101600D01*
G01*
X194579400Y-110555400D01*
G75*
G02*
X194681000Y-110453800I101600J0D01*
G01*
X195981000Y-110453800D01*
G75*
G02*
X196082600Y-110555400I0J-101600D01*
G01*
G37*
G36*
G01*
X197982600Y-110555400D02*
X197982600Y-112055400D01*
G75*
G02*
X197881000Y-112157000I-101600J0D01*
G01*
X196581000Y-112157000D01*
G75*
G02*
X196479400Y-112055400I0J101600D01*
G01*
X196479400Y-110555400D01*
G75*
G02*
X196581000Y-110453800I101600J0D01*
G01*
X197881000Y-110453800D01*
G75*
G02*
X197982600Y-110555400I0J-101600D01*
G01*
G37*
G36*
G01*
X158763600Y-122112700D02*
X157263600Y-122112700D01*
G75*
G02*
X157162000Y-122011100I0J101600D01*
G01*
X157162000Y-120711100D01*
G75*
G02*
X157263600Y-120609500I101600J0D01*
G01*
X158763600Y-120609500D01*
G75*
G02*
X158865200Y-120711100I0J-101600D01*
G01*
X158865200Y-122011100D01*
G75*
G02*
X158763600Y-122112700I-101600J0D01*
G01*
G37*
G36*
G01*
X158763600Y-124012700D02*
X157263600Y-124012700D01*
G75*
G02*
X157162000Y-123911100I0J101600D01*
G01*
X157162000Y-122611100D01*
G75*
G02*
X157263600Y-122509500I101600J0D01*
G01*
X158763600Y-122509500D01*
G75*
G02*
X158865200Y-122611100I0J-101600D01*
G01*
X158865200Y-123911100D01*
G75*
G02*
X158763600Y-124012700I-101600J0D01*
G01*
G37*
G36*
G01*
X196082600Y-113095400D02*
X196082600Y-114595400D01*
G75*
G02*
X195981000Y-114697000I-101600J0D01*
G01*
X194681000Y-114697000D01*
G75*
G02*
X194579400Y-114595400I0J101600D01*
G01*
X194579400Y-113095400D01*
G75*
G02*
X194681000Y-112993800I101600J0D01*
G01*
X195981000Y-112993800D01*
G75*
G02*
X196082600Y-113095400I0J-101600D01*
G01*
G37*
G36*
G01*
X197982600Y-113095400D02*
X197982600Y-114595400D01*
G75*
G02*
X197881000Y-114697000I-101600J0D01*
G01*
X196581000Y-114697000D01*
G75*
G02*
X196479400Y-114595400I0J101600D01*
G01*
X196479400Y-113095400D01*
G75*
G02*
X196581000Y-112993800I101600J0D01*
G01*
X197881000Y-112993800D01*
G75*
G02*
X197982600Y-113095400I0J-101600D01*
G01*
G37*
G36*
G01*
X168834500Y-122112700D02*
X167334500Y-122112700D01*
G75*
G02*
X167232900Y-122011100I0J101600D01*
G01*
X167232900Y-120711100D01*
G75*
G02*
X167334500Y-120609500I101600J0D01*
G01*
X168834500Y-120609500D01*
G75*
G02*
X168936100Y-120711100I0J-101600D01*
G01*
X168936100Y-122011100D01*
G75*
G02*
X168834500Y-122112700I-101600J0D01*
G01*
G37*
G36*
G01*
X168834500Y-124012700D02*
X167334500Y-124012700D01*
G75*
G02*
X167232900Y-123911100I0J101600D01*
G01*
X167232900Y-122611100D01*
G75*
G02*
X167334500Y-122509500I101600J0D01*
G01*
X168834500Y-122509500D01*
G75*
G02*
X168936100Y-122611100I0J-101600D01*
G01*
X168936100Y-123911100D01*
G75*
G02*
X168834500Y-124012700I-101600J0D01*
G01*
G37*
G36*
G01*
X178214500Y-118933600D02*
X178214500Y-117433600D01*
G75*
G02*
X178316100Y-117332000I101600J0D01*
G01*
X179616100Y-117332000D01*
G75*
G02*
X179717700Y-117433600I0J-101600D01*
G01*
X179717700Y-118933600D01*
G75*
G02*
X179616100Y-119035200I-101600J0D01*
G01*
X178316100Y-119035200D01*
G75*
G02*
X178214500Y-118933600I0J101600D01*
G01*
G37*
G36*
G01*
X176314500Y-118933600D02*
X176314500Y-117433600D01*
G75*
G02*
X176416100Y-117332000I101600J0D01*
G01*
X177716100Y-117332000D01*
G75*
G02*
X177817700Y-117433600I0J-101600D01*
G01*
X177817700Y-118933600D01*
G75*
G02*
X177716100Y-119035200I-101600J0D01*
G01*
X176416100Y-119035200D01*
G75*
G02*
X176314500Y-118933600I0J101600D01*
G01*
G37*
G36*
G01*
X154167000Y-129212900D02*
X155967000Y-129212900D01*
G75*
G02*
X156068600Y-129314500I0J-101600D01*
G01*
X156068600Y-130914500D01*
G75*
G02*
X155967000Y-131016100I-101600J0D01*
G01*
X154167000Y-131016100D01*
G75*
G02*
X154065400Y-130914500I0J101600D01*
G01*
X154065400Y-129314500D01*
G75*
G02*
X154167000Y-129212900I101600J0D01*
G01*
G37*
G36*
G01*
X154167000Y-126412900D02*
X155967000Y-126412900D01*
G75*
G02*
X156068600Y-126514500I0J-101600D01*
G01*
X156068600Y-128114500D01*
G75*
G02*
X155967000Y-128216100I-101600J0D01*
G01*
X154167000Y-128216100D01*
G75*
G02*
X154065400Y-128114500I0J101600D01*
G01*
X154065400Y-126514500D01*
G75*
G02*
X154167000Y-126412900I101600J0D01*
G01*
G37*
G36*
G01*
X191203900Y-96645100D02*
X191203900Y-95145100D01*
G75*
G02*
X191305500Y-95043500I101600J0D01*
G01*
X192605500Y-95043500D01*
G75*
G02*
X192707100Y-95145100I0J-101600D01*
G01*
X192707100Y-96645100D01*
G75*
G02*
X192605500Y-96746700I-101600J0D01*
G01*
X191305500Y-96746700D01*
G75*
G02*
X191203900Y-96645100I0J101600D01*
G01*
G37*
G36*
G01*
X189303900Y-96645100D02*
X189303900Y-95145100D01*
G75*
G02*
X189405500Y-95043500I101600J0D01*
G01*
X190705500Y-95043500D01*
G75*
G02*
X190807100Y-95145100I0J-101600D01*
G01*
X190807100Y-96645100D01*
G75*
G02*
X190705500Y-96746700I-101600J0D01*
G01*
X189405500Y-96746700D01*
G75*
G02*
X189303900Y-96645100I0J101600D01*
G01*
G37*
D20*
X164658600Y-132693600D03*
X160258600Y-132693600D03*
G36*
G01*
X165757000Y-136893600D02*
X165757000Y-134493600D01*
G75*
G02*
X165858600Y-134392000I101600J0D01*
G01*
X167858600Y-134392000D01*
G75*
G02*
X167960200Y-134493600I0J-101600D01*
G01*
X167960200Y-136893600D01*
G75*
G02*
X167858600Y-136995200I-101600J0D01*
G01*
X165858600Y-136995200D01*
G75*
G02*
X165757000Y-136893600I0J101600D01*
G01*
G37*
G36*
G01*
X165757000Y-131393600D02*
X165757000Y-128993600D01*
G75*
G02*
X165858600Y-128892000I101600J0D01*
G01*
X167858600Y-128892000D01*
G75*
G02*
X167960200Y-128993600I0J-101600D01*
G01*
X167960200Y-131393600D01*
G75*
G02*
X167858600Y-131495200I-101600J0D01*
G01*
X165858600Y-131495200D01*
G75*
G02*
X165757000Y-131393600I0J101600D01*
G01*
G37*
G36*
G01*
X156957000Y-136893600D02*
X156957000Y-134493600D01*
G75*
G02*
X157058600Y-134392000I101600J0D01*
G01*
X159058600Y-134392000D01*
G75*
G02*
X159160200Y-134493600I0J-101600D01*
G01*
X159160200Y-136893600D01*
G75*
G02*
X159058600Y-136995200I-101600J0D01*
G01*
X157058600Y-136995200D01*
G75*
G02*
X156957000Y-136893600I0J101600D01*
G01*
G37*
G36*
G01*
X164410200Y-128475600D02*
X164410200Y-130783600D01*
G75*
G02*
X164308600Y-130885200I-101600J0D01*
G01*
X163808600Y-130885200D01*
G75*
G02*
X163707000Y-130783600I0J101600D01*
G01*
X163707000Y-128475600D01*
G75*
G02*
X163808600Y-128374000I101600J0D01*
G01*
X164308600Y-128374000D01*
G75*
G02*
X164410200Y-128475600I0J-101600D01*
G01*
G37*
G36*
G01*
X163610200Y-128475600D02*
X163610200Y-130783600D01*
G75*
G02*
X163508600Y-130885200I-101600J0D01*
G01*
X163008600Y-130885200D01*
G75*
G02*
X162907000Y-130783600I0J101600D01*
G01*
X162907000Y-128475600D01*
G75*
G02*
X163008600Y-128374000I101600J0D01*
G01*
X163508600Y-128374000D01*
G75*
G02*
X163610200Y-128475600I0J-101600D01*
G01*
G37*
G36*
G01*
X162810200Y-128475600D02*
X162810200Y-130783600D01*
G75*
G02*
X162708600Y-130885200I-101600J0D01*
G01*
X162208600Y-130885200D01*
G75*
G02*
X162107000Y-130783600I0J101600D01*
G01*
X162107000Y-128475600D01*
G75*
G02*
X162208600Y-128374000I101600J0D01*
G01*
X162708600Y-128374000D01*
G75*
G02*
X162810200Y-128475600I0J-101600D01*
G01*
G37*
G36*
G01*
X162010200Y-128475600D02*
X162010200Y-130783600D01*
G75*
G02*
X161908600Y-130885200I-101600J0D01*
G01*
X161408600Y-130885200D01*
G75*
G02*
X161307000Y-130783600I0J101600D01*
G01*
X161307000Y-128475600D01*
G75*
G02*
X161408600Y-128374000I101600J0D01*
G01*
X161908600Y-128374000D01*
G75*
G02*
X162010200Y-128475600I0J-101600D01*
G01*
G37*
G36*
G01*
X161210200Y-128475600D02*
X161210200Y-130783600D01*
G75*
G02*
X161108600Y-130885200I-101600J0D01*
G01*
X160608600Y-130885200D01*
G75*
G02*
X160507000Y-130783600I0J101600D01*
G01*
X160507000Y-128475600D01*
G75*
G02*
X160608600Y-128374000I101600J0D01*
G01*
X161108600Y-128374000D01*
G75*
G02*
X161210200Y-128475600I0J-101600D01*
G01*
G37*
G36*
G01*
X156957000Y-131393600D02*
X156957000Y-128993600D01*
G75*
G02*
X157058600Y-128892000I101600J0D01*
G01*
X159058600Y-128892000D01*
G75*
G02*
X159160200Y-128993600I0J-101600D01*
G01*
X159160200Y-131393600D01*
G75*
G02*
X159058600Y-131495200I-101600J0D01*
G01*
X157058600Y-131495200D01*
G75*
G02*
X156957000Y-131393600I0J101600D01*
G01*
G37*
G36*
G01*
X184598500Y-119952000D02*
X185098500Y-119952000D01*
G75*
G02*
X185200100Y-120053600I0J-101600D01*
G01*
X185200100Y-120753600D01*
G75*
G02*
X185098500Y-120855200I-101600J0D01*
G01*
X184598500Y-120855200D01*
G75*
G02*
X184496900Y-120753600I0J101600D01*
G01*
X184496900Y-120053600D01*
G75*
G02*
X184598500Y-119952000I101600J0D01*
G01*
G37*
G36*
G01*
X184598500Y-121252000D02*
X185098500Y-121252000D01*
G75*
G02*
X185200100Y-121353600I0J-101600D01*
G01*
X185200100Y-122053600D01*
G75*
G02*
X185098500Y-122155200I-101600J0D01*
G01*
X184598500Y-122155200D01*
G75*
G02*
X184496900Y-122053600I0J101600D01*
G01*
X184496900Y-121353600D01*
G75*
G02*
X184598500Y-121252000I101600J0D01*
G01*
G37*
G36*
G01*
X184569300Y-99616200D02*
X184569300Y-97584200D01*
G75*
G02*
X184670900Y-97482600I101600J0D01*
G01*
X185331300Y-97482600D01*
G75*
G02*
X185432900Y-97584200I0J-101600D01*
G01*
X185432900Y-99616200D01*
G75*
G02*
X185331300Y-99717800I-101600J0D01*
G01*
X184670900Y-99717800D01*
G75*
G02*
X184569300Y-99616200I0J101600D01*
G01*
G37*
G36*
G01*
X184569300Y-105763000D02*
X184569300Y-103731000D01*
G75*
G02*
X184670900Y-103629400I101600J0D01*
G01*
X185331300Y-103629400D01*
G75*
G02*
X185432900Y-103731000I0J-101600D01*
G01*
X185432900Y-105763000D01*
G75*
G02*
X185331300Y-105864600I-101600J0D01*
G01*
X184670900Y-105864600D01*
G75*
G02*
X184569300Y-105763000I0J101600D01*
G01*
G37*
G36*
G01*
X183299300Y-99616200D02*
X183299300Y-97584200D01*
G75*
G02*
X183400900Y-97482600I101600J0D01*
G01*
X184061300Y-97482600D01*
G75*
G02*
X184162900Y-97584200I0J-101600D01*
G01*
X184162900Y-99616200D01*
G75*
G02*
X184061300Y-99717800I-101600J0D01*
G01*
X183400900Y-99717800D01*
G75*
G02*
X183299300Y-99616200I0J101600D01*
G01*
G37*
G36*
G01*
X182029300Y-99616200D02*
X182029300Y-97584200D01*
G75*
G02*
X182130900Y-97482600I101600J0D01*
G01*
X182791300Y-97482600D01*
G75*
G02*
X182892900Y-97584200I0J-101600D01*
G01*
X182892900Y-99616200D01*
G75*
G02*
X182791300Y-99717800I-101600J0D01*
G01*
X182130900Y-99717800D01*
G75*
G02*
X182029300Y-99616200I0J101600D01*
G01*
G37*
G36*
G01*
X183299300Y-105763000D02*
X183299300Y-103731000D01*
G75*
G02*
X183400900Y-103629400I101600J0D01*
G01*
X184061300Y-103629400D01*
G75*
G02*
X184162900Y-103731000I0J-101600D01*
G01*
X184162900Y-105763000D01*
G75*
G02*
X184061300Y-105864600I-101600J0D01*
G01*
X183400900Y-105864600D01*
G75*
G02*
X183299300Y-105763000I0J101600D01*
G01*
G37*
G36*
G01*
X182029300Y-105763000D02*
X182029300Y-103731000D01*
G75*
G02*
X182130900Y-103629400I101600J0D01*
G01*
X182791300Y-103629400D01*
G75*
G02*
X182892900Y-103731000I0J-101600D01*
G01*
X182892900Y-105763000D01*
G75*
G02*
X182791300Y-105864600I-101600J0D01*
G01*
X182130900Y-105864600D01*
G75*
G02*
X182029300Y-105763000I0J101600D01*
G01*
G37*
G36*
G01*
X180759300Y-99616200D02*
X180759300Y-97584200D01*
G75*
G02*
X180860900Y-97482600I101600J0D01*
G01*
X181521300Y-97482600D01*
G75*
G02*
X181622900Y-97584200I0J-101600D01*
G01*
X181622900Y-99616200D01*
G75*
G02*
X181521300Y-99717800I-101600J0D01*
G01*
X180860900Y-99717800D01*
G75*
G02*
X180759300Y-99616200I0J101600D01*
G01*
G37*
G36*
G01*
X180759300Y-105763000D02*
X180759300Y-103731000D01*
G75*
G02*
X180860900Y-103629400I101600J0D01*
G01*
X181521300Y-103629400D01*
G75*
G02*
X181622900Y-103731000I0J-101600D01*
G01*
X181622900Y-105763000D01*
G75*
G02*
X181521300Y-105864600I-101600J0D01*
G01*
X180860900Y-105864600D01*
G75*
G02*
X180759300Y-105763000I0J101600D01*
G01*
G37*
G36*
G01*
X179489300Y-99616200D02*
X179489300Y-97584200D01*
G75*
G02*
X179590900Y-97482600I101600J0D01*
G01*
X180251300Y-97482600D01*
G75*
G02*
X180352900Y-97584200I0J-101600D01*
G01*
X180352900Y-99616200D01*
G75*
G02*
X180251300Y-99717800I-101600J0D01*
G01*
X179590900Y-99717800D01*
G75*
G02*
X179489300Y-99616200I0J101600D01*
G01*
G37*
G36*
G01*
X178219300Y-99616200D02*
X178219300Y-97584200D01*
G75*
G02*
X178320900Y-97482600I101600J0D01*
G01*
X178981300Y-97482600D01*
G75*
G02*
X179082900Y-97584200I0J-101600D01*
G01*
X179082900Y-99616200D01*
G75*
G02*
X178981300Y-99717800I-101600J0D01*
G01*
X178320900Y-99717800D01*
G75*
G02*
X178219300Y-99616200I0J101600D01*
G01*
G37*
G36*
G01*
X179489300Y-105763000D02*
X179489300Y-103731000D01*
G75*
G02*
X179590900Y-103629400I101600J0D01*
G01*
X180251300Y-103629400D01*
G75*
G02*
X180352900Y-103731000I0J-101600D01*
G01*
X180352900Y-105763000D01*
G75*
G02*
X180251300Y-105864600I-101600J0D01*
G01*
X179590900Y-105864600D01*
G75*
G02*
X179489300Y-105763000I0J101600D01*
G01*
G37*
G36*
G01*
X178219300Y-105763000D02*
X178219300Y-103731000D01*
G75*
G02*
X178320900Y-103629400I101600J0D01*
G01*
X178981300Y-103629400D01*
G75*
G02*
X179082900Y-103731000I0J-101600D01*
G01*
X179082900Y-105763000D01*
G75*
G02*
X178981300Y-105864600I-101600J0D01*
G01*
X178320900Y-105864600D01*
G75*
G02*
X178219300Y-105763000I0J101600D01*
G01*
G37*
G36*
G01*
X176949300Y-99616200D02*
X176949300Y-97584200D01*
G75*
G02*
X177050900Y-97482600I101600J0D01*
G01*
X177711300Y-97482600D01*
G75*
G02*
X177812900Y-97584200I0J-101600D01*
G01*
X177812900Y-99616200D01*
G75*
G02*
X177711300Y-99717800I-101600J0D01*
G01*
X177050900Y-99717800D01*
G75*
G02*
X176949300Y-99616200I0J101600D01*
G01*
G37*
G36*
G01*
X176949300Y-105763000D02*
X176949300Y-103731000D01*
G75*
G02*
X177050900Y-103629400I101600J0D01*
G01*
X177711300Y-103629400D01*
G75*
G02*
X177812900Y-103731000I0J-101600D01*
G01*
X177812900Y-105763000D01*
G75*
G02*
X177711300Y-105864600I-101600J0D01*
G01*
X177050900Y-105864600D01*
G75*
G02*
X176949300Y-105763000I0J101600D01*
G01*
G37*
G36*
G01*
X181597300Y-92481400D02*
X181597300Y-94513400D01*
G75*
G02*
X181495700Y-94615000I-101600J0D01*
G01*
X180835300Y-94615000D01*
G75*
G02*
X180733700Y-94513400I0J101600D01*
G01*
X180733700Y-92481400D01*
G75*
G02*
X180835300Y-92379800I101600J0D01*
G01*
X181495700Y-92379800D01*
G75*
G02*
X181597300Y-92481400I0J-101600D01*
G01*
G37*
G36*
G01*
X181597300Y-86334600D02*
X181597300Y-88366600D01*
G75*
G02*
X181495700Y-88468200I-101600J0D01*
G01*
X180835300Y-88468200D01*
G75*
G02*
X180733700Y-88366600I0J101600D01*
G01*
X180733700Y-86334600D01*
G75*
G02*
X180835300Y-86233000I101600J0D01*
G01*
X181495700Y-86233000D01*
G75*
G02*
X181597300Y-86334600I0J-101600D01*
G01*
G37*
G36*
G01*
X182867300Y-92481400D02*
X182867300Y-94513400D01*
G75*
G02*
X182765700Y-94615000I-101600J0D01*
G01*
X182105300Y-94615000D01*
G75*
G02*
X182003700Y-94513400I0J101600D01*
G01*
X182003700Y-92481400D01*
G75*
G02*
X182105300Y-92379800I101600J0D01*
G01*
X182765700Y-92379800D01*
G75*
G02*
X182867300Y-92481400I0J-101600D01*
G01*
G37*
G36*
G01*
X184137300Y-92481400D02*
X184137300Y-94513400D01*
G75*
G02*
X184035700Y-94615000I-101600J0D01*
G01*
X183375300Y-94615000D01*
G75*
G02*
X183273700Y-94513400I0J101600D01*
G01*
X183273700Y-92481400D01*
G75*
G02*
X183375300Y-92379800I101600J0D01*
G01*
X184035700Y-92379800D01*
G75*
G02*
X184137300Y-92481400I0J-101600D01*
G01*
G37*
G36*
G01*
X182867300Y-86334600D02*
X182867300Y-88366600D01*
G75*
G02*
X182765700Y-88468200I-101600J0D01*
G01*
X182105300Y-88468200D01*
G75*
G02*
X182003700Y-88366600I0J101600D01*
G01*
X182003700Y-86334600D01*
G75*
G02*
X182105300Y-86233000I101600J0D01*
G01*
X182765700Y-86233000D01*
G75*
G02*
X182867300Y-86334600I0J-101600D01*
G01*
G37*
G36*
G01*
X184137300Y-86334600D02*
X184137300Y-88366600D01*
G75*
G02*
X184035700Y-88468200I-101600J0D01*
G01*
X183375300Y-88468200D01*
G75*
G02*
X183273700Y-88366600I0J101600D01*
G01*
X183273700Y-86334600D01*
G75*
G02*
X183375300Y-86233000I101600J0D01*
G01*
X184035700Y-86233000D01*
G75*
G02*
X184137300Y-86334600I0J-101600D01*
G01*
G37*
G36*
G01*
X185407300Y-92481400D02*
X185407300Y-94513400D01*
G75*
G02*
X185305700Y-94615000I-101600J0D01*
G01*
X184645300Y-94615000D01*
G75*
G02*
X184543700Y-94513400I0J101600D01*
G01*
X184543700Y-92481400D01*
G75*
G02*
X184645300Y-92379800I101600J0D01*
G01*
X185305700Y-92379800D01*
G75*
G02*
X185407300Y-92481400I0J-101600D01*
G01*
G37*
G36*
G01*
X185407300Y-86334600D02*
X185407300Y-88366600D01*
G75*
G02*
X185305700Y-88468200I-101600J0D01*
G01*
X184645300Y-88468200D01*
G75*
G02*
X184543700Y-88366600I0J101600D01*
G01*
X184543700Y-86334600D01*
G75*
G02*
X184645300Y-86233000I101600J0D01*
G01*
X185305700Y-86233000D01*
G75*
G02*
X185407300Y-86334600I0J-101600D01*
G01*
G37*
G36*
G01*
X186677300Y-92481400D02*
X186677300Y-94513400D01*
G75*
G02*
X186575700Y-94615000I-101600J0D01*
G01*
X185915300Y-94615000D01*
G75*
G02*
X185813700Y-94513400I0J101600D01*
G01*
X185813700Y-92481400D01*
G75*
G02*
X185915300Y-92379800I101600J0D01*
G01*
X186575700Y-92379800D01*
G75*
G02*
X186677300Y-92481400I0J-101600D01*
G01*
G37*
G36*
G01*
X186677300Y-86334600D02*
X186677300Y-88366600D01*
G75*
G02*
X186575700Y-88468200I-101600J0D01*
G01*
X185915300Y-88468200D01*
G75*
G02*
X185813700Y-88366600I0J101600D01*
G01*
X185813700Y-86334600D01*
G75*
G02*
X185915300Y-86233000I101600J0D01*
G01*
X186575700Y-86233000D01*
G75*
G02*
X186677300Y-86334600I0J-101600D01*
G01*
G37*
G36*
G01*
X187947300Y-92481400D02*
X187947300Y-94513400D01*
G75*
G02*
X187845700Y-94615000I-101600J0D01*
G01*
X187185300Y-94615000D01*
G75*
G02*
X187083700Y-94513400I0J101600D01*
G01*
X187083700Y-92481400D01*
G75*
G02*
X187185300Y-92379800I101600J0D01*
G01*
X187845700Y-92379800D01*
G75*
G02*
X187947300Y-92481400I0J-101600D01*
G01*
G37*
G36*
G01*
X189217300Y-92481400D02*
X189217300Y-94513400D01*
G75*
G02*
X189115700Y-94615000I-101600J0D01*
G01*
X188455300Y-94615000D01*
G75*
G02*
X188353700Y-94513400I0J101600D01*
G01*
X188353700Y-92481400D01*
G75*
G02*
X188455300Y-92379800I101600J0D01*
G01*
X189115700Y-92379800D01*
G75*
G02*
X189217300Y-92481400I0J-101600D01*
G01*
G37*
G36*
G01*
X187947300Y-86334600D02*
X187947300Y-88366600D01*
G75*
G02*
X187845700Y-88468200I-101600J0D01*
G01*
X187185300Y-88468200D01*
G75*
G02*
X187083700Y-88366600I0J101600D01*
G01*
X187083700Y-86334600D01*
G75*
G02*
X187185300Y-86233000I101600J0D01*
G01*
X187845700Y-86233000D01*
G75*
G02*
X187947300Y-86334600I0J-101600D01*
G01*
G37*
G36*
G01*
X189217300Y-86334600D02*
X189217300Y-88366600D01*
G75*
G02*
X189115700Y-88468200I-101600J0D01*
G01*
X188455300Y-88468200D01*
G75*
G02*
X188353700Y-88366600I0J101600D01*
G01*
X188353700Y-86334600D01*
G75*
G02*
X188455300Y-86233000I101600J0D01*
G01*
X189115700Y-86233000D01*
G75*
G02*
X189217300Y-86334600I0J-101600D01*
G01*
G37*
G36*
G01*
X190487300Y-92481400D02*
X190487300Y-94513400D01*
G75*
G02*
X190385700Y-94615000I-101600J0D01*
G01*
X189725300Y-94615000D01*
G75*
G02*
X189623700Y-94513400I0J101600D01*
G01*
X189623700Y-92481400D01*
G75*
G02*
X189725300Y-92379800I101600J0D01*
G01*
X190385700Y-92379800D01*
G75*
G02*
X190487300Y-92481400I0J-101600D01*
G01*
G37*
G36*
G01*
X190487300Y-86334600D02*
X190487300Y-88366600D01*
G75*
G02*
X190385700Y-88468200I-101600J0D01*
G01*
X189725300Y-88468200D01*
G75*
G02*
X189623700Y-88366600I0J101600D01*
G01*
X189623700Y-86334600D01*
G75*
G02*
X189725300Y-86233000I101600J0D01*
G01*
X190385700Y-86233000D01*
G75*
G02*
X190487300Y-86334600I0J-101600D01*
G01*
G37*
G36*
G01*
X205447900Y-109179300D02*
X207479900Y-109179300D01*
G75*
G02*
X207581500Y-109280900I0J-101600D01*
G01*
X207581500Y-109941300D01*
G75*
G02*
X207479900Y-110042900I-101600J0D01*
G01*
X205447900Y-110042900D01*
G75*
G02*
X205346300Y-109941300I0J101600D01*
G01*
X205346300Y-109280900D01*
G75*
G02*
X205447900Y-109179300I101600J0D01*
G01*
G37*
G36*
G01*
X199301100Y-109179300D02*
X201333100Y-109179300D01*
G75*
G02*
X201434700Y-109280900I0J-101600D01*
G01*
X201434700Y-109941300D01*
G75*
G02*
X201333100Y-110042900I-101600J0D01*
G01*
X199301100Y-110042900D01*
G75*
G02*
X199199500Y-109941300I0J101600D01*
G01*
X199199500Y-109280900D01*
G75*
G02*
X199301100Y-109179300I101600J0D01*
G01*
G37*
G36*
G01*
X205447900Y-107909300D02*
X207479900Y-107909300D01*
G75*
G02*
X207581500Y-108010900I0J-101600D01*
G01*
X207581500Y-108671300D01*
G75*
G02*
X207479900Y-108772900I-101600J0D01*
G01*
X205447900Y-108772900D01*
G75*
G02*
X205346300Y-108671300I0J101600D01*
G01*
X205346300Y-108010900D01*
G75*
G02*
X205447900Y-107909300I101600J0D01*
G01*
G37*
G36*
G01*
X205447900Y-106639300D02*
X207479900Y-106639300D01*
G75*
G02*
X207581500Y-106740900I0J-101600D01*
G01*
X207581500Y-107401300D01*
G75*
G02*
X207479900Y-107502900I-101600J0D01*
G01*
X205447900Y-107502900D01*
G75*
G02*
X205346300Y-107401300I0J101600D01*
G01*
X205346300Y-106740900D01*
G75*
G02*
X205447900Y-106639300I101600J0D01*
G01*
G37*
G36*
G01*
X199301100Y-107909300D02*
X201333100Y-107909300D01*
G75*
G02*
X201434700Y-108010900I0J-101600D01*
G01*
X201434700Y-108671300D01*
G75*
G02*
X201333100Y-108772900I-101600J0D01*
G01*
X199301100Y-108772900D01*
G75*
G02*
X199199500Y-108671300I0J101600D01*
G01*
X199199500Y-108010900D01*
G75*
G02*
X199301100Y-107909300I101600J0D01*
G01*
G37*
G36*
G01*
X199301100Y-106639300D02*
X201333100Y-106639300D01*
G75*
G02*
X201434700Y-106740900I0J-101600D01*
G01*
X201434700Y-107401300D01*
G75*
G02*
X201333100Y-107502900I-101600J0D01*
G01*
X199301100Y-107502900D01*
G75*
G02*
X199199500Y-107401300I0J101600D01*
G01*
X199199500Y-106740900D01*
G75*
G02*
X199301100Y-106639300I101600J0D01*
G01*
G37*
G36*
G01*
X205447900Y-105369300D02*
X207479900Y-105369300D01*
G75*
G02*
X207581500Y-105470900I0J-101600D01*
G01*
X207581500Y-106131300D01*
G75*
G02*
X207479900Y-106232900I-101600J0D01*
G01*
X205447900Y-106232900D01*
G75*
G02*
X205346300Y-106131300I0J101600D01*
G01*
X205346300Y-105470900D01*
G75*
G02*
X205447900Y-105369300I101600J0D01*
G01*
G37*
G36*
G01*
X199301100Y-105369300D02*
X201333100Y-105369300D01*
G75*
G02*
X201434700Y-105470900I0J-101600D01*
G01*
X201434700Y-106131300D01*
G75*
G02*
X201333100Y-106232900I-101600J0D01*
G01*
X199301100Y-106232900D01*
G75*
G02*
X199199500Y-106131300I0J101600D01*
G01*
X199199500Y-105470900D01*
G75*
G02*
X199301100Y-105369300I101600J0D01*
G01*
G37*
G36*
G01*
X205447900Y-104099300D02*
X207479900Y-104099300D01*
G75*
G02*
X207581500Y-104200900I0J-101600D01*
G01*
X207581500Y-104861300D01*
G75*
G02*
X207479900Y-104962900I-101600J0D01*
G01*
X205447900Y-104962900D01*
G75*
G02*
X205346300Y-104861300I0J101600D01*
G01*
X205346300Y-104200900D01*
G75*
G02*
X205447900Y-104099300I101600J0D01*
G01*
G37*
G36*
G01*
X199301100Y-104099300D02*
X201333100Y-104099300D01*
G75*
G02*
X201434700Y-104200900I0J-101600D01*
G01*
X201434700Y-104861300D01*
G75*
G02*
X201333100Y-104962900I-101600J0D01*
G01*
X199301100Y-104962900D01*
G75*
G02*
X199199500Y-104861300I0J101600D01*
G01*
X199199500Y-104200900D01*
G75*
G02*
X199301100Y-104099300I101600J0D01*
G01*
G37*
G36*
G01*
X205447900Y-102829300D02*
X207479900Y-102829300D01*
G75*
G02*
X207581500Y-102930900I0J-101600D01*
G01*
X207581500Y-103591300D01*
G75*
G02*
X207479900Y-103692900I-101600J0D01*
G01*
X205447900Y-103692900D01*
G75*
G02*
X205346300Y-103591300I0J101600D01*
G01*
X205346300Y-102930900D01*
G75*
G02*
X205447900Y-102829300I101600J0D01*
G01*
G37*
G36*
G01*
X205447900Y-101559300D02*
X207479900Y-101559300D01*
G75*
G02*
X207581500Y-101660900I0J-101600D01*
G01*
X207581500Y-102321300D01*
G75*
G02*
X207479900Y-102422900I-101600J0D01*
G01*
X205447900Y-102422900D01*
G75*
G02*
X205346300Y-102321300I0J101600D01*
G01*
X205346300Y-101660900D01*
G75*
G02*
X205447900Y-101559300I101600J0D01*
G01*
G37*
G36*
G01*
X199301100Y-102829300D02*
X201333100Y-102829300D01*
G75*
G02*
X201434700Y-102930900I0J-101600D01*
G01*
X201434700Y-103591300D01*
G75*
G02*
X201333100Y-103692900I-101600J0D01*
G01*
X199301100Y-103692900D01*
G75*
G02*
X199199500Y-103591300I0J101600D01*
G01*
X199199500Y-102930900D01*
G75*
G02*
X199301100Y-102829300I101600J0D01*
G01*
G37*
G36*
G01*
X199301100Y-101559300D02*
X201333100Y-101559300D01*
G75*
G02*
X201434700Y-101660900I0J-101600D01*
G01*
X201434700Y-102321300D01*
G75*
G02*
X201333100Y-102422900I-101600J0D01*
G01*
X199301100Y-102422900D01*
G75*
G02*
X199199500Y-102321300I0J101600D01*
G01*
X199199500Y-101660900D01*
G75*
G02*
X199301100Y-101559300I101600J0D01*
G01*
G37*
G36*
G01*
X205447900Y-100289300D02*
X207479900Y-100289300D01*
G75*
G02*
X207581500Y-100390900I0J-101600D01*
G01*
X207581500Y-101051300D01*
G75*
G02*
X207479900Y-101152900I-101600J0D01*
G01*
X205447900Y-101152900D01*
G75*
G02*
X205346300Y-101051300I0J101600D01*
G01*
X205346300Y-100390900D01*
G75*
G02*
X205447900Y-100289300I101600J0D01*
G01*
G37*
G36*
G01*
X199301100Y-100289300D02*
X201333100Y-100289300D01*
G75*
G02*
X201434700Y-100390900I0J-101600D01*
G01*
X201434700Y-101051300D01*
G75*
G02*
X201333100Y-101152900I-101600J0D01*
G01*
X199301100Y-101152900D01*
G75*
G02*
X199199500Y-101051300I0J101600D01*
G01*
X199199500Y-100390900D01*
G75*
G02*
X199301100Y-100289300I101600J0D01*
G01*
G37*
G36*
G01*
X156454600Y-115228000D02*
X156454600Y-116928000D01*
G75*
G02*
X156353000Y-117029600I-101600J0D01*
G01*
X154353000Y-117029600D01*
G75*
G02*
X154251400Y-116928000I0J101600D01*
G01*
X154251400Y-115228000D01*
G75*
G02*
X154353000Y-115126400I101600J0D01*
G01*
X156353000Y-115126400D01*
G75*
G02*
X156454600Y-115228000I0J-101600D01*
G01*
G37*
G36*
G01*
X160454600Y-115228000D02*
X160454600Y-116928000D01*
G75*
G02*
X160353000Y-117029600I-101600J0D01*
G01*
X158353000Y-117029600D01*
G75*
G02*
X158251400Y-116928000I0J101600D01*
G01*
X158251400Y-115228000D01*
G75*
G02*
X158353000Y-115126400I101600J0D01*
G01*
X160353000Y-115126400D01*
G75*
G02*
X160454600Y-115228000I0J-101600D01*
G01*
G37*
G36*
G01*
X148756000Y-102616500D02*
X150456000Y-102616500D01*
G75*
G02*
X150557600Y-102718100I0J-101600D01*
G01*
X150557600Y-104718100D01*
G75*
G02*
X150456000Y-104819700I-101600J0D01*
G01*
X148756000Y-104819700D01*
G75*
G02*
X148654400Y-104718100I0J101600D01*
G01*
X148654400Y-102718100D01*
G75*
G02*
X148756000Y-102616500I101600J0D01*
G01*
G37*
G36*
G01*
X148756000Y-98616500D02*
X150456000Y-98616500D01*
G75*
G02*
X150557600Y-98718100I0J-101600D01*
G01*
X150557600Y-100718100D01*
G75*
G02*
X150456000Y-100819700I-101600J0D01*
G01*
X148756000Y-100819700D01*
G75*
G02*
X148654400Y-100718100I0J101600D01*
G01*
X148654400Y-98718100D01*
G75*
G02*
X148756000Y-98616500I101600J0D01*
G01*
G37*
G36*
G01*
X178214500Y-110043600D02*
X178214500Y-108543600D01*
G75*
G02*
X178316100Y-108442000I101600J0D01*
G01*
X179616100Y-108442000D01*
G75*
G02*
X179717700Y-108543600I0J-101600D01*
G01*
X179717700Y-110043600D01*
G75*
G02*
X179616100Y-110145200I-101600J0D01*
G01*
X178316100Y-110145200D01*
G75*
G02*
X178214500Y-110043600I0J101600D01*
G01*
G37*
G36*
G01*
X176314500Y-110043600D02*
X176314500Y-108543600D01*
G75*
G02*
X176416100Y-108442000I101600J0D01*
G01*
X177716100Y-108442000D01*
G75*
G02*
X177817700Y-108543600I0J-101600D01*
G01*
X177817700Y-110043600D01*
G75*
G02*
X177716100Y-110145200I-101600J0D01*
G01*
X176416100Y-110145200D01*
G75*
G02*
X176314500Y-110043600I0J101600D01*
G01*
G37*
G36*
G01*
X194375400Y-119667500D02*
X195875400Y-119667500D01*
G75*
G02*
X195977000Y-119769100I0J-101600D01*
G01*
X195977000Y-121069100D01*
G75*
G02*
X195875400Y-121170700I-101600J0D01*
G01*
X194375400Y-121170700D01*
G75*
G02*
X194273800Y-121069100I0J101600D01*
G01*
X194273800Y-119769100D01*
G75*
G02*
X194375400Y-119667500I101600J0D01*
G01*
G37*
G36*
G01*
X194375400Y-117767500D02*
X195875400Y-117767500D01*
G75*
G02*
X195977000Y-117869100I0J-101600D01*
G01*
X195977000Y-119169100D01*
G75*
G02*
X195875400Y-119270700I-101600J0D01*
G01*
X194375400Y-119270700D01*
G75*
G02*
X194273800Y-119169100I0J101600D01*
G01*
X194273800Y-117869100D01*
G75*
G02*
X194375400Y-117767500I101600J0D01*
G01*
G37*
G36*
G01*
X89551100Y-89092700D02*
X88051100Y-89092700D01*
G75*
G02*
X87949500Y-88991100I0J101600D01*
G01*
X87949500Y-87691100D01*
G75*
G02*
X88051100Y-87589500I101600J0D01*
G01*
X89551100Y-87589500D01*
G75*
G02*
X89652700Y-87691100I0J-101600D01*
G01*
X89652700Y-88991100D01*
G75*
G02*
X89551100Y-89092700I-101600J0D01*
G01*
G37*
G36*
G01*
X89551100Y-90992700D02*
X88051100Y-90992700D01*
G75*
G02*
X87949500Y-90891100I0J101600D01*
G01*
X87949500Y-89591100D01*
G75*
G02*
X88051100Y-89489500I101600J0D01*
G01*
X89551100Y-89489500D01*
G75*
G02*
X89652700Y-89591100I0J-101600D01*
G01*
X89652700Y-90891100D01*
G75*
G02*
X89551100Y-90992700I-101600J0D01*
G01*
G37*
G36*
G01*
X109548600Y-89092700D02*
X108048600Y-89092700D01*
G75*
G02*
X107947000Y-88991100I0J101600D01*
G01*
X107947000Y-87691100D01*
G75*
G02*
X108048600Y-87589500I101600J0D01*
G01*
X109548600Y-87589500D01*
G75*
G02*
X109650200Y-87691100I0J-101600D01*
G01*
X109650200Y-88991100D01*
G75*
G02*
X109548600Y-89092700I-101600J0D01*
G01*
G37*
G36*
G01*
X109548600Y-90992700D02*
X108048600Y-90992700D01*
G75*
G02*
X107947000Y-90891100I0J101600D01*
G01*
X107947000Y-89591100D01*
G75*
G02*
X108048600Y-89489500I101600J0D01*
G01*
X109548600Y-89489500D01*
G75*
G02*
X109650200Y-89591100I0J-101600D01*
G01*
X109650200Y-90891100D01*
G75*
G02*
X109548600Y-90992700I-101600J0D01*
G01*
G37*
G36*
G01*
X129553600Y-89092700D02*
X128053600Y-89092700D01*
G75*
G02*
X127952000Y-88991100I0J101600D01*
G01*
X127952000Y-87691100D01*
G75*
G02*
X128053600Y-87589500I101600J0D01*
G01*
X129553600Y-87589500D01*
G75*
G02*
X129655200Y-87691100I0J-101600D01*
G01*
X129655200Y-88991100D01*
G75*
G02*
X129553600Y-89092700I-101600J0D01*
G01*
G37*
G36*
G01*
X129553600Y-90992700D02*
X128053600Y-90992700D01*
G75*
G02*
X127952000Y-90891100I0J101600D01*
G01*
X127952000Y-89591100D01*
G75*
G02*
X128053600Y-89489500I101600J0D01*
G01*
X129553600Y-89489500D01*
G75*
G02*
X129655200Y-89591100I0J-101600D01*
G01*
X129655200Y-90891100D01*
G75*
G02*
X129553600Y-90992700I-101600J0D01*
G01*
G37*
G36*
G01*
X149556100Y-89092700D02*
X148056100Y-89092700D01*
G75*
G02*
X147954500Y-88991100I0J101600D01*
G01*
X147954500Y-87691100D01*
G75*
G02*
X148056100Y-87589500I101600J0D01*
G01*
X149556100Y-87589500D01*
G75*
G02*
X149657700Y-87691100I0J-101600D01*
G01*
X149657700Y-88991100D01*
G75*
G02*
X149556100Y-89092700I-101600J0D01*
G01*
G37*
G36*
G01*
X149556100Y-90992700D02*
X148056100Y-90992700D01*
G75*
G02*
X147954500Y-90891100I0J101600D01*
G01*
X147954500Y-89591100D01*
G75*
G02*
X148056100Y-89489500I101600J0D01*
G01*
X149556100Y-89489500D01*
G75*
G02*
X149657700Y-89591100I0J-101600D01*
G01*
X149657700Y-90891100D01*
G75*
G02*
X149556100Y-90992700I-101600J0D01*
G01*
G37*
G36*
G01*
X164985000Y-122509500D02*
X166485000Y-122509500D01*
G75*
G02*
X166586600Y-122611100I0J-101600D01*
G01*
X166586600Y-123911100D01*
G75*
G02*
X166485000Y-124012700I-101600J0D01*
G01*
X164985000Y-124012700D01*
G75*
G02*
X164883400Y-123911100I0J101600D01*
G01*
X164883400Y-122611100D01*
G75*
G02*
X164985000Y-122509500I101600J0D01*
G01*
G37*
G36*
G01*
X164985000Y-120609500D02*
X166485000Y-120609500D01*
G75*
G02*
X166586600Y-120711100I0J-101600D01*
G01*
X166586600Y-122011100D01*
G75*
G02*
X166485000Y-122112700I-101600J0D01*
G01*
X164985000Y-122112700D01*
G75*
G02*
X164883400Y-122011100I0J101600D01*
G01*
X164883400Y-120711100D01*
G75*
G02*
X164985000Y-120609500I101600J0D01*
G01*
G37*
G36*
G01*
X164161100Y-122112700D02*
X162661100Y-122112700D01*
G75*
G02*
X162559500Y-122011100I0J101600D01*
G01*
X162559500Y-120711100D01*
G75*
G02*
X162661100Y-120609500I101600J0D01*
G01*
X164161100Y-120609500D01*
G75*
G02*
X164262700Y-120711100I0J-101600D01*
G01*
X164262700Y-122011100D01*
G75*
G02*
X164161100Y-122112700I-101600J0D01*
G01*
G37*
G36*
G01*
X164161100Y-124012700D02*
X162661100Y-124012700D01*
G75*
G02*
X162559500Y-123911100I0J101600D01*
G01*
X162559500Y-122611100D01*
G75*
G02*
X162661100Y-122509500I101600J0D01*
G01*
X164161100Y-122509500D01*
G75*
G02*
X164262700Y-122611100I0J-101600D01*
G01*
X164262700Y-123911100D01*
G75*
G02*
X164161100Y-124012700I-101600J0D01*
G01*
G37*
G36*
G01*
X171864500Y-106233600D02*
X171864500Y-104733600D01*
G75*
G02*
X171966100Y-104632000I101600J0D01*
G01*
X173266100Y-104632000D01*
G75*
G02*
X173367700Y-104733600I0J-101600D01*
G01*
X173367700Y-106233600D01*
G75*
G02*
X173266100Y-106335200I-101600J0D01*
G01*
X171966100Y-106335200D01*
G75*
G02*
X171864500Y-106233600I0J101600D01*
G01*
G37*
G36*
G01*
X169964500Y-106233600D02*
X169964500Y-104733600D01*
G75*
G02*
X170066100Y-104632000I101600J0D01*
G01*
X171366100Y-104632000D01*
G75*
G02*
X171467700Y-104733600I0J-101600D01*
G01*
X171467700Y-106233600D01*
G75*
G02*
X171366100Y-106335200I-101600J0D01*
G01*
X170066100Y-106335200D01*
G75*
G02*
X169964500Y-106233600I0J101600D01*
G01*
G37*
G36*
G01*
X182897700Y-108543600D02*
X182897700Y-110043600D01*
G75*
G02*
X182796100Y-110145200I-101600J0D01*
G01*
X181496100Y-110145200D01*
G75*
G02*
X181394500Y-110043600I0J101600D01*
G01*
X181394500Y-108543600D01*
G75*
G02*
X181496100Y-108442000I101600J0D01*
G01*
X182796100Y-108442000D01*
G75*
G02*
X182897700Y-108543600I0J-101600D01*
G01*
G37*
G36*
G01*
X184797700Y-108543600D02*
X184797700Y-110043600D01*
G75*
G02*
X184696100Y-110145200I-101600J0D01*
G01*
X183396100Y-110145200D01*
G75*
G02*
X183294500Y-110043600I0J101600D01*
G01*
X183294500Y-108543600D01*
G75*
G02*
X183396100Y-108442000I101600J0D01*
G01*
X184696100Y-108442000D01*
G75*
G02*
X184797700Y-108543600I0J-101600D01*
G01*
G37*
G36*
G01*
X171864500Y-103693600D02*
X171864500Y-102193600D01*
G75*
G02*
X171966100Y-102092000I101600J0D01*
G01*
X173266100Y-102092000D01*
G75*
G02*
X173367700Y-102193600I0J-101600D01*
G01*
X173367700Y-103693600D01*
G75*
G02*
X173266100Y-103795200I-101600J0D01*
G01*
X171966100Y-103795200D01*
G75*
G02*
X171864500Y-103693600I0J101600D01*
G01*
G37*
G36*
G01*
X169964500Y-103693600D02*
X169964500Y-102193600D01*
G75*
G02*
X170066100Y-102092000I101600J0D01*
G01*
X171366100Y-102092000D01*
G75*
G02*
X171467700Y-102193600I0J-101600D01*
G01*
X171467700Y-103693600D01*
G75*
G02*
X171366100Y-103795200I-101600J0D01*
G01*
X170066100Y-103795200D01*
G75*
G02*
X169964500Y-103693600I0J101600D01*
G01*
G37*
G36*
G01*
X161303600Y-122112700D02*
X159803600Y-122112700D01*
G75*
G02*
X159702000Y-122011100I0J101600D01*
G01*
X159702000Y-120711100D01*
G75*
G02*
X159803600Y-120609500I101600J0D01*
G01*
X161303600Y-120609500D01*
G75*
G02*
X161405200Y-120711100I0J-101600D01*
G01*
X161405200Y-122011100D01*
G75*
G02*
X161303600Y-122112700I-101600J0D01*
G01*
G37*
G36*
G01*
X161303600Y-124012700D02*
X159803600Y-124012700D01*
G75*
G02*
X159702000Y-123911100I0J101600D01*
G01*
X159702000Y-122611100D01*
G75*
G02*
X159803600Y-122509500I101600J0D01*
G01*
X161303600Y-122509500D01*
G75*
G02*
X161405200Y-122611100I0J-101600D01*
G01*
X161405200Y-123911100D01*
G75*
G02*
X161303600Y-124012700I-101600J0D01*
G01*
G37*
G36*
G01*
X177897000Y-89771100D02*
X177897000Y-88271100D01*
G75*
G02*
X177998600Y-88169500I101600J0D01*
G01*
X179298600Y-88169500D01*
G75*
G02*
X179400200Y-88271100I0J-101600D01*
G01*
X179400200Y-89771100D01*
G75*
G02*
X179298600Y-89872700I-101600J0D01*
G01*
X177998600Y-89872700D01*
G75*
G02*
X177897000Y-89771100I0J101600D01*
G01*
G37*
G36*
G01*
X175997000Y-89771100D02*
X175997000Y-88271100D01*
G75*
G02*
X176098600Y-88169500I101600J0D01*
G01*
X177398600Y-88169500D01*
G75*
G02*
X177500200Y-88271100I0J-101600D01*
G01*
X177500200Y-89771100D01*
G75*
G02*
X177398600Y-89872700I-101600J0D01*
G01*
X176098600Y-89872700D01*
G75*
G02*
X175997000Y-89771100I0J101600D01*
G01*
G37*
G36*
G01*
X189331100Y-119652000D02*
X190831100Y-119652000D01*
G75*
G02*
X190932700Y-119753600I0J-101600D01*
G01*
X190932700Y-121053600D01*
G75*
G02*
X190831100Y-121155200I-101600J0D01*
G01*
X189331100Y-121155200D01*
G75*
G02*
X189229500Y-121053600I0J101600D01*
G01*
X189229500Y-119753600D01*
G75*
G02*
X189331100Y-119652000I101600J0D01*
G01*
G37*
G36*
G01*
X189331100Y-117752000D02*
X190831100Y-117752000D01*
G75*
G02*
X190932700Y-117853600I0J-101600D01*
G01*
X190932700Y-119153600D01*
G75*
G02*
X190831100Y-119255200I-101600J0D01*
G01*
X189331100Y-119255200D01*
G75*
G02*
X189229500Y-119153600I0J101600D01*
G01*
X189229500Y-117853600D01*
G75*
G02*
X189331100Y-117752000I101600J0D01*
G01*
G37*
G36*
G01*
X196915400Y-119667500D02*
X198415400Y-119667500D01*
G75*
G02*
X198517000Y-119769100I0J-101600D01*
G01*
X198517000Y-121069100D01*
G75*
G02*
X198415400Y-121170700I-101600J0D01*
G01*
X196915400Y-121170700D01*
G75*
G02*
X196813800Y-121069100I0J101600D01*
G01*
X196813800Y-119769100D01*
G75*
G02*
X196915400Y-119667500I101600J0D01*
G01*
G37*
G36*
G01*
X196915400Y-117767500D02*
X198415400Y-117767500D01*
G75*
G02*
X198517000Y-117869100I0J-101600D01*
G01*
X198517000Y-119169100D01*
G75*
G02*
X198415400Y-119270700I-101600J0D01*
G01*
X196915400Y-119270700D01*
G75*
G02*
X196813800Y-119169100I0J101600D01*
G01*
X196813800Y-117869100D01*
G75*
G02*
X196915400Y-117767500I101600J0D01*
G01*
G37*
G36*
G01*
X165049850Y-108120700D02*
X164732350Y-108120700D01*
G75*
G02*
X164630750Y-108019100I0J101600D01*
G01*
X164630750Y-107003100D01*
G75*
G02*
X164732350Y-106901500I101600J0D01*
G01*
X165049850Y-106901500D01*
G75*
G02*
X165151450Y-107003100I0J-101600D01*
G01*
X165151450Y-108019100D01*
G75*
G02*
X165049850Y-108120700I-101600J0D01*
G01*
G37*
G36*
G01*
X164549850Y-108120700D02*
X164232350Y-108120700D01*
G75*
G02*
X164130750Y-108019100I0J101600D01*
G01*
X164130750Y-107003100D01*
G75*
G02*
X164232350Y-106901500I101600J0D01*
G01*
X164549850Y-106901500D01*
G75*
G02*
X164651450Y-107003100I0J-101600D01*
G01*
X164651450Y-108019100D01*
G75*
G02*
X164549850Y-108120700I-101600J0D01*
G01*
G37*
G36*
G01*
X164049850Y-108120700D02*
X163732350Y-108120700D01*
G75*
G02*
X163630750Y-108019100I0J101600D01*
G01*
X163630750Y-107003100D01*
G75*
G02*
X163732350Y-106901500I101600J0D01*
G01*
X164049850Y-106901500D01*
G75*
G02*
X164151450Y-107003100I0J-101600D01*
G01*
X164151450Y-108019100D01*
G75*
G02*
X164049850Y-108120700I-101600J0D01*
G01*
G37*
G36*
G01*
X163549850Y-108120700D02*
X163232350Y-108120700D01*
G75*
G02*
X163130750Y-108019100I0J101600D01*
G01*
X163130750Y-107003100D01*
G75*
G02*
X163232350Y-106901500I101600J0D01*
G01*
X163549850Y-106901500D01*
G75*
G02*
X163651450Y-107003100I0J-101600D01*
G01*
X163651450Y-108019100D01*
G75*
G02*
X163549850Y-108120700I-101600J0D01*
G01*
G37*
G36*
G01*
X163049850Y-108120700D02*
X162732350Y-108120700D01*
G75*
G02*
X162630750Y-108019100I0J101600D01*
G01*
X162630750Y-107003100D01*
G75*
G02*
X162732350Y-106901500I101600J0D01*
G01*
X163049850Y-106901500D01*
G75*
G02*
X163151450Y-107003100I0J-101600D01*
G01*
X163151450Y-108019100D01*
G75*
G02*
X163049850Y-108120700I-101600J0D01*
G01*
G37*
G36*
G01*
X162549850Y-108120700D02*
X162232350Y-108120700D01*
G75*
G02*
X162130750Y-108019100I0J101600D01*
G01*
X162130750Y-107003100D01*
G75*
G02*
X162232350Y-106901500I101600J0D01*
G01*
X162549850Y-106901500D01*
G75*
G02*
X162651450Y-107003100I0J-101600D01*
G01*
X162651450Y-108019100D01*
G75*
G02*
X162549850Y-108120700I-101600J0D01*
G01*
G37*
G36*
G01*
X162049850Y-108120700D02*
X161732350Y-108120700D01*
G75*
G02*
X161630750Y-108019100I0J101600D01*
G01*
X161630750Y-107003100D01*
G75*
G02*
X161732350Y-106901500I101600J0D01*
G01*
X162049850Y-106901500D01*
G75*
G02*
X162151450Y-107003100I0J-101600D01*
G01*
X162151450Y-108019100D01*
G75*
G02*
X162049850Y-108120700I-101600J0D01*
G01*
G37*
G36*
G01*
X161549850Y-108120700D02*
X161232350Y-108120700D01*
G75*
G02*
X161130750Y-108019100I0J101600D01*
G01*
X161130750Y-107003100D01*
G75*
G02*
X161232350Y-106901500I101600J0D01*
G01*
X161549850Y-106901500D01*
G75*
G02*
X161651450Y-107003100I0J-101600D01*
G01*
X161651450Y-108019100D01*
G75*
G02*
X161549850Y-108120700I-101600J0D01*
G01*
G37*
G36*
G01*
X161049850Y-108120700D02*
X160732350Y-108120700D01*
G75*
G02*
X160630750Y-108019100I0J101600D01*
G01*
X160630750Y-107003100D01*
G75*
G02*
X160732350Y-106901500I101600J0D01*
G01*
X161049850Y-106901500D01*
G75*
G02*
X161151450Y-107003100I0J-101600D01*
G01*
X161151450Y-108019100D01*
G75*
G02*
X161049850Y-108120700I-101600J0D01*
G01*
G37*
G36*
G01*
X160549850Y-108120700D02*
X160232350Y-108120700D01*
G75*
G02*
X160130750Y-108019100I0J101600D01*
G01*
X160130750Y-107003100D01*
G75*
G02*
X160232350Y-106901500I101600J0D01*
G01*
X160549850Y-106901500D01*
G75*
G02*
X160651450Y-107003100I0J-101600D01*
G01*
X160651450Y-108019100D01*
G75*
G02*
X160549850Y-108120700I-101600J0D01*
G01*
G37*
G36*
G01*
X160049850Y-108120700D02*
X159732350Y-108120700D01*
G75*
G02*
X159630750Y-108019100I0J101600D01*
G01*
X159630750Y-107003100D01*
G75*
G02*
X159732350Y-106901500I101600J0D01*
G01*
X160049850Y-106901500D01*
G75*
G02*
X160151450Y-107003100I0J-101600D01*
G01*
X160151450Y-108019100D01*
G75*
G02*
X160049850Y-108120700I-101600J0D01*
G01*
G37*
G36*
G01*
X159549850Y-108120700D02*
X159232350Y-108120700D01*
G75*
G02*
X159130750Y-108019100I0J101600D01*
G01*
X159130750Y-107003100D01*
G75*
G02*
X159232350Y-106901500I101600J0D01*
G01*
X159549850Y-106901500D01*
G75*
G02*
X159651450Y-107003100I0J-101600D01*
G01*
X159651450Y-108019100D01*
G75*
G02*
X159549850Y-108120700I-101600J0D01*
G01*
G37*
G36*
G01*
X158399100Y-106271450D02*
X157383100Y-106271450D01*
G75*
G02*
X157281500Y-106169850I0J101600D01*
G01*
X157281500Y-105852350D01*
G75*
G02*
X157383100Y-105750750I101600J0D01*
G01*
X158399100Y-105750750D01*
G75*
G02*
X158500700Y-105852350I0J-101600D01*
G01*
X158500700Y-106169850D01*
G75*
G02*
X158399100Y-106271450I-101600J0D01*
G01*
G37*
G36*
G01*
X158399100Y-105771450D02*
X157383100Y-105771450D01*
G75*
G02*
X157281500Y-105669850I0J101600D01*
G01*
X157281500Y-105352350D01*
G75*
G02*
X157383100Y-105250750I101600J0D01*
G01*
X158399100Y-105250750D01*
G75*
G02*
X158500700Y-105352350I0J-101600D01*
G01*
X158500700Y-105669850D01*
G75*
G02*
X158399100Y-105771450I-101600J0D01*
G01*
G37*
G36*
G01*
X158399100Y-105271450D02*
X157383100Y-105271450D01*
G75*
G02*
X157281500Y-105169850I0J101600D01*
G01*
X157281500Y-104852350D01*
G75*
G02*
X157383100Y-104750750I101600J0D01*
G01*
X158399100Y-104750750D01*
G75*
G02*
X158500700Y-104852350I0J-101600D01*
G01*
X158500700Y-105169850D01*
G75*
G02*
X158399100Y-105271450I-101600J0D01*
G01*
G37*
G36*
G01*
X158399100Y-104771450D02*
X157383100Y-104771450D01*
G75*
G02*
X157281500Y-104669850I0J101600D01*
G01*
X157281500Y-104352350D01*
G75*
G02*
X157383100Y-104250750I101600J0D01*
G01*
X158399100Y-104250750D01*
G75*
G02*
X158500700Y-104352350I0J-101600D01*
G01*
X158500700Y-104669850D01*
G75*
G02*
X158399100Y-104771450I-101600J0D01*
G01*
G37*
G36*
G01*
X158399100Y-104271450D02*
X157383100Y-104271450D01*
G75*
G02*
X157281500Y-104169850I0J101600D01*
G01*
X157281500Y-103852350D01*
G75*
G02*
X157383100Y-103750750I101600J0D01*
G01*
X158399100Y-103750750D01*
G75*
G02*
X158500700Y-103852350I0J-101600D01*
G01*
X158500700Y-104169850D01*
G75*
G02*
X158399100Y-104271450I-101600J0D01*
G01*
G37*
G36*
G01*
X158399100Y-103771450D02*
X157383100Y-103771450D01*
G75*
G02*
X157281500Y-103669850I0J101600D01*
G01*
X157281500Y-103352350D01*
G75*
G02*
X157383100Y-103250750I101600J0D01*
G01*
X158399100Y-103250750D01*
G75*
G02*
X158500700Y-103352350I0J-101600D01*
G01*
X158500700Y-103669850D01*
G75*
G02*
X158399100Y-103771450I-101600J0D01*
G01*
G37*
G36*
G01*
X158399100Y-103271450D02*
X157383100Y-103271450D01*
G75*
G02*
X157281500Y-103169850I0J101600D01*
G01*
X157281500Y-102852350D01*
G75*
G02*
X157383100Y-102750750I101600J0D01*
G01*
X158399100Y-102750750D01*
G75*
G02*
X158500700Y-102852350I0J-101600D01*
G01*
X158500700Y-103169850D01*
G75*
G02*
X158399100Y-103271450I-101600J0D01*
G01*
G37*
G36*
G01*
X158399100Y-102771450D02*
X157383100Y-102771450D01*
G75*
G02*
X157281500Y-102669850I0J101600D01*
G01*
X157281500Y-102352350D01*
G75*
G02*
X157383100Y-102250750I101600J0D01*
G01*
X158399100Y-102250750D01*
G75*
G02*
X158500700Y-102352350I0J-101600D01*
G01*
X158500700Y-102669850D01*
G75*
G02*
X158399100Y-102771450I-101600J0D01*
G01*
G37*
G36*
G01*
X158399100Y-102271450D02*
X157383100Y-102271450D01*
G75*
G02*
X157281500Y-102169850I0J101600D01*
G01*
X157281500Y-101852350D01*
G75*
G02*
X157383100Y-101750750I101600J0D01*
G01*
X158399100Y-101750750D01*
G75*
G02*
X158500700Y-101852350I0J-101600D01*
G01*
X158500700Y-102169850D01*
G75*
G02*
X158399100Y-102271450I-101600J0D01*
G01*
G37*
G36*
G01*
X158399100Y-101771450D02*
X157383100Y-101771450D01*
G75*
G02*
X157281500Y-101669850I0J101600D01*
G01*
X157281500Y-101352350D01*
G75*
G02*
X157383100Y-101250750I101600J0D01*
G01*
X158399100Y-101250750D01*
G75*
G02*
X158500700Y-101352350I0J-101600D01*
G01*
X158500700Y-101669850D01*
G75*
G02*
X158399100Y-101771450I-101600J0D01*
G01*
G37*
G36*
G01*
X158399100Y-101271450D02*
X157383100Y-101271450D01*
G75*
G02*
X157281500Y-101169850I0J101600D01*
G01*
X157281500Y-100852350D01*
G75*
G02*
X157383100Y-100750750I101600J0D01*
G01*
X158399100Y-100750750D01*
G75*
G02*
X158500700Y-100852350I0J-101600D01*
G01*
X158500700Y-101169850D01*
G75*
G02*
X158399100Y-101271450I-101600J0D01*
G01*
G37*
G36*
G01*
X158399100Y-100771450D02*
X157383100Y-100771450D01*
G75*
G02*
X157281500Y-100669850I0J101600D01*
G01*
X157281500Y-100352350D01*
G75*
G02*
X157383100Y-100250750I101600J0D01*
G01*
X158399100Y-100250750D01*
G75*
G02*
X158500700Y-100352350I0J-101600D01*
G01*
X158500700Y-100669850D01*
G75*
G02*
X158399100Y-100771450I-101600J0D01*
G01*
G37*
G36*
G01*
X159549850Y-99620700D02*
X159232350Y-99620700D01*
G75*
G02*
X159130750Y-99519100I0J101600D01*
G01*
X159130750Y-98503100D01*
G75*
G02*
X159232350Y-98401500I101600J0D01*
G01*
X159549850Y-98401500D01*
G75*
G02*
X159651450Y-98503100I0J-101600D01*
G01*
X159651450Y-99519100D01*
G75*
G02*
X159549850Y-99620700I-101600J0D01*
G01*
G37*
G36*
G01*
X160049850Y-99620700D02*
X159732350Y-99620700D01*
G75*
G02*
X159630750Y-99519100I0J101600D01*
G01*
X159630750Y-98503100D01*
G75*
G02*
X159732350Y-98401500I101600J0D01*
G01*
X160049850Y-98401500D01*
G75*
G02*
X160151450Y-98503100I0J-101600D01*
G01*
X160151450Y-99519100D01*
G75*
G02*
X160049850Y-99620700I-101600J0D01*
G01*
G37*
G36*
G01*
X160549850Y-99620700D02*
X160232350Y-99620700D01*
G75*
G02*
X160130750Y-99519100I0J101600D01*
G01*
X160130750Y-98503100D01*
G75*
G02*
X160232350Y-98401500I101600J0D01*
G01*
X160549850Y-98401500D01*
G75*
G02*
X160651450Y-98503100I0J-101600D01*
G01*
X160651450Y-99519100D01*
G75*
G02*
X160549850Y-99620700I-101600J0D01*
G01*
G37*
G36*
G01*
X161049850Y-99620700D02*
X160732350Y-99620700D01*
G75*
G02*
X160630750Y-99519100I0J101600D01*
G01*
X160630750Y-98503100D01*
G75*
G02*
X160732350Y-98401500I101600J0D01*
G01*
X161049850Y-98401500D01*
G75*
G02*
X161151450Y-98503100I0J-101600D01*
G01*
X161151450Y-99519100D01*
G75*
G02*
X161049850Y-99620700I-101600J0D01*
G01*
G37*
G36*
G01*
X161549850Y-99620700D02*
X161232350Y-99620700D01*
G75*
G02*
X161130750Y-99519100I0J101600D01*
G01*
X161130750Y-98503100D01*
G75*
G02*
X161232350Y-98401500I101600J0D01*
G01*
X161549850Y-98401500D01*
G75*
G02*
X161651450Y-98503100I0J-101600D01*
G01*
X161651450Y-99519100D01*
G75*
G02*
X161549850Y-99620700I-101600J0D01*
G01*
G37*
G36*
G01*
X162049850Y-99620700D02*
X161732350Y-99620700D01*
G75*
G02*
X161630750Y-99519100I0J101600D01*
G01*
X161630750Y-98503100D01*
G75*
G02*
X161732350Y-98401500I101600J0D01*
G01*
X162049850Y-98401500D01*
G75*
G02*
X162151450Y-98503100I0J-101600D01*
G01*
X162151450Y-99519100D01*
G75*
G02*
X162049850Y-99620700I-101600J0D01*
G01*
G37*
G36*
G01*
X162549850Y-99620700D02*
X162232350Y-99620700D01*
G75*
G02*
X162130750Y-99519100I0J101600D01*
G01*
X162130750Y-98503100D01*
G75*
G02*
X162232350Y-98401500I101600J0D01*
G01*
X162549850Y-98401500D01*
G75*
G02*
X162651450Y-98503100I0J-101600D01*
G01*
X162651450Y-99519100D01*
G75*
G02*
X162549850Y-99620700I-101600J0D01*
G01*
G37*
G36*
G01*
X163049850Y-99620700D02*
X162732350Y-99620700D01*
G75*
G02*
X162630750Y-99519100I0J101600D01*
G01*
X162630750Y-98503100D01*
G75*
G02*
X162732350Y-98401500I101600J0D01*
G01*
X163049850Y-98401500D01*
G75*
G02*
X163151450Y-98503100I0J-101600D01*
G01*
X163151450Y-99519100D01*
G75*
G02*
X163049850Y-99620700I-101600J0D01*
G01*
G37*
G36*
G01*
X163549850Y-99620700D02*
X163232350Y-99620700D01*
G75*
G02*
X163130750Y-99519100I0J101600D01*
G01*
X163130750Y-98503100D01*
G75*
G02*
X163232350Y-98401500I101600J0D01*
G01*
X163549850Y-98401500D01*
G75*
G02*
X163651450Y-98503100I0J-101600D01*
G01*
X163651450Y-99519100D01*
G75*
G02*
X163549850Y-99620700I-101600J0D01*
G01*
G37*
G36*
G01*
X164049850Y-99620700D02*
X163732350Y-99620700D01*
G75*
G02*
X163630750Y-99519100I0J101600D01*
G01*
X163630750Y-98503100D01*
G75*
G02*
X163732350Y-98401500I101600J0D01*
G01*
X164049850Y-98401500D01*
G75*
G02*
X164151450Y-98503100I0J-101600D01*
G01*
X164151450Y-99519100D01*
G75*
G02*
X164049850Y-99620700I-101600J0D01*
G01*
G37*
G36*
G01*
X164549850Y-99620700D02*
X164232350Y-99620700D01*
G75*
G02*
X164130750Y-99519100I0J101600D01*
G01*
X164130750Y-98503100D01*
G75*
G02*
X164232350Y-98401500I101600J0D01*
G01*
X164549850Y-98401500D01*
G75*
G02*
X164651450Y-98503100I0J-101600D01*
G01*
X164651450Y-99519100D01*
G75*
G02*
X164549850Y-99620700I-101600J0D01*
G01*
G37*
G36*
G01*
X165049850Y-99620700D02*
X164732350Y-99620700D01*
G75*
G02*
X164630750Y-99519100I0J101600D01*
G01*
X164630750Y-98503100D01*
G75*
G02*
X164732350Y-98401500I101600J0D01*
G01*
X165049850Y-98401500D01*
G75*
G02*
X165151450Y-98503100I0J-101600D01*
G01*
X165151450Y-99519100D01*
G75*
G02*
X165049850Y-99620700I-101600J0D01*
G01*
G37*
G36*
G01*
X166899100Y-100771450D02*
X165883100Y-100771450D01*
G75*
G02*
X165781500Y-100669850I0J101600D01*
G01*
X165781500Y-100352350D01*
G75*
G02*
X165883100Y-100250750I101600J0D01*
G01*
X166899100Y-100250750D01*
G75*
G02*
X167000700Y-100352350I0J-101600D01*
G01*
X167000700Y-100669850D01*
G75*
G02*
X166899100Y-100771450I-101600J0D01*
G01*
G37*
G36*
G01*
X166899100Y-101271450D02*
X165883100Y-101271450D01*
G75*
G02*
X165781500Y-101169850I0J101600D01*
G01*
X165781500Y-100852350D01*
G75*
G02*
X165883100Y-100750750I101600J0D01*
G01*
X166899100Y-100750750D01*
G75*
G02*
X167000700Y-100852350I0J-101600D01*
G01*
X167000700Y-101169850D01*
G75*
G02*
X166899100Y-101271450I-101600J0D01*
G01*
G37*
G36*
G01*
X166899100Y-101771450D02*
X165883100Y-101771450D01*
G75*
G02*
X165781500Y-101669850I0J101600D01*
G01*
X165781500Y-101352350D01*
G75*
G02*
X165883100Y-101250750I101600J0D01*
G01*
X166899100Y-101250750D01*
G75*
G02*
X167000700Y-101352350I0J-101600D01*
G01*
X167000700Y-101669850D01*
G75*
G02*
X166899100Y-101771450I-101600J0D01*
G01*
G37*
G36*
G01*
X166899100Y-102271450D02*
X165883100Y-102271450D01*
G75*
G02*
X165781500Y-102169850I0J101600D01*
G01*
X165781500Y-101852350D01*
G75*
G02*
X165883100Y-101750750I101600J0D01*
G01*
X166899100Y-101750750D01*
G75*
G02*
X167000700Y-101852350I0J-101600D01*
G01*
X167000700Y-102169850D01*
G75*
G02*
X166899100Y-102271450I-101600J0D01*
G01*
G37*
G36*
G01*
X166899100Y-102771450D02*
X165883100Y-102771450D01*
G75*
G02*
X165781500Y-102669850I0J101600D01*
G01*
X165781500Y-102352350D01*
G75*
G02*
X165883100Y-102250750I101600J0D01*
G01*
X166899100Y-102250750D01*
G75*
G02*
X167000700Y-102352350I0J-101600D01*
G01*
X167000700Y-102669850D01*
G75*
G02*
X166899100Y-102771450I-101600J0D01*
G01*
G37*
G36*
G01*
X166899100Y-103271450D02*
X165883100Y-103271450D01*
G75*
G02*
X165781500Y-103169850I0J101600D01*
G01*
X165781500Y-102852350D01*
G75*
G02*
X165883100Y-102750750I101600J0D01*
G01*
X166899100Y-102750750D01*
G75*
G02*
X167000700Y-102852350I0J-101600D01*
G01*
X167000700Y-103169850D01*
G75*
G02*
X166899100Y-103271450I-101600J0D01*
G01*
G37*
G36*
G01*
X166899100Y-103771450D02*
X165883100Y-103771450D01*
G75*
G02*
X165781500Y-103669850I0J101600D01*
G01*
X165781500Y-103352350D01*
G75*
G02*
X165883100Y-103250750I101600J0D01*
G01*
X166899100Y-103250750D01*
G75*
G02*
X167000700Y-103352350I0J-101600D01*
G01*
X167000700Y-103669850D01*
G75*
G02*
X166899100Y-103771450I-101600J0D01*
G01*
G37*
G36*
G01*
X166899100Y-104271450D02*
X165883100Y-104271450D01*
G75*
G02*
X165781500Y-104169850I0J101600D01*
G01*
X165781500Y-103852350D01*
G75*
G02*
X165883100Y-103750750I101600J0D01*
G01*
X166899100Y-103750750D01*
G75*
G02*
X167000700Y-103852350I0J-101600D01*
G01*
X167000700Y-104169850D01*
G75*
G02*
X166899100Y-104271450I-101600J0D01*
G01*
G37*
G36*
G01*
X166899100Y-104771450D02*
X165883100Y-104771450D01*
G75*
G02*
X165781500Y-104669850I0J101600D01*
G01*
X165781500Y-104352350D01*
G75*
G02*
X165883100Y-104250750I101600J0D01*
G01*
X166899100Y-104250750D01*
G75*
G02*
X167000700Y-104352350I0J-101600D01*
G01*
X167000700Y-104669850D01*
G75*
G02*
X166899100Y-104771450I-101600J0D01*
G01*
G37*
G36*
G01*
X166899100Y-105271450D02*
X165883100Y-105271450D01*
G75*
G02*
X165781500Y-105169850I0J101600D01*
G01*
X165781500Y-104852350D01*
G75*
G02*
X165883100Y-104750750I101600J0D01*
G01*
X166899100Y-104750750D01*
G75*
G02*
X167000700Y-104852350I0J-101600D01*
G01*
X167000700Y-105169850D01*
G75*
G02*
X166899100Y-105271450I-101600J0D01*
G01*
G37*
G36*
G01*
X166899100Y-105771450D02*
X165883100Y-105771450D01*
G75*
G02*
X165781500Y-105669850I0J101600D01*
G01*
X165781500Y-105352350D01*
G75*
G02*
X165883100Y-105250750I101600J0D01*
G01*
X166899100Y-105250750D01*
G75*
G02*
X167000700Y-105352350I0J-101600D01*
G01*
X167000700Y-105669850D01*
G75*
G02*
X166899100Y-105771450I-101600J0D01*
G01*
G37*
G36*
G01*
X166899100Y-106271450D02*
X165883100Y-106271450D01*
G75*
G02*
X165781500Y-106169850I0J101600D01*
G01*
X165781500Y-105852350D01*
G75*
G02*
X165883100Y-105750750I101600J0D01*
G01*
X166899100Y-105750750D01*
G75*
G02*
X167000700Y-105852350I0J-101600D01*
G01*
X167000700Y-106169850D01*
G75*
G02*
X166899100Y-106271450I-101600J0D01*
G01*
G37*
D21*
X183731100Y-78503600D03*
X173571100Y-78503600D03*
D22*
X176111100Y-83583600D03*
X178651100Y-83583600D03*
D23*
X182969100Y-113738600D03*
X178143100Y-113738600D03*
D21*
X93731100Y-78503600D03*
X83571100Y-78503600D03*
D22*
X86111100Y-83583600D03*
X88651100Y-83583600D03*
D21*
X113731100Y-78503600D03*
X103571100Y-78503600D03*
D22*
X106111100Y-83583600D03*
X108651100Y-83583600D03*
D21*
X133731100Y-78503600D03*
X123571100Y-78503600D03*
D22*
X126111100Y-83583600D03*
X128651100Y-83583600D03*
D21*
X153731100Y-78503600D03*
X143571100Y-78503600D03*
D22*
X146111100Y-83583600D03*
X148651100Y-83583600D03*
M02*
